<?xml version="1.0" encoding="utf-8" standalone="no"?>
<!DOCTYPE svg PUBLIC "-//W3C//DTD SVG 1.1//EN"
  "http://www.w3.org/Graphics/SVG/1.1/DTD/svg11.dtd">
<svg xmlns:xlink="http://www.w3.org/1999/xlink" width="526.79952pt" height="353.99952pt" viewBox="0 0 526.79952 353.99952" xmlns="http://www.w3.org/2000/svg" version="1.1">
 <metadata>
  <rdf:RDF xmlns:dc="http://purl.org/dc/elements/1.1/" xmlns:cc="http://creativecommons.org/ns#" xmlns:rdf="http://www.w3.org/1999/02/22-rdf-syntax-ns#">
   <cc:Work>
    <dc:type rdf:resource="http://purl.org/dc/dcmitype/StillImage"/>
    <dc:date>2024-08-19T12:56:29.716198</dc:date>
    <dc:format>image/svg+xml</dc:format>
    <dc:creator>
     <cc:Agent>
      <dc:title>Matplotlib v3.9.1, https://matplotlib.org/</dc:title>
     </cc:Agent>
    </dc:creator>
   </cc:Work>
  </rdf:RDF>
 </metadata>
 <defs>
  <style type="text/css">*{stroke-linejoin: round; stroke-linecap: butt}</style>
 </defs>
 <g id="figure_1">
  <g id="patch_1">
   <path d="M 0 353.99952 
L 526.79952 353.99952 
L 526.79952 0 
L 0 0 
z
" style="fill: #ffffff"/>
  </g>
  <g id="axes_1">
   <g id="patch_2">
    <path d="M 75.098188 296.523832 
L 519.59952 296.523832 
L 519.59952 7.2 
L 75.098188 7.2 
z
" style="fill: #ffffff"/>
   </g>
   <g id="matplotlib.axis_1">
    <g id="xtick_1">
     <g id="line2d_1">
      <path d="M 95.302794 296.523832 
L 95.302794 7.2 
" clip-path="url(#p811316553d)" style="fill: none; stroke: #eeeeee; stroke-width: 0.8; stroke-linecap: round"/>
     </g>
     <g id="line2d_2"/>
     <g id="text_1">
      <!-- 0 -->
      <g style="fill: #262626" transform="translate(90.849044 310.661645) scale(0.14 -0.14)">
       <defs>
        <path id="DejaVuSans-30" d="M 2034 4250 
Q 1547 4250 1301 3770 
Q 1056 3291 1056 2328 
Q 1056 1369 1301 889 
Q 1547 409 2034 409 
Q 2525 409 2770 889 
Q 3016 1369 3016 2328 
Q 3016 3291 2770 3770 
Q 2525 4250 2034 4250 
z
M 2034 4750 
Q 2819 4750 3233 4129 
Q 3647 3509 3647 2328 
Q 3647 1150 3233 529 
Q 2819 -91 2034 -91 
Q 1250 -91 836 529 
Q 422 1150 422 2328 
Q 422 3509 836 4129 
Q 1250 4750 2034 4750 
z
" transform="scale(0.015625)"/>
       </defs>
       <use xlink:href="#DejaVuSans-30"/>
      </g>
     </g>
    </g>
    <g id="xtick_2">
     <g id="line2d_3">
      <path d="M 146.068135 296.523832 
L 146.068135 7.2 
" clip-path="url(#p811316553d)" style="fill: none; stroke: #eeeeee; stroke-width: 0.8; stroke-linecap: round"/>
     </g>
     <g id="line2d_4"/>
     <g id="text_2">
      <!-- 25 -->
      <g style="fill: #262626" transform="translate(137.160635 310.661645) scale(0.14 -0.14)">
       <defs>
        <path id="DejaVuSans-32" d="M 1228 531 
L 3431 531 
L 3431 0 
L 469 0 
L 469 531 
Q 828 903 1448 1529 
Q 2069 2156 2228 2338 
Q 2531 2678 2651 2914 
Q 2772 3150 2772 3378 
Q 2772 3750 2511 3984 
Q 2250 4219 1831 4219 
Q 1534 4219 1204 4116 
Q 875 4013 500 3803 
L 500 4441 
Q 881 4594 1212 4672 
Q 1544 4750 1819 4750 
Q 2544 4750 2975 4387 
Q 3406 4025 3406 3419 
Q 3406 3131 3298 2873 
Q 3191 2616 2906 2266 
Q 2828 2175 2409 1742 
Q 1991 1309 1228 531 
z
" transform="scale(0.015625)"/>
        <path id="DejaVuSans-35" d="M 691 4666 
L 3169 4666 
L 3169 4134 
L 1269 4134 
L 1269 2991 
Q 1406 3038 1543 3061 
Q 1681 3084 1819 3084 
Q 2600 3084 3056 2656 
Q 3513 2228 3513 1497 
Q 3513 744 3044 326 
Q 2575 -91 1722 -91 
Q 1428 -91 1123 -41 
Q 819 9 494 109 
L 494 744 
Q 775 591 1075 516 
Q 1375 441 1709 441 
Q 2250 441 2565 725 
Q 2881 1009 2881 1497 
Q 2881 1984 2565 2268 
Q 2250 2553 1709 2553 
Q 1456 2553 1204 2497 
Q 953 2441 691 2322 
L 691 4666 
z
" transform="scale(0.015625)"/>
       </defs>
       <use xlink:href="#DejaVuSans-32"/>
       <use xlink:href="#DejaVuSans-35" x="63.623047"/>
      </g>
     </g>
    </g>
    <g id="xtick_3">
     <g id="line2d_5">
      <path d="M 196.833477 296.523832 
L 196.833477 7.2 
" clip-path="url(#p811316553d)" style="fill: none; stroke: #eeeeee; stroke-width: 0.8; stroke-linecap: round"/>
     </g>
     <g id="line2d_6"/>
     <g id="text_3">
      <!-- 50 -->
      <g style="fill: #262626" transform="translate(187.925977 310.661645) scale(0.14 -0.14)">
       <use xlink:href="#DejaVuSans-35"/>
       <use xlink:href="#DejaVuSans-30" x="63.623047"/>
      </g>
     </g>
    </g>
    <g id="xtick_4">
     <g id="line2d_7">
      <path d="M 247.598819 296.523832 
L 247.598819 7.2 
" clip-path="url(#p811316553d)" style="fill: none; stroke: #eeeeee; stroke-width: 0.8; stroke-linecap: round"/>
     </g>
     <g id="line2d_8"/>
     <g id="text_4">
      <!-- 75 -->
      <g style="fill: #262626" transform="translate(238.691319 310.661645) scale(0.14 -0.14)">
       <defs>
        <path id="DejaVuSans-37" d="M 525 4666 
L 3525 4666 
L 3525 4397 
L 1831 0 
L 1172 0 
L 2766 4134 
L 525 4134 
L 525 4666 
z
" transform="scale(0.015625)"/>
       </defs>
       <use xlink:href="#DejaVuSans-37"/>
       <use xlink:href="#DejaVuSans-35" x="63.623047"/>
      </g>
     </g>
    </g>
    <g id="xtick_5">
     <g id="line2d_9">
      <path d="M 298.364161 296.523832 
L 298.364161 7.2 
" clip-path="url(#p811316553d)" style="fill: none; stroke: #eeeeee; stroke-width: 0.8; stroke-linecap: round"/>
     </g>
     <g id="line2d_10"/>
     <g id="text_5">
      <!-- 100 -->
      <g style="fill: #262626" transform="translate(285.002911 310.661645) scale(0.14 -0.14)">
       <defs>
        <path id="DejaVuSans-31" d="M 794 531 
L 1825 531 
L 1825 4091 
L 703 3866 
L 703 4441 
L 1819 4666 
L 2450 4666 
L 2450 531 
L 3481 531 
L 3481 0 
L 794 0 
L 794 531 
z
" transform="scale(0.015625)"/>
       </defs>
       <use xlink:href="#DejaVuSans-31"/>
       <use xlink:href="#DejaVuSans-30" x="63.623047"/>
       <use xlink:href="#DejaVuSans-30" x="127.246094"/>
      </g>
     </g>
    </g>
    <g id="xtick_6">
     <g id="line2d_11">
      <path d="M 349.129502 296.523832 
L 349.129502 7.2 
" clip-path="url(#p811316553d)" style="fill: none; stroke: #eeeeee; stroke-width: 0.8; stroke-linecap: round"/>
     </g>
     <g id="line2d_12"/>
     <g id="text_6">
      <!-- 125 -->
      <g style="fill: #262626" transform="translate(335.768252 310.661645) scale(0.14 -0.14)">
       <use xlink:href="#DejaVuSans-31"/>
       <use xlink:href="#DejaVuSans-32" x="63.623047"/>
       <use xlink:href="#DejaVuSans-35" x="127.246094"/>
      </g>
     </g>
    </g>
    <g id="xtick_7">
     <g id="line2d_13">
      <path d="M 399.894844 296.523832 
L 399.894844 7.2 
" clip-path="url(#p811316553d)" style="fill: none; stroke: #eeeeee; stroke-width: 0.8; stroke-linecap: round"/>
     </g>
     <g id="line2d_14"/>
     <g id="text_7">
      <!-- 150 -->
      <g style="fill: #262626" transform="translate(386.533594 310.661645) scale(0.14 -0.14)">
       <use xlink:href="#DejaVuSans-31"/>
       <use xlink:href="#DejaVuSans-35" x="63.623047"/>
       <use xlink:href="#DejaVuSans-30" x="127.246094"/>
      </g>
     </g>
    </g>
    <g id="xtick_8">
     <g id="line2d_15">
      <path d="M 450.660186 296.523832 
L 450.660186 7.2 
" clip-path="url(#p811316553d)" style="fill: none; stroke: #eeeeee; stroke-width: 0.8; stroke-linecap: round"/>
     </g>
     <g id="line2d_16"/>
     <g id="text_8">
      <!-- 175 -->
      <g style="fill: #262626" transform="translate(437.298936 310.661645) scale(0.14 -0.14)">
       <use xlink:href="#DejaVuSans-31"/>
       <use xlink:href="#DejaVuSans-37" x="63.623047"/>
       <use xlink:href="#DejaVuSans-35" x="127.246094"/>
      </g>
     </g>
    </g>
    <g id="xtick_9">
     <g id="line2d_17">
      <path d="M 501.425528 296.523832 
L 501.425528 7.2 
" clip-path="url(#p811316553d)" style="fill: none; stroke: #eeeeee; stroke-width: 0.8; stroke-linecap: round"/>
     </g>
     <g id="line2d_18"/>
     <g id="text_9">
      <!-- 200 -->
      <g style="fill: #262626" transform="translate(488.064278 310.661645) scale(0.14 -0.14)">
       <use xlink:href="#DejaVuSans-32"/>
       <use xlink:href="#DejaVuSans-30" x="63.623047"/>
       <use xlink:href="#DejaVuSans-30" x="127.246094"/>
      </g>
     </g>
    </g>
    <g id="text_10">
     <!--  -->
     <g style="fill: #262626" transform="translate(297.348854 328.21102) scale(0.14 -0.14)"/>
     <!-- Discrete Steps in Time -->
     <g style="fill: #262626" transform="translate(218.672135 343.887957) scale(0.14 -0.14)">
      <defs>
       <path id="DejaVuSans-44" d="M 1259 4147 
L 1259 519 
L 2022 519 
Q 2988 519 3436 956 
Q 3884 1394 3884 2338 
Q 3884 3275 3436 3711 
Q 2988 4147 2022 4147 
L 1259 4147 
z
M 628 4666 
L 1925 4666 
Q 3281 4666 3915 4102 
Q 4550 3538 4550 2338 
Q 4550 1131 3912 565 
Q 3275 0 1925 0 
L 628 0 
L 628 4666 
z
" transform="scale(0.015625)"/>
       <path id="DejaVuSans-69" d="M 603 3500 
L 1178 3500 
L 1178 0 
L 603 0 
L 603 3500 
z
M 603 4863 
L 1178 4863 
L 1178 4134 
L 603 4134 
L 603 4863 
z
" transform="scale(0.015625)"/>
       <path id="DejaVuSans-73" d="M 2834 3397 
L 2834 2853 
Q 2591 2978 2328 3040 
Q 2066 3103 1784 3103 
Q 1356 3103 1142 2972 
Q 928 2841 928 2578 
Q 928 2378 1081 2264 
Q 1234 2150 1697 2047 
L 1894 2003 
Q 2506 1872 2764 1633 
Q 3022 1394 3022 966 
Q 3022 478 2636 193 
Q 2250 -91 1575 -91 
Q 1294 -91 989 -36 
Q 684 19 347 128 
L 347 722 
Q 666 556 975 473 
Q 1284 391 1588 391 
Q 1994 391 2212 530 
Q 2431 669 2431 922 
Q 2431 1156 2273 1281 
Q 2116 1406 1581 1522 
L 1381 1569 
Q 847 1681 609 1914 
Q 372 2147 372 2553 
Q 372 3047 722 3315 
Q 1072 3584 1716 3584 
Q 2034 3584 2315 3537 
Q 2597 3491 2834 3397 
z
" transform="scale(0.015625)"/>
       <path id="DejaVuSans-63" d="M 3122 3366 
L 3122 2828 
Q 2878 2963 2633 3030 
Q 2388 3097 2138 3097 
Q 1578 3097 1268 2742 
Q 959 2388 959 1747 
Q 959 1106 1268 751 
Q 1578 397 2138 397 
Q 2388 397 2633 464 
Q 2878 531 3122 666 
L 3122 134 
Q 2881 22 2623 -34 
Q 2366 -91 2075 -91 
Q 1284 -91 818 406 
Q 353 903 353 1747 
Q 353 2603 823 3093 
Q 1294 3584 2113 3584 
Q 2378 3584 2631 3529 
Q 2884 3475 3122 3366 
z
" transform="scale(0.015625)"/>
       <path id="DejaVuSans-72" d="M 2631 2963 
Q 2534 3019 2420 3045 
Q 2306 3072 2169 3072 
Q 1681 3072 1420 2755 
Q 1159 2438 1159 1844 
L 1159 0 
L 581 0 
L 581 3500 
L 1159 3500 
L 1159 2956 
Q 1341 3275 1631 3429 
Q 1922 3584 2338 3584 
Q 2397 3584 2469 3576 
Q 2541 3569 2628 3553 
L 2631 2963 
z
" transform="scale(0.015625)"/>
       <path id="DejaVuSans-65" d="M 3597 1894 
L 3597 1613 
L 953 1613 
Q 991 1019 1311 708 
Q 1631 397 2203 397 
Q 2534 397 2845 478 
Q 3156 559 3463 722 
L 3463 178 
Q 3153 47 2828 -22 
Q 2503 -91 2169 -91 
Q 1331 -91 842 396 
Q 353 884 353 1716 
Q 353 2575 817 3079 
Q 1281 3584 2069 3584 
Q 2775 3584 3186 3129 
Q 3597 2675 3597 1894 
z
M 3022 2063 
Q 3016 2534 2758 2815 
Q 2500 3097 2075 3097 
Q 1594 3097 1305 2825 
Q 1016 2553 972 2059 
L 3022 2063 
z
" transform="scale(0.015625)"/>
       <path id="DejaVuSans-74" d="M 1172 4494 
L 1172 3500 
L 2356 3500 
L 2356 3053 
L 1172 3053 
L 1172 1153 
Q 1172 725 1289 603 
Q 1406 481 1766 481 
L 2356 481 
L 2356 0 
L 1766 0 
Q 1100 0 847 248 
Q 594 497 594 1153 
L 594 3053 
L 172 3053 
L 172 3500 
L 594 3500 
L 594 4494 
L 1172 4494 
z
" transform="scale(0.015625)"/>
       <path id="DejaVuSans-20" transform="scale(0.015625)"/>
       <path id="DejaVuSans-53" d="M 3425 4513 
L 3425 3897 
Q 3066 4069 2747 4153 
Q 2428 4238 2131 4238 
Q 1616 4238 1336 4038 
Q 1056 3838 1056 3469 
Q 1056 3159 1242 3001 
Q 1428 2844 1947 2747 
L 2328 2669 
Q 3034 2534 3370 2195 
Q 3706 1856 3706 1288 
Q 3706 609 3251 259 
Q 2797 -91 1919 -91 
Q 1588 -91 1214 -16 
Q 841 59 441 206 
L 441 856 
Q 825 641 1194 531 
Q 1563 422 1919 422 
Q 2459 422 2753 634 
Q 3047 847 3047 1241 
Q 3047 1584 2836 1778 
Q 2625 1972 2144 2069 
L 1759 2144 
Q 1053 2284 737 2584 
Q 422 2884 422 3419 
Q 422 4038 858 4394 
Q 1294 4750 2059 4750 
Q 2388 4750 2728 4690 
Q 3069 4631 3425 4513 
z
" transform="scale(0.015625)"/>
       <path id="DejaVuSans-70" d="M 1159 525 
L 1159 -1331 
L 581 -1331 
L 581 3500 
L 1159 3500 
L 1159 2969 
Q 1341 3281 1617 3432 
Q 1894 3584 2278 3584 
Q 2916 3584 3314 3078 
Q 3713 2572 3713 1747 
Q 3713 922 3314 415 
Q 2916 -91 2278 -91 
Q 1894 -91 1617 61 
Q 1341 213 1159 525 
z
M 3116 1747 
Q 3116 2381 2855 2742 
Q 2594 3103 2138 3103 
Q 1681 3103 1420 2742 
Q 1159 2381 1159 1747 
Q 1159 1113 1420 752 
Q 1681 391 2138 391 
Q 2594 391 2855 752 
Q 3116 1113 3116 1747 
z
" transform="scale(0.015625)"/>
       <path id="DejaVuSans-6e" d="M 3513 2113 
L 3513 0 
L 2938 0 
L 2938 2094 
Q 2938 2591 2744 2837 
Q 2550 3084 2163 3084 
Q 1697 3084 1428 2787 
Q 1159 2491 1159 1978 
L 1159 0 
L 581 0 
L 581 3500 
L 1159 3500 
L 1159 2956 
Q 1366 3272 1645 3428 
Q 1925 3584 2291 3584 
Q 2894 3584 3203 3211 
Q 3513 2838 3513 2113 
z
" transform="scale(0.015625)"/>
       <path id="DejaVuSans-54" d="M -19 4666 
L 3928 4666 
L 3928 4134 
L 2272 4134 
L 2272 0 
L 1638 0 
L 1638 4134 
L -19 4134 
L -19 4666 
z
" transform="scale(0.015625)"/>
       <path id="DejaVuSans-6d" d="M 3328 2828 
Q 3544 3216 3844 3400 
Q 4144 3584 4550 3584 
Q 5097 3584 5394 3201 
Q 5691 2819 5691 2113 
L 5691 0 
L 5113 0 
L 5113 2094 
Q 5113 2597 4934 2840 
Q 4756 3084 4391 3084 
Q 3944 3084 3684 2787 
Q 3425 2491 3425 1978 
L 3425 0 
L 2847 0 
L 2847 2094 
Q 2847 2600 2669 2842 
Q 2491 3084 2119 3084 
Q 1678 3084 1418 2786 
Q 1159 2488 1159 1978 
L 1159 0 
L 581 0 
L 581 3500 
L 1159 3500 
L 1159 2956 
Q 1356 3278 1631 3431 
Q 1906 3584 2284 3584 
Q 2666 3584 2933 3390 
Q 3200 3197 3328 2828 
z
" transform="scale(0.015625)"/>
      </defs>
      <use xlink:href="#DejaVuSans-44"/>
      <use xlink:href="#DejaVuSans-69" x="77.001953"/>
      <use xlink:href="#DejaVuSans-73" x="104.785156"/>
      <use xlink:href="#DejaVuSans-63" x="156.884766"/>
      <use xlink:href="#DejaVuSans-72" x="211.865234"/>
      <use xlink:href="#DejaVuSans-65" x="250.728516"/>
      <use xlink:href="#DejaVuSans-74" x="312.251953"/>
      <use xlink:href="#DejaVuSans-65" x="351.460938"/>
      <use xlink:href="#DejaVuSans-20" x="412.984375"/>
      <use xlink:href="#DejaVuSans-53" x="444.771484"/>
      <use xlink:href="#DejaVuSans-74" x="508.248047"/>
      <use xlink:href="#DejaVuSans-65" x="547.457031"/>
      <use xlink:href="#DejaVuSans-70" x="608.980469"/>
      <use xlink:href="#DejaVuSans-73" x="672.457031"/>
      <use xlink:href="#DejaVuSans-20" x="724.556641"/>
      <use xlink:href="#DejaVuSans-69" x="756.34375"/>
      <use xlink:href="#DejaVuSans-6e" x="784.126953"/>
      <use xlink:href="#DejaVuSans-20" x="847.505859"/>
      <use xlink:href="#DejaVuSans-54" x="879.292969"/>
      <use xlink:href="#DejaVuSans-69" x="937.251953"/>
      <use xlink:href="#DejaVuSans-6d" x="965.035156"/>
      <use xlink:href="#DejaVuSans-65" x="1062.447266"/>
     </g>
    </g>
   </g>
   <g id="matplotlib.axis_2">
    <g id="ytick_1">
     <g id="line2d_19">
      <path d="M 75.098188 283.372749 
L 519.59952 283.372749 
" clip-path="url(#p811316553d)" style="fill: none; stroke: #eeeeee; stroke-width: 0.8; stroke-linecap: round"/>
     </g>
     <g id="line2d_20"/>
     <g id="text_11">
      <!-- 0.00 -->
      <g style="fill: #262626" transform="translate(40.426313 288.691655) scale(0.14 -0.14)">
       <defs>
        <path id="DejaVuSans-2e" d="M 684 794 
L 1344 794 
L 1344 0 
L 684 0 
L 684 794 
z
" transform="scale(0.015625)"/>
       </defs>
       <use xlink:href="#DejaVuSans-30"/>
       <use xlink:href="#DejaVuSans-2e" x="63.623047"/>
       <use xlink:href="#DejaVuSans-30" x="95.410156"/>
       <use xlink:href="#DejaVuSans-30" x="159.033203"/>
      </g>
     </g>
    </g>
    <g id="ytick_2">
     <g id="line2d_21">
      <path d="M 75.098188 230.768416 
L 519.59952 230.768416 
" clip-path="url(#p811316553d)" style="fill: none; stroke: #eeeeee; stroke-width: 0.8; stroke-linecap: round"/>
     </g>
     <g id="line2d_22"/>
     <g id="text_12">
      <!-- 0.05 -->
      <g style="fill: #262626" transform="translate(40.426313 236.087322) scale(0.14 -0.14)">
       <use xlink:href="#DejaVuSans-30"/>
       <use xlink:href="#DejaVuSans-2e" x="63.623047"/>
       <use xlink:href="#DejaVuSans-30" x="95.410156"/>
       <use xlink:href="#DejaVuSans-35" x="159.033203"/>
      </g>
     </g>
    </g>
    <g id="ytick_3">
     <g id="line2d_23">
      <path d="M 75.098188 178.164083 
L 519.59952 178.164083 
" clip-path="url(#p811316553d)" style="fill: none; stroke: #eeeeee; stroke-width: 0.8; stroke-linecap: round"/>
     </g>
     <g id="line2d_24"/>
     <g id="text_13">
      <!-- 0.10 -->
      <g style="fill: #262626" transform="translate(40.426313 183.482989) scale(0.14 -0.14)">
       <use xlink:href="#DejaVuSans-30"/>
       <use xlink:href="#DejaVuSans-2e" x="63.623047"/>
       <use xlink:href="#DejaVuSans-31" x="95.410156"/>
       <use xlink:href="#DejaVuSans-30" x="159.033203"/>
      </g>
     </g>
    </g>
    <g id="ytick_4">
     <g id="line2d_25">
      <path d="M 75.098188 125.55975 
L 519.59952 125.55975 
" clip-path="url(#p811316553d)" style="fill: none; stroke: #eeeeee; stroke-width: 0.8; stroke-linecap: round"/>
     </g>
     <g id="line2d_26"/>
     <g id="text_14">
      <!-- 0.15 -->
      <g style="fill: #262626" transform="translate(40.426313 130.878656) scale(0.14 -0.14)">
       <use xlink:href="#DejaVuSans-30"/>
       <use xlink:href="#DejaVuSans-2e" x="63.623047"/>
       <use xlink:href="#DejaVuSans-31" x="95.410156"/>
       <use xlink:href="#DejaVuSans-35" x="159.033203"/>
      </g>
     </g>
    </g>
    <g id="ytick_5">
     <g id="line2d_27">
      <path d="M 75.098188 72.955416 
L 519.59952 72.955416 
" clip-path="url(#p811316553d)" style="fill: none; stroke: #eeeeee; stroke-width: 0.8; stroke-linecap: round"/>
     </g>
     <g id="line2d_28"/>
     <g id="text_15">
      <!-- 0.20 -->
      <g style="fill: #262626" transform="translate(40.426313 78.274323) scale(0.14 -0.14)">
       <use xlink:href="#DejaVuSans-30"/>
       <use xlink:href="#DejaVuSans-2e" x="63.623047"/>
       <use xlink:href="#DejaVuSans-32" x="95.410156"/>
       <use xlink:href="#DejaVuSans-30" x="159.033203"/>
      </g>
     </g>
    </g>
    <g id="ytick_6">
     <g id="line2d_29">
      <path d="M 75.098188 20.351083 
L 519.59952 20.351083 
" clip-path="url(#p811316553d)" style="fill: none; stroke: #eeeeee; stroke-width: 0.8; stroke-linecap: round"/>
     </g>
     <g id="line2d_30"/>
     <g id="text_16">
      <!-- 0.25 -->
      <g style="fill: #262626" transform="translate(40.426313 25.66999) scale(0.14 -0.14)">
       <use xlink:href="#DejaVuSans-30"/>
       <use xlink:href="#DejaVuSans-2e" x="63.623047"/>
       <use xlink:href="#DejaVuSans-32" x="95.410156"/>
       <use xlink:href="#DejaVuSans-35" x="159.033203"/>
      </g>
     </g>
    </g>
    <g id="text_17">
     <!-- Proportion Infected -->
     <g style="fill: #262626" transform="translate(17.837812 218.81801) rotate(-90) scale(0.14 -0.14)">
      <defs>
       <path id="DejaVuSans-50" d="M 1259 4147 
L 1259 2394 
L 2053 2394 
Q 2494 2394 2734 2622 
Q 2975 2850 2975 3272 
Q 2975 3691 2734 3919 
Q 2494 4147 2053 4147 
L 1259 4147 
z
M 628 4666 
L 2053 4666 
Q 2838 4666 3239 4311 
Q 3641 3956 3641 3272 
Q 3641 2581 3239 2228 
Q 2838 1875 2053 1875 
L 1259 1875 
L 1259 0 
L 628 0 
L 628 4666 
z
" transform="scale(0.015625)"/>
       <path id="DejaVuSans-6f" d="M 1959 3097 
Q 1497 3097 1228 2736 
Q 959 2375 959 1747 
Q 959 1119 1226 758 
Q 1494 397 1959 397 
Q 2419 397 2687 759 
Q 2956 1122 2956 1747 
Q 2956 2369 2687 2733 
Q 2419 3097 1959 3097 
z
M 1959 3584 
Q 2709 3584 3137 3096 
Q 3566 2609 3566 1747 
Q 3566 888 3137 398 
Q 2709 -91 1959 -91 
Q 1206 -91 779 398 
Q 353 888 353 1747 
Q 353 2609 779 3096 
Q 1206 3584 1959 3584 
z
" transform="scale(0.015625)"/>
       <path id="DejaVuSans-49" d="M 628 4666 
L 1259 4666 
L 1259 0 
L 628 0 
L 628 4666 
z
" transform="scale(0.015625)"/>
       <path id="DejaVuSans-66" d="M 2375 4863 
L 2375 4384 
L 1825 4384 
Q 1516 4384 1395 4259 
Q 1275 4134 1275 3809 
L 1275 3500 
L 2222 3500 
L 2222 3053 
L 1275 3053 
L 1275 0 
L 697 0 
L 697 3053 
L 147 3053 
L 147 3500 
L 697 3500 
L 697 3744 
Q 697 4328 969 4595 
Q 1241 4863 1831 4863 
L 2375 4863 
z
" transform="scale(0.015625)"/>
       <path id="DejaVuSans-64" d="M 2906 2969 
L 2906 4863 
L 3481 4863 
L 3481 0 
L 2906 0 
L 2906 525 
Q 2725 213 2448 61 
Q 2172 -91 1784 -91 
Q 1150 -91 751 415 
Q 353 922 353 1747 
Q 353 2572 751 3078 
Q 1150 3584 1784 3584 
Q 2172 3584 2448 3432 
Q 2725 3281 2906 2969 
z
M 947 1747 
Q 947 1113 1208 752 
Q 1469 391 1925 391 
Q 2381 391 2643 752 
Q 2906 1113 2906 1747 
Q 2906 2381 2643 2742 
Q 2381 3103 1925 3103 
Q 1469 3103 1208 2742 
Q 947 2381 947 1747 
z
" transform="scale(0.015625)"/>
      </defs>
      <use xlink:href="#DejaVuSans-50"/>
      <use xlink:href="#DejaVuSans-72" x="58.552734"/>
      <use xlink:href="#DejaVuSans-6f" x="97.416016"/>
      <use xlink:href="#DejaVuSans-70" x="158.597656"/>
      <use xlink:href="#DejaVuSans-6f" x="222.074219"/>
      <use xlink:href="#DejaVuSans-72" x="283.255859"/>
      <use xlink:href="#DejaVuSans-74" x="324.369141"/>
      <use xlink:href="#DejaVuSans-69" x="363.578125"/>
      <use xlink:href="#DejaVuSans-6f" x="391.361328"/>
      <use xlink:href="#DejaVuSans-6e" x="452.542969"/>
      <use xlink:href="#DejaVuSans-20" x="515.921875"/>
      <use xlink:href="#DejaVuSans-49" x="547.708984"/>
      <use xlink:href="#DejaVuSans-6e" x="577.201172"/>
      <use xlink:href="#DejaVuSans-66" x="640.580078"/>
      <use xlink:href="#DejaVuSans-65" x="675.785156"/>
      <use xlink:href="#DejaVuSans-63" x="737.308594"/>
      <use xlink:href="#DejaVuSans-74" x="792.289062"/>
      <use xlink:href="#DejaVuSans-65" x="831.498047"/>
      <use xlink:href="#DejaVuSans-64" x="893.021484"/>
     </g>
     <!--  -->
     <g style="fill: #262626" transform="translate(33.51475 151.861916) rotate(-90) scale(0.14 -0.14)"/>
    </g>
   </g>
   <g id="line2d_31">
    <path d="M 95.302794 278.112316 
L 97.333407 267.591449 
L 99.364021 236.028849 
L 101.394635 199.205816 
L 103.425248 157.12235 
L 105.455862 151.861916 
L 107.486476 141.34105 
L 109.517089 120.299316 
L 111.547703 120.299316 
L 113.578317 99.257583 
L 115.60893 104.518016 
L 117.639544 115.038883 
L 119.670158 115.038883 
L 121.700771 120.299316 
L 123.731385 120.299316 
L 127.792612 130.820183 
L 129.823226 130.820183 
L 131.85384 120.299316 
L 133.884453 99.257583 
L 135.915067 88.736716 
L 137.945681 93.99715 
L 139.976294 72.955416 
L 142.006908 46.65325 
L 144.037522 30.87195 
L 146.068135 20.351083 
L 148.098749 30.87195 
L 150.129363 36.132383 
L 152.159976 51.913683 
L 160.282431 72.955416 
L 162.313045 88.736716 
L 164.343658 93.99715 
L 166.374272 109.77845 
L 170.435499 120.299316 
L 172.466113 120.299316 
L 174.496727 125.55975 
L 176.52734 93.99715 
L 178.557954 104.518016 
L 180.588568 109.77845 
L 184.649795 109.77845 
L 186.680409 120.299316 
L 188.711022 125.55975 
L 190.741636 125.55975 
L 192.77225 136.080616 
L 194.802863 136.080616 
L 196.833477 141.34105 
L 198.864091 157.12235 
L 204.955932 157.12235 
L 209.017159 167.643216 
L 213.078386 167.643216 
L 217.139614 188.684949 
L 219.170227 193.945383 
L 221.200841 204.466249 
L 223.231455 209.726683 
L 225.262068 220.247549 
L 227.292682 220.247549 
L 229.323296 230.768416 
L 233.384523 230.768416 
L 239.476364 246.549716 
L 243.537591 246.549716 
L 245.568205 251.810149 
L 267.904956 251.810149 
L 269.935569 257.070583 
L 284.149865 257.070583 
L 286.180479 262.331016 
L 288.211092 278.112316 
L 302.425388 278.112316 
L 304.456002 283.372749 
L 499.394914 283.372749 
L 499.394914 283.372749 
" clip-path="url(#p811316553d)" style="fill: none; stroke: #d11149; stroke-width: 1.5; stroke-linecap: round"/>
   </g>
   <g id="line2d_32">
    <path d="M 95.302794 278.112316 
L 97.333407 278.112316 
L 99.364021 262.331016 
L 103.425248 251.810149 
L 105.455862 241.289283 
L 107.486476 220.247549 
L 109.517089 209.726683 
L 111.547703 204.466249 
L 113.578317 172.90365 
L 115.60893 146.601483 
L 117.639544 146.601483 
L 119.670158 136.080616 
L 123.731385 146.601483 
L 125.761999 136.080616 
L 127.792612 136.080616 
L 129.823226 120.299316 
L 131.85384 130.820183 
L 135.915067 130.820183 
L 137.945681 141.34105 
L 139.976294 141.34105 
L 142.006908 151.861916 
L 144.037522 167.643216 
L 148.098749 178.164083 
L 150.129363 178.164083 
L 154.19059 199.205816 
L 156.221204 193.945383 
L 158.251817 183.424516 
L 160.282431 183.424516 
L 162.313045 172.90365 
L 166.374272 162.382783 
L 170.435499 109.77845 
L 172.466113 120.299316 
L 174.496727 125.55975 
L 176.52734 115.038883 
L 178.557954 109.77845 
L 180.588568 99.257583 
L 182.619181 99.257583 
L 184.649795 93.99715 
L 186.680409 109.77845 
L 192.77225 141.34105 
L 194.802863 146.601483 
L 196.833477 136.080616 
L 198.864091 151.861916 
L 202.925318 151.861916 
L 204.955932 162.382783 
L 206.986545 167.643216 
L 209.017159 167.643216 
L 211.047773 178.164083 
L 213.078386 178.164083 
L 215.109 204.466249 
L 217.139614 209.726683 
L 219.170227 209.726683 
L 221.200841 214.987116 
L 223.231455 214.987116 
L 227.292682 225.507983 
L 231.353909 225.507983 
L 237.44575 257.070583 
L 243.537591 257.070583 
L 247.598819 267.591449 
L 249.629432 267.591449 
L 251.660046 272.851883 
L 255.721274 272.851883 
L 257.751887 278.112316 
L 259.782501 278.112316 
L 261.813115 283.372749 
L 499.394914 283.372749 
L 499.394914 283.372749 
" clip-path="url(#p811316553d)" style="fill: none; stroke: #1a8fe3; stroke-width: 1.5; stroke-linecap: round"/>
   </g>
   <g id="patch_3">
    <path d="M 75.098188 296.523832 
L 75.098188 7.2 
" style="fill: none"/>
   </g>
   <g id="patch_4">
    <path d="M 519.59952 296.523832 
L 519.59952 7.2 
" style="fill: none"/>
   </g>
   <g id="patch_5">
    <path d="M 75.098188 296.523832 
L 519.59952 296.523832 
" style="fill: none"/>
   </g>
   <g id="patch_6">
    <path d="M 75.098188 7.2 
L 519.59952 7.2 
" style="fill: none"/>
   </g>
   <g id="legend_1">
    <g id="patch_7">
     <path d="M 337.99952 44.8 
L 512.59952 44.8 
Q 514.59952 44.8 514.59952 42.8 
L 514.59952 14.2 
Q 514.59952 12.2 512.59952 12.2 
L 337.99952 12.2 
Q 335.99952 12.2 335.99952 14.2 
L 335.99952 42.8 
Q 335.99952 44.8 337.99952 44.8 
z
" style="fill: #ffffff; opacity: 0.8; stroke: #cccccc; stroke-linejoin: miter"/>
    </g>
    <g id="line2d_33">
     <path d="M 339.99952 20.4 
L 349.99952 20.4 
L 359.99952 20.4 
" style="fill: none; stroke: #d11149; stroke-width: 1.5; stroke-linecap: round"/>
    </g>
    <g id="text_18">
     <!-- High transmissability, $\beta$=0.3 -->
     <g style="fill: #262626" transform="translate(367.99952 23.9) scale(0.1 -0.1)">
      <defs>
       <path id="DejaVuSans-48" d="M 628 4666 
L 1259 4666 
L 1259 2753 
L 3553 2753 
L 3553 4666 
L 4184 4666 
L 4184 0 
L 3553 0 
L 3553 2222 
L 1259 2222 
L 1259 0 
L 628 0 
L 628 4666 
z
" transform="scale(0.015625)"/>
       <path id="DejaVuSans-67" d="M 2906 1791 
Q 2906 2416 2648 2759 
Q 2391 3103 1925 3103 
Q 1463 3103 1205 2759 
Q 947 2416 947 1791 
Q 947 1169 1205 825 
Q 1463 481 1925 481 
Q 2391 481 2648 825 
Q 2906 1169 2906 1791 
z
M 3481 434 
Q 3481 -459 3084 -895 
Q 2688 -1331 1869 -1331 
Q 1566 -1331 1297 -1286 
Q 1028 -1241 775 -1147 
L 775 -588 
Q 1028 -725 1275 -790 
Q 1522 -856 1778 -856 
Q 2344 -856 2625 -561 
Q 2906 -266 2906 331 
L 2906 616 
Q 2728 306 2450 153 
Q 2172 0 1784 0 
Q 1141 0 747 490 
Q 353 981 353 1791 
Q 353 2603 747 3093 
Q 1141 3584 1784 3584 
Q 2172 3584 2450 3431 
Q 2728 3278 2906 2969 
L 2906 3500 
L 3481 3500 
L 3481 434 
z
" transform="scale(0.015625)"/>
       <path id="DejaVuSans-68" d="M 3513 2113 
L 3513 0 
L 2938 0 
L 2938 2094 
Q 2938 2591 2744 2837 
Q 2550 3084 2163 3084 
Q 1697 3084 1428 2787 
Q 1159 2491 1159 1978 
L 1159 0 
L 581 0 
L 581 4863 
L 1159 4863 
L 1159 2956 
Q 1366 3272 1645 3428 
Q 1925 3584 2291 3584 
Q 2894 3584 3203 3211 
Q 3513 2838 3513 2113 
z
" transform="scale(0.015625)"/>
       <path id="DejaVuSans-61" d="M 2194 1759 
Q 1497 1759 1228 1600 
Q 959 1441 959 1056 
Q 959 750 1161 570 
Q 1363 391 1709 391 
Q 2188 391 2477 730 
Q 2766 1069 2766 1631 
L 2766 1759 
L 2194 1759 
z
M 3341 1997 
L 3341 0 
L 2766 0 
L 2766 531 
Q 2569 213 2275 61 
Q 1981 -91 1556 -91 
Q 1019 -91 701 211 
Q 384 513 384 1019 
Q 384 1609 779 1909 
Q 1175 2209 1959 2209 
L 2766 2209 
L 2766 2266 
Q 2766 2663 2505 2880 
Q 2244 3097 1772 3097 
Q 1472 3097 1187 3025 
Q 903 2953 641 2809 
L 641 3341 
Q 956 3463 1253 3523 
Q 1550 3584 1831 3584 
Q 2591 3584 2966 3190 
Q 3341 2797 3341 1997 
z
" transform="scale(0.015625)"/>
       <path id="DejaVuSans-62" d="M 3116 1747 
Q 3116 2381 2855 2742 
Q 2594 3103 2138 3103 
Q 1681 3103 1420 2742 
Q 1159 2381 1159 1747 
Q 1159 1113 1420 752 
Q 1681 391 2138 391 
Q 2594 391 2855 752 
Q 3116 1113 3116 1747 
z
M 1159 2969 
Q 1341 3281 1617 3432 
Q 1894 3584 2278 3584 
Q 2916 3584 3314 3078 
Q 3713 2572 3713 1747 
Q 3713 922 3314 415 
Q 2916 -91 2278 -91 
Q 1894 -91 1617 61 
Q 1341 213 1159 525 
L 1159 0 
L 581 0 
L 581 4863 
L 1159 4863 
L 1159 2969 
z
" transform="scale(0.015625)"/>
       <path id="DejaVuSans-6c" d="M 603 4863 
L 1178 4863 
L 1178 0 
L 603 0 
L 603 4863 
z
" transform="scale(0.015625)"/>
       <path id="DejaVuSans-79" d="M 2059 -325 
Q 1816 -950 1584 -1140 
Q 1353 -1331 966 -1331 
L 506 -1331 
L 506 -850 
L 844 -850 
Q 1081 -850 1212 -737 
Q 1344 -625 1503 -206 
L 1606 56 
L 191 3500 
L 800 3500 
L 1894 763 
L 2988 3500 
L 3597 3500 
L 2059 -325 
z
" transform="scale(0.015625)"/>
       <path id="DejaVuSans-2c" d="M 750 794 
L 1409 794 
L 1409 256 
L 897 -744 
L 494 -744 
L 750 256 
L 750 794 
z
" transform="scale(0.015625)"/>
       <path id="DejaVuSans-Oblique-3b2" d="M 872 216 
L 572 -1331 
L -6 -1331 
L 928 3478 
Q 1206 4903 2538 4903 
Q 3888 4903 3659 3700 
Q 3503 2844 2894 2531 
Q 3713 2250 3553 1416 
Q 3272 -69 1759 -66 
Q 1097 -63 872 216 
z
M 1019 966 
Q 1259 422 1875 425 
Q 2775 425 2966 1406 
Q 3138 2288 1675 2219 
L 1778 2750 
Q 2909 2731 3106 3750 
Q 3241 4438 2509 4434 
Q 1691 4434 1503 3459 
L 1019 966 
z
" transform="scale(0.015625)"/>
       <path id="DejaVuSans-3d" d="M 678 2906 
L 4684 2906 
L 4684 2381 
L 678 2381 
L 678 2906 
z
M 678 1631 
L 4684 1631 
L 4684 1100 
L 678 1100 
L 678 1631 
z
" transform="scale(0.015625)"/>
       <path id="DejaVuSans-33" d="M 2597 2516 
Q 3050 2419 3304 2112 
Q 3559 1806 3559 1356 
Q 3559 666 3084 287 
Q 2609 -91 1734 -91 
Q 1441 -91 1130 -33 
Q 819 25 488 141 
L 488 750 
Q 750 597 1062 519 
Q 1375 441 1716 441 
Q 2309 441 2620 675 
Q 2931 909 2931 1356 
Q 2931 1769 2642 2001 
Q 2353 2234 1838 2234 
L 1294 2234 
L 1294 2753 
L 1863 2753 
Q 2328 2753 2575 2939 
Q 2822 3125 2822 3475 
Q 2822 3834 2567 4026 
Q 2313 4219 1838 4219 
Q 1578 4219 1281 4162 
Q 984 4106 628 3988 
L 628 4550 
Q 988 4650 1302 4700 
Q 1616 4750 1894 4750 
Q 2613 4750 3031 4423 
Q 3450 4097 3450 3541 
Q 3450 3153 3228 2886 
Q 3006 2619 2597 2516 
z
" transform="scale(0.015625)"/>
      </defs>
      <use xlink:href="#DejaVuSans-48" transform="translate(0 0.390625)"/>
      <use xlink:href="#DejaVuSans-69" transform="translate(75.195312 0.390625)"/>
      <use xlink:href="#DejaVuSans-67" transform="translate(102.978516 0.390625)"/>
      <use xlink:href="#DejaVuSans-68" transform="translate(166.455078 0.390625)"/>
      <use xlink:href="#DejaVuSans-20" transform="translate(229.833984 0.390625)"/>
      <use xlink:href="#DejaVuSans-74" transform="translate(261.621094 0.390625)"/>
      <use xlink:href="#DejaVuSans-72" transform="translate(300.830078 0.390625)"/>
      <use xlink:href="#DejaVuSans-61" transform="translate(341.943359 0.390625)"/>
      <use xlink:href="#DejaVuSans-6e" transform="translate(403.222656 0.390625)"/>
      <use xlink:href="#DejaVuSans-73" transform="translate(466.601562 0.390625)"/>
      <use xlink:href="#DejaVuSans-6d" transform="translate(518.701172 0.390625)"/>
      <use xlink:href="#DejaVuSans-69" transform="translate(616.113281 0.390625)"/>
      <use xlink:href="#DejaVuSans-73" transform="translate(643.896484 0.390625)"/>
      <use xlink:href="#DejaVuSans-73" transform="translate(695.996094 0.390625)"/>
      <use xlink:href="#DejaVuSans-61" transform="translate(748.095703 0.390625)"/>
      <use xlink:href="#DejaVuSans-62" transform="translate(809.375 0.390625)"/>
      <use xlink:href="#DejaVuSans-69" transform="translate(872.851562 0.390625)"/>
      <use xlink:href="#DejaVuSans-6c" transform="translate(900.634766 0.390625)"/>
      <use xlink:href="#DejaVuSans-69" transform="translate(928.417969 0.390625)"/>
      <use xlink:href="#DejaVuSans-74" transform="translate(956.201172 0.390625)"/>
      <use xlink:href="#DejaVuSans-79" transform="translate(995.410156 0.390625)"/>
      <use xlink:href="#DejaVuSans-2c" transform="translate(1054.589844 0.390625)"/>
      <use xlink:href="#DejaVuSans-20" transform="translate(1086.376953 0.390625)"/>
      <use xlink:href="#DejaVuSans-Oblique-3b2" transform="translate(1118.164062 0.390625)"/>
      <use xlink:href="#DejaVuSans-3d" transform="translate(1181.982422 0.390625)"/>
      <use xlink:href="#DejaVuSans-30" transform="translate(1265.771484 0.390625)"/>
      <use xlink:href="#DejaVuSans-2e" transform="translate(1329.394531 0.390625)"/>
      <use xlink:href="#DejaVuSans-33" transform="translate(1361.181641 0.390625)"/>
     </g>
    </g>
    <g id="line2d_34">
     <path d="M 339.99952 35.2 
L 349.99952 35.2 
L 359.99952 35.2 
" style="fill: none; stroke: #1a8fe3; stroke-width: 1.5; stroke-linecap: round"/>
    </g>
    <g id="text_19">
     <!-- Low transmissability $\beta$=0.15 -->
     <g style="fill: #262626" transform="translate(367.99952 38.7) scale(0.1 -0.1)">
      <defs>
       <path id="DejaVuSans-4c" d="M 628 4666 
L 1259 4666 
L 1259 531 
L 3531 531 
L 3531 0 
L 628 0 
L 628 4666 
z
" transform="scale(0.015625)"/>
       <path id="DejaVuSans-77" d="M 269 3500 
L 844 3500 
L 1563 769 
L 2278 3500 
L 2956 3500 
L 3675 769 
L 4391 3500 
L 4966 3500 
L 4050 0 
L 3372 0 
L 2619 2869 
L 1863 0 
L 1184 0 
L 269 3500 
z
" transform="scale(0.015625)"/>
      </defs>
      <use xlink:href="#DejaVuSans-4c" transform="translate(0 0.390625)"/>
      <use xlink:href="#DejaVuSans-6f" transform="translate(55.712891 0.390625)"/>
      <use xlink:href="#DejaVuSans-77" transform="translate(116.894531 0.390625)"/>
      <use xlink:href="#DejaVuSans-20" transform="translate(198.681641 0.390625)"/>
      <use xlink:href="#DejaVuSans-74" transform="translate(230.46875 0.390625)"/>
      <use xlink:href="#DejaVuSans-72" transform="translate(269.677734 0.390625)"/>
      <use xlink:href="#DejaVuSans-61" transform="translate(310.791016 0.390625)"/>
      <use xlink:href="#DejaVuSans-6e" transform="translate(372.070312 0.390625)"/>
      <use xlink:href="#DejaVuSans-73" transform="translate(435.449219 0.390625)"/>
      <use xlink:href="#DejaVuSans-6d" transform="translate(487.548828 0.390625)"/>
      <use xlink:href="#DejaVuSans-69" transform="translate(584.960938 0.390625)"/>
      <use xlink:href="#DejaVuSans-73" transform="translate(612.744141 0.390625)"/>
      <use xlink:href="#DejaVuSans-73" transform="translate(664.84375 0.390625)"/>
      <use xlink:href="#DejaVuSans-61" transform="translate(716.943359 0.390625)"/>
      <use xlink:href="#DejaVuSans-62" transform="translate(778.222656 0.390625)"/>
      <use xlink:href="#DejaVuSans-69" transform="translate(841.699219 0.390625)"/>
      <use xlink:href="#DejaVuSans-6c" transform="translate(869.482422 0.390625)"/>
      <use xlink:href="#DejaVuSans-69" transform="translate(897.265625 0.390625)"/>
      <use xlink:href="#DejaVuSans-74" transform="translate(925.048828 0.390625)"/>
      <use xlink:href="#DejaVuSans-79" transform="translate(964.257812 0.390625)"/>
      <use xlink:href="#DejaVuSans-20" transform="translate(1023.4375 0.390625)"/>
      <use xlink:href="#DejaVuSans-Oblique-3b2" transform="translate(1055.224609 0.390625)"/>
      <use xlink:href="#DejaVuSans-3d" transform="translate(1119.042969 0.390625)"/>
      <use xlink:href="#DejaVuSans-30" transform="translate(1202.832031 0.390625)"/>
      <use xlink:href="#DejaVuSans-2e" transform="translate(1266.455078 0.390625)"/>
      <use xlink:href="#DejaVuSans-31" transform="translate(1298.242188 0.390625)"/>
      <use xlink:href="#DejaVuSans-35" transform="translate(1361.865234 0.390625)"/>
     </g>
    </g>
   </g>
  </g>
 </g>
 <defs>
  <clipPath id="p811316553d">
   <rect x="75.098188" y="7.2" width="444.501332" height="289.323832"/>
  </clipPath>
 </defs>
</svg>
