<?xml version="1.0" encoding="utf-8" standalone="no"?>
<!DOCTYPE svg PUBLIC "-//W3C//DTD SVG 1.1//EN"
  "http://www.w3.org/Graphics/SVG/1.1/DTD/svg11.dtd">
<svg xmlns:xlink="http://www.w3.org/1999/xlink" width="526.79952pt" height="353.99952pt" viewBox="0 0 526.79952 353.99952" xmlns="http://www.w3.org/2000/svg" version="1.1">
 <metadata>
  <rdf:RDF xmlns:dc="http://purl.org/dc/elements/1.1/" xmlns:cc="http://creativecommons.org/ns#" xmlns:rdf="http://www.w3.org/1999/02/22-rdf-syntax-ns#">
   <cc:Work>
    <dc:type rdf:resource="http://purl.org/dc/dcmitype/StillImage"/>
    <dc:date>2024-08-17T13:46:21.929452</dc:date>
    <dc:format>image/svg+xml</dc:format>
    <dc:creator>
     <cc:Agent>
      <dc:title>Matplotlib v3.9.1, https://matplotlib.org/</dc:title>
     </cc:Agent>
    </dc:creator>
   </cc:Work>
  </rdf:RDF>
 </metadata>
 <defs>
  <style type="text/css">*{stroke-linejoin: round; stroke-linecap: butt}</style>
 </defs>
 <g id="figure_1">
  <g id="patch_1">
   <path d="M 0 353.99952
L 526.79952 353.99952
L 526.79952 0
L 0 0
z
" style="fill: #ffffff"/>
  </g>
  <g id="axes_1">
   <g id="patch_2">
    <path d="M 50.51375 312.20077
L 519.59952 312.20077
L 519.59952 7.2
L 50.51375 7.2
z
" style="fill: #ffffff"/>
   </g>
   <g id="matplotlib.axis_1">
    <g id="xtick_1">
     <g id="line2d_1">
      <path d="M 71.83583 312.20077
L 71.83583 7.2
" clip-path="url(#pfcdfceddd9)" style="fill: none; stroke: #eeeeee; stroke-width: 0.8; stroke-linecap: round"/>
     </g>
     <g id="line2d_2"/>
     <g id="text_1">
      <!-- 0 -->
      <g style="fill: #262626" transform="translate(67.38208 326.338582) scale(0.14 -0.14)">
       <defs>
        <path id="DejaVuSans-30" d="M 2034 4250
Q 1547 4250 1301 3770
Q 1056 3291 1056 2328
Q 1056 1369 1301 889
Q 1547 409 2034 409
Q 2525 409 2770 889
Q 3016 1369 3016 2328
Q 3016 3291 2770 3770
Q 2525 4250 2034 4250
z
M 2034 4750
Q 2819 4750 3233 4129
Q 3647 3509 3647 2328
Q 3647 1150 3233 529
Q 2819 -91 2034 -91
Q 1250 -91 836 529
Q 422 1150 422 2328
Q 422 3509 836 4129
Q 1250 4750 2034 4750
z
" transform="scale(0.015625)"/>
       </defs>
       <use xlink:href="#DejaVuSans-30"/>
      </g>
     </g>
    </g>
    <g id="xtick_2">
     <g id="line2d_3">
      <path d="M 125.408897 312.20077
L 125.408897 7.2
" clip-path="url(#pfcdfceddd9)" style="fill: none; stroke: #eeeeee; stroke-width: 0.8; stroke-linecap: round"/>
     </g>
     <g id="line2d_4"/>
     <g id="text_2">
      <!-- 25 -->
      <g style="fill: #262626" transform="translate(116.501397 326.338582) scale(0.14 -0.14)">
       <defs>
        <path id="DejaVuSans-32" d="M 1228 531
L 3431 531
L 3431 0
L 469 0
L 469 531
Q 828 903 1448 1529
Q 2069 2156 2228 2338
Q 2531 2678 2651 2914
Q 2772 3150 2772 3378
Q 2772 3750 2511 3984
Q 2250 4219 1831 4219
Q 1534 4219 1204 4116
Q 875 4013 500 3803
L 500 4441
Q 881 4594 1212 4672
Q 1544 4750 1819 4750
Q 2544 4750 2975 4387
Q 3406 4025 3406 3419
Q 3406 3131 3298 2873
Q 3191 2616 2906 2266
Q 2828 2175 2409 1742
Q 1991 1309 1228 531
z
" transform="scale(0.015625)"/>
        <path id="DejaVuSans-35" d="M 691 4666
L 3169 4666
L 3169 4134
L 1269 4134
L 1269 2991
Q 1406 3038 1543 3061
Q 1681 3084 1819 3084
Q 2600 3084 3056 2656
Q 3513 2228 3513 1497
Q 3513 744 3044 326
Q 2575 -91 1722 -91
Q 1428 -91 1123 -41
Q 819 9 494 109
L 494 744
Q 775 591 1075 516
Q 1375 441 1709 441
Q 2250 441 2565 725
Q 2881 1009 2881 1497
Q 2881 1984 2565 2268
Q 2250 2553 1709 2553
Q 1456 2553 1204 2497
Q 953 2441 691 2322
L 691 4666
z
" transform="scale(0.015625)"/>
       </defs>
       <use xlink:href="#DejaVuSans-32"/>
       <use xlink:href="#DejaVuSans-35" x="63.623047"/>
      </g>
     </g>
    </g>
    <g id="xtick_3">
     <g id="line2d_5">
      <path d="M 178.981963 312.20077
L 178.981963 7.2
" clip-path="url(#pfcdfceddd9)" style="fill: none; stroke: #eeeeee; stroke-width: 0.8; stroke-linecap: round"/>
     </g>
     <g id="line2d_6"/>
     <g id="text_3">
      <!-- 50 -->
      <g style="fill: #262626" transform="translate(170.074463 326.338582) scale(0.14 -0.14)">
       <use xlink:href="#DejaVuSans-35"/>
       <use xlink:href="#DejaVuSans-30" x="63.623047"/>
      </g>
     </g>
    </g>
    <g id="xtick_4">
     <g id="line2d_7">
      <path d="M 232.55503 312.20077
L 232.55503 7.2
" clip-path="url(#pfcdfceddd9)" style="fill: none; stroke: #eeeeee; stroke-width: 0.8; stroke-linecap: round"/>
     </g>
     <g id="line2d_8"/>
     <g id="text_4">
      <!-- 75 -->
      <g style="fill: #262626" transform="translate(223.64753 326.338582) scale(0.14 -0.14)">
       <defs>
        <path id="DejaVuSans-37" d="M 525 4666
L 3525 4666
L 3525 4397
L 1831 0
L 1172 0
L 2766 4134
L 525 4134
L 525 4666
z
" transform="scale(0.015625)"/>
       </defs>
       <use xlink:href="#DejaVuSans-37"/>
       <use xlink:href="#DejaVuSans-35" x="63.623047"/>
      </g>
     </g>
    </g>
    <g id="xtick_5">
     <g id="line2d_9">
      <path d="M 286.128096 312.20077
L 286.128096 7.2
" clip-path="url(#pfcdfceddd9)" style="fill: none; stroke: #eeeeee; stroke-width: 0.8; stroke-linecap: round"/>
     </g>
     <g id="line2d_10"/>
     <g id="text_5">
      <!-- 100 -->
      <g style="fill: #262626" transform="translate(272.766846 326.338582) scale(0.14 -0.14)">
       <defs>
        <path id="DejaVuSans-31" d="M 794 531
L 1825 531
L 1825 4091
L 703 3866
L 703 4441
L 1819 4666
L 2450 4666
L 2450 531
L 3481 531
L 3481 0
L 794 0
L 794 531
z
" transform="scale(0.015625)"/>
       </defs>
       <use xlink:href="#DejaVuSans-31"/>
       <use xlink:href="#DejaVuSans-30" x="63.623047"/>
       <use xlink:href="#DejaVuSans-30" x="127.246094"/>
      </g>
     </g>
    </g>
    <g id="xtick_6">
     <g id="line2d_11">
      <path d="M 339.701163 312.20077
L 339.701163 7.2
" clip-path="url(#pfcdfceddd9)" style="fill: none; stroke: #eeeeee; stroke-width: 0.8; stroke-linecap: round"/>
     </g>
     <g id="line2d_12"/>
     <g id="text_6">
      <!-- 125 -->
      <g style="fill: #262626" transform="translate(326.339913 326.338582) scale(0.14 -0.14)">
       <use xlink:href="#DejaVuSans-31"/>
       <use xlink:href="#DejaVuSans-32" x="63.623047"/>
       <use xlink:href="#DejaVuSans-35" x="127.246094"/>
      </g>
     </g>
    </g>
    <g id="xtick_7">
     <g id="line2d_13">
      <path d="M 393.274229 312.20077
L 393.274229 7.2
" clip-path="url(#pfcdfceddd9)" style="fill: none; stroke: #eeeeee; stroke-width: 0.8; stroke-linecap: round"/>
     </g>
     <g id="line2d_14"/>
     <g id="text_7">
      <!-- 150 -->
      <g style="fill: #262626" transform="translate(379.912979 326.338582) scale(0.14 -0.14)">
       <use xlink:href="#DejaVuSans-31"/>
       <use xlink:href="#DejaVuSans-35" x="63.623047"/>
       <use xlink:href="#DejaVuSans-30" x="127.246094"/>
      </g>
     </g>
    </g>
    <g id="xtick_8">
     <g id="line2d_15">
      <path d="M 446.847296 312.20077
L 446.847296 7.2
" clip-path="url(#pfcdfceddd9)" style="fill: none; stroke: #eeeeee; stroke-width: 0.8; stroke-linecap: round"/>
     </g>
     <g id="line2d_16"/>
     <g id="text_8">
      <!-- 175 -->
      <g style="fill: #262626" transform="translate(433.486046 326.338582) scale(0.14 -0.14)">
       <use xlink:href="#DejaVuSans-31"/>
       <use xlink:href="#DejaVuSans-37" x="63.623047"/>
       <use xlink:href="#DejaVuSans-35" x="127.246094"/>
      </g>
     </g>
    </g>
    <g id="xtick_9">
     <g id="line2d_17">
      <path d="M 500.420362 312.20077
L 500.420362 7.2
" clip-path="url(#pfcdfceddd9)" style="fill: none; stroke: #eeeeee; stroke-width: 0.8; stroke-linecap: round"/>
     </g>
     <g id="line2d_18"/>
     <g id="text_9">
      <!-- 200 -->
      <g style="fill: #262626" transform="translate(487.059112 326.338582) scale(0.14 -0.14)">
       <use xlink:href="#DejaVuSans-32"/>
       <use xlink:href="#DejaVuSans-30" x="63.623047"/>
       <use xlink:href="#DejaVuSans-30" x="127.246094"/>
      </g>
     </g>
    </g>
    <g id="text_10">
     <!-- Iteration / step in time -->
     <g style="fill: #262626" transform="translate(206.770385 343.887957) scale(0.14 -0.14)">
      <defs>
       <path id="DejaVuSans-49" d="M 628 4666
L 1259 4666
L 1259 0
L 628 0
L 628 4666
z
" transform="scale(0.015625)"/>
       <path id="DejaVuSans-74" d="M 1172 4494
L 1172 3500
L 2356 3500
L 2356 3053
L 1172 3053
L 1172 1153
Q 1172 725 1289 603
Q 1406 481 1766 481
L 2356 481
L 2356 0
L 1766 0
Q 1100 0 847 248
Q 594 497 594 1153
L 594 3053
L 172 3053
L 172 3500
L 594 3500
L 594 4494
L 1172 4494
z
" transform="scale(0.015625)"/>
       <path id="DejaVuSans-65" d="M 3597 1894
L 3597 1613
L 953 1613
Q 991 1019 1311 708
Q 1631 397 2203 397
Q 2534 397 2845 478
Q 3156 559 3463 722
L 3463 178
Q 3153 47 2828 -22
Q 2503 -91 2169 -91
Q 1331 -91 842 396
Q 353 884 353 1716
Q 353 2575 817 3079
Q 1281 3584 2069 3584
Q 2775 3584 3186 3129
Q 3597 2675 3597 1894
z
M 3022 2063
Q 3016 2534 2758 2815
Q 2500 3097 2075 3097
Q 1594 3097 1305 2825
Q 1016 2553 972 2059
L 3022 2063
z
" transform="scale(0.015625)"/>
       <path id="DejaVuSans-72" d="M 2631 2963
Q 2534 3019 2420 3045
Q 2306 3072 2169 3072
Q 1681 3072 1420 2755
Q 1159 2438 1159 1844
L 1159 0
L 581 0
L 581 3500
L 1159 3500
L 1159 2956
Q 1341 3275 1631 3429
Q 1922 3584 2338 3584
Q 2397 3584 2469 3576
Q 2541 3569 2628 3553
L 2631 2963
z
" transform="scale(0.015625)"/>
       <path id="DejaVuSans-61" d="M 2194 1759
Q 1497 1759 1228 1600
Q 959 1441 959 1056
Q 959 750 1161 570
Q 1363 391 1709 391
Q 2188 391 2477 730
Q 2766 1069 2766 1631
L 2766 1759
L 2194 1759
z
M 3341 1997
L 3341 0
L 2766 0
L 2766 531
Q 2569 213 2275 61
Q 1981 -91 1556 -91
Q 1019 -91 701 211
Q 384 513 384 1019
Q 384 1609 779 1909
Q 1175 2209 1959 2209
L 2766 2209
L 2766 2266
Q 2766 2663 2505 2880
Q 2244 3097 1772 3097
Q 1472 3097 1187 3025
Q 903 2953 641 2809
L 641 3341
Q 956 3463 1253 3523
Q 1550 3584 1831 3584
Q 2591 3584 2966 3190
Q 3341 2797 3341 1997
z
" transform="scale(0.015625)"/>
       <path id="DejaVuSans-69" d="M 603 3500
L 1178 3500
L 1178 0
L 603 0
L 603 3500
z
M 603 4863
L 1178 4863
L 1178 4134
L 603 4134
L 603 4863
z
" transform="scale(0.015625)"/>
       <path id="DejaVuSans-6f" d="M 1959 3097
Q 1497 3097 1228 2736
Q 959 2375 959 1747
Q 959 1119 1226 758
Q 1494 397 1959 397
Q 2419 397 2687 759
Q 2956 1122 2956 1747
Q 2956 2369 2687 2733
Q 2419 3097 1959 3097
z
M 1959 3584
Q 2709 3584 3137 3096
Q 3566 2609 3566 1747
Q 3566 888 3137 398
Q 2709 -91 1959 -91
Q 1206 -91 779 398
Q 353 888 353 1747
Q 353 2609 779 3096
Q 1206 3584 1959 3584
z
" transform="scale(0.015625)"/>
       <path id="DejaVuSans-6e" d="M 3513 2113
L 3513 0
L 2938 0
L 2938 2094
Q 2938 2591 2744 2837
Q 2550 3084 2163 3084
Q 1697 3084 1428 2787
Q 1159 2491 1159 1978
L 1159 0
L 581 0
L 581 3500
L 1159 3500
L 1159 2956
Q 1366 3272 1645 3428
Q 1925 3584 2291 3584
Q 2894 3584 3203 3211
Q 3513 2838 3513 2113
z
" transform="scale(0.015625)"/>
       <path id="DejaVuSans-20" transform="scale(0.015625)"/>
       <path id="DejaVuSans-2f" d="M 1625 4666
L 2156 4666
L 531 -594
L 0 -594
L 1625 4666
z
" transform="scale(0.015625)"/>
       <path id="DejaVuSans-73" d="M 2834 3397
L 2834 2853
Q 2591 2978 2328 3040
Q 2066 3103 1784 3103
Q 1356 3103 1142 2972
Q 928 2841 928 2578
Q 928 2378 1081 2264
Q 1234 2150 1697 2047
L 1894 2003
Q 2506 1872 2764 1633
Q 3022 1394 3022 966
Q 3022 478 2636 193
Q 2250 -91 1575 -91
Q 1294 -91 989 -36
Q 684 19 347 128
L 347 722
Q 666 556 975 473
Q 1284 391 1588 391
Q 1994 391 2212 530
Q 2431 669 2431 922
Q 2431 1156 2273 1281
Q 2116 1406 1581 1522
L 1381 1569
Q 847 1681 609 1914
Q 372 2147 372 2553
Q 372 3047 722 3315
Q 1072 3584 1716 3584
Q 2034 3584 2315 3537
Q 2597 3491 2834 3397
z
" transform="scale(0.015625)"/>
       <path id="DejaVuSans-70" d="M 1159 525
L 1159 -1331
L 581 -1331
L 581 3500
L 1159 3500
L 1159 2969
Q 1341 3281 1617 3432
Q 1894 3584 2278 3584
Q 2916 3584 3314 3078
Q 3713 2572 3713 1747
Q 3713 922 3314 415
Q 2916 -91 2278 -91
Q 1894 -91 1617 61
Q 1341 213 1159 525
z
M 3116 1747
Q 3116 2381 2855 2742
Q 2594 3103 2138 3103
Q 1681 3103 1420 2742
Q 1159 2381 1159 1747
Q 1159 1113 1420 752
Q 1681 391 2138 391
Q 2594 391 2855 752
Q 3116 1113 3116 1747
z
" transform="scale(0.015625)"/>
       <path id="DejaVuSans-6d" d="M 3328 2828
Q 3544 3216 3844 3400
Q 4144 3584 4550 3584
Q 5097 3584 5394 3201
Q 5691 2819 5691 2113
L 5691 0
L 5113 0
L 5113 2094
Q 5113 2597 4934 2840
Q 4756 3084 4391 3084
Q 3944 3084 3684 2787
Q 3425 2491 3425 1978
L 3425 0
L 2847 0
L 2847 2094
Q 2847 2600 2669 2842
Q 2491 3084 2119 3084
Q 1678 3084 1418 2786
Q 1159 2488 1159 1978
L 1159 0
L 581 0
L 581 3500
L 1159 3500
L 1159 2956
Q 1356 3278 1631 3431
Q 1906 3584 2284 3584
Q 2666 3584 2933 3390
Q 3200 3197 3328 2828
z
" transform="scale(0.015625)"/>
      </defs>
      <use xlink:href="#DejaVuSans-49"/>
      <use xlink:href="#DejaVuSans-74" x="29.492188"/>
      <use xlink:href="#DejaVuSans-65" x="68.701172"/>
      <use xlink:href="#DejaVuSans-72" x="130.224609"/>
      <use xlink:href="#DejaVuSans-61" x="171.337891"/>
      <use xlink:href="#DejaVuSans-74" x="232.617188"/>
      <use xlink:href="#DejaVuSans-69" x="271.826172"/>
      <use xlink:href="#DejaVuSans-6f" x="299.609375"/>
      <use xlink:href="#DejaVuSans-6e" x="360.791016"/>
      <use xlink:href="#DejaVuSans-20" x="424.169922"/>
      <use xlink:href="#DejaVuSans-2f" x="455.957031"/>
      <use xlink:href="#DejaVuSans-20" x="489.648438"/>
      <use xlink:href="#DejaVuSans-73" x="521.435547"/>
      <use xlink:href="#DejaVuSans-74" x="573.535156"/>
      <use xlink:href="#DejaVuSans-65" x="612.744141"/>
      <use xlink:href="#DejaVuSans-70" x="674.267578"/>
      <use xlink:href="#DejaVuSans-20" x="737.744141"/>
      <use xlink:href="#DejaVuSans-69" x="769.53125"/>
      <use xlink:href="#DejaVuSans-6e" x="797.314453"/>
      <use xlink:href="#DejaVuSans-20" x="860.693359"/>
      <use xlink:href="#DejaVuSans-74" x="892.480469"/>
      <use xlink:href="#DejaVuSans-69" x="931.689453"/>
      <use xlink:href="#DejaVuSans-6d" x="959.472656"/>
      <use xlink:href="#DejaVuSans-65" x="1056.884766"/>
     </g>
    </g>
   </g>
   <g id="matplotlib.axis_2">
    <g id="ytick_1">
     <g id="line2d_19">
      <path d="M 50.51375 298.337099
L 519.59952 298.337099
" clip-path="url(#pfcdfceddd9)" style="fill: none; stroke: #eeeeee; stroke-width: 0.8; stroke-linecap: round"/>
     </g>
     <g id="line2d_20"/>
     <g id="text_11">
      <!-- 0.0 -->
      <g style="fill: #262626" transform="translate(24.749375 303.656005) scale(0.14 -0.14)">
       <defs>
        <path id="DejaVuSans-2e" d="M 684 794
L 1344 794
L 1344 0
L 684 0
L 684 794
z
" transform="scale(0.015625)"/>
       </defs>
       <use xlink:href="#DejaVuSans-30"/>
       <use xlink:href="#DejaVuSans-2e" x="63.623047"/>
       <use xlink:href="#DejaVuSans-30" x="95.410156"/>
      </g>
     </g>
    </g>
    <g id="ytick_2">
     <g id="line2d_21">
      <path d="M 50.51375 236.720781
L 519.59952 236.720781
" clip-path="url(#pfcdfceddd9)" style="fill: none; stroke: #eeeeee; stroke-width: 0.8; stroke-linecap: round"/>
     </g>
     <g id="line2d_22"/>
     <g id="text_12">
      <!-- 0.2 -->
      <g style="fill: #262626" transform="translate(24.749375 242.039688) scale(0.14 -0.14)">
       <use xlink:href="#DejaVuSans-30"/>
       <use xlink:href="#DejaVuSans-2e" x="63.623047"/>
       <use xlink:href="#DejaVuSans-32" x="95.410156"/>
      </g>
     </g>
    </g>
    <g id="ytick_3">
     <g id="line2d_23">
      <path d="M 50.51375 175.104464
L 519.59952 175.104464
" clip-path="url(#pfcdfceddd9)" style="fill: none; stroke: #eeeeee; stroke-width: 0.8; stroke-linecap: round"/>
     </g>
     <g id="line2d_24"/>
     <g id="text_13">
      <!-- 0.4 -->
      <g style="fill: #262626" transform="translate(24.749375 180.423371) scale(0.14 -0.14)">
       <defs>
        <path id="DejaVuSans-34" d="M 2419 4116
L 825 1625
L 2419 1625
L 2419 4116
z
M 2253 4666
L 3047 4666
L 3047 1625
L 3713 1625
L 3713 1100
L 3047 1100
L 3047 0
L 2419 0
L 2419 1100
L 313 1100
L 313 1709
L 2253 4666
z
" transform="scale(0.015625)"/>
       </defs>
       <use xlink:href="#DejaVuSans-30"/>
       <use xlink:href="#DejaVuSans-2e" x="63.623047"/>
       <use xlink:href="#DejaVuSans-34" x="95.410156"/>
      </g>
     </g>
    </g>
    <g id="ytick_4">
     <g id="line2d_25">
      <path d="M 50.51375 113.488147
L 519.59952 113.488147
" clip-path="url(#pfcdfceddd9)" style="fill: none; stroke: #eeeeee; stroke-width: 0.8; stroke-linecap: round"/>
     </g>
     <g id="line2d_26"/>
     <g id="text_14">
      <!-- 0.6 -->
      <g style="fill: #262626" transform="translate(24.749375 118.807053) scale(0.14 -0.14)">
       <defs>
        <path id="DejaVuSans-36" d="M 2113 2584
Q 1688 2584 1439 2293
Q 1191 2003 1191 1497
Q 1191 994 1439 701
Q 1688 409 2113 409
Q 2538 409 2786 701
Q 3034 994 3034 1497
Q 3034 2003 2786 2293
Q 2538 2584 2113 2584
z
M 3366 4563
L 3366 3988
Q 3128 4100 2886 4159
Q 2644 4219 2406 4219
Q 1781 4219 1451 3797
Q 1122 3375 1075 2522
Q 1259 2794 1537 2939
Q 1816 3084 2150 3084
Q 2853 3084 3261 2657
Q 3669 2231 3669 1497
Q 3669 778 3244 343
Q 2819 -91 2113 -91
Q 1303 -91 875 529
Q 447 1150 447 2328
Q 447 3434 972 4092
Q 1497 4750 2381 4750
Q 2619 4750 2861 4703
Q 3103 4656 3366 4563
z
" transform="scale(0.015625)"/>
       </defs>
       <use xlink:href="#DejaVuSans-30"/>
       <use xlink:href="#DejaVuSans-2e" x="63.623047"/>
       <use xlink:href="#DejaVuSans-36" x="95.410156"/>
      </g>
     </g>
    </g>
    <g id="ytick_5">
     <g id="line2d_27">
      <path d="M 50.51375 51.87183
L 519.59952 51.87183
" clip-path="url(#pfcdfceddd9)" style="fill: none; stroke: #eeeeee; stroke-width: 0.8; stroke-linecap: round"/>
     </g>
     <g id="line2d_28"/>
     <g id="text_15">
      <!-- 0.8 -->
      <g style="fill: #262626" transform="translate(24.749375 57.190736) scale(0.14 -0.14)">
       <defs>
        <path id="DejaVuSans-38" d="M 2034 2216
Q 1584 2216 1326 1975
Q 1069 1734 1069 1313
Q 1069 891 1326 650
Q 1584 409 2034 409
Q 2484 409 2743 651
Q 3003 894 3003 1313
Q 3003 1734 2745 1975
Q 2488 2216 2034 2216
z
M 1403 2484
Q 997 2584 770 2862
Q 544 3141 544 3541
Q 544 4100 942 4425
Q 1341 4750 2034 4750
Q 2731 4750 3128 4425
Q 3525 4100 3525 3541
Q 3525 3141 3298 2862
Q 3072 2584 2669 2484
Q 3125 2378 3379 2068
Q 3634 1759 3634 1313
Q 3634 634 3220 271
Q 2806 -91 2034 -91
Q 1263 -91 848 271
Q 434 634 434 1313
Q 434 1759 690 2068
Q 947 2378 1403 2484
z
M 1172 3481
Q 1172 3119 1398 2916
Q 1625 2713 2034 2713
Q 2441 2713 2670 2916
Q 2900 3119 2900 3481
Q 2900 3844 2670 4047
Q 2441 4250 2034 4250
Q 1625 4250 1398 4047
Q 1172 3844 1172 3481
z
" transform="scale(0.015625)"/>
       </defs>
       <use xlink:href="#DejaVuSans-30"/>
       <use xlink:href="#DejaVuSans-2e" x="63.623047"/>
       <use xlink:href="#DejaVuSans-38" x="95.410156"/>
      </g>
     </g>
    </g>
    <g id="text_16">
     <!-- Proportion of nodes -->
     <g style="fill: #262626" transform="translate(17.837813 228.128666) rotate(-90) scale(0.14 -0.14)">
      <defs>
       <path id="DejaVuSans-50" d="M 1259 4147
L 1259 2394
L 2053 2394
Q 2494 2394 2734 2622
Q 2975 2850 2975 3272
Q 2975 3691 2734 3919
Q 2494 4147 2053 4147
L 1259 4147
z
M 628 4666
L 2053 4666
Q 2838 4666 3239 4311
Q 3641 3956 3641 3272
Q 3641 2581 3239 2228
Q 2838 1875 2053 1875
L 1259 1875
L 1259 0
L 628 0
L 628 4666
z
" transform="scale(0.015625)"/>
       <path id="DejaVuSans-66" d="M 2375 4863
L 2375 4384
L 1825 4384
Q 1516 4384 1395 4259
Q 1275 4134 1275 3809
L 1275 3500
L 2222 3500
L 2222 3053
L 1275 3053
L 1275 0
L 697 0
L 697 3053
L 147 3053
L 147 3500
L 697 3500
L 697 3744
Q 697 4328 969 4595
Q 1241 4863 1831 4863
L 2375 4863
z
" transform="scale(0.015625)"/>
       <path id="DejaVuSans-64" d="M 2906 2969
L 2906 4863
L 3481 4863
L 3481 0
L 2906 0
L 2906 525
Q 2725 213 2448 61
Q 2172 -91 1784 -91
Q 1150 -91 751 415
Q 353 922 353 1747
Q 353 2572 751 3078
Q 1150 3584 1784 3584
Q 2172 3584 2448 3432
Q 2725 3281 2906 2969
z
M 947 1747
Q 947 1113 1208 752
Q 1469 391 1925 391
Q 2381 391 2643 752
Q 2906 1113 2906 1747
Q 2906 2381 2643 2742
Q 2381 3103 1925 3103
Q 1469 3103 1208 2742
Q 947 2381 947 1747
z
" transform="scale(0.015625)"/>
      </defs>
      <use xlink:href="#DejaVuSans-50"/>
      <use xlink:href="#DejaVuSans-72" x="58.552734"/>
      <use xlink:href="#DejaVuSans-6f" x="97.416016"/>
      <use xlink:href="#DejaVuSans-70" x="158.597656"/>
      <use xlink:href="#DejaVuSans-6f" x="222.074219"/>
      <use xlink:href="#DejaVuSans-72" x="283.255859"/>
      <use xlink:href="#DejaVuSans-74" x="324.369141"/>
      <use xlink:href="#DejaVuSans-69" x="363.578125"/>
      <use xlink:href="#DejaVuSans-6f" x="391.361328"/>
      <use xlink:href="#DejaVuSans-6e" x="452.542969"/>
      <use xlink:href="#DejaVuSans-20" x="515.921875"/>
      <use xlink:href="#DejaVuSans-6f" x="547.708984"/>
      <use xlink:href="#DejaVuSans-66" x="608.890625"/>
      <use xlink:href="#DejaVuSans-20" x="644.095703"/>
      <use xlink:href="#DejaVuSans-6e" x="675.882812"/>
      <use xlink:href="#DejaVuSans-6f" x="739.261719"/>
      <use xlink:href="#DejaVuSans-64" x="800.443359"/>
      <use xlink:href="#DejaVuSans-65" x="863.919922"/>
      <use xlink:href="#DejaVuSans-73" x="925.443359"/>
     </g>
    </g>
   </g>
   <g id="PolyCollection_1"/>
   <g id="PolyCollection_2"/>
   <g id="PolyCollection_3"/>
   <g id="line2d_29">
    <path d="M 71.83583 21.063671
L 73.978753 26.198364
L 76.121676 29.27918
L 78.264598 34.413873
L 80.407521 40.575505
L 84.693366 61.114278
L 86.836289 64.195093
L 88.979212 76.518357
L 91.122134 81.65305
L 93.265057 95.003252
L 95.40798 101.164884
L 97.550902 110.407331
L 99.693825 118.62284
L 101.836748 121.703656
L 103.97967 130.946104
L 108.265516 139.161613
L 110.408438 140.188551
L 112.551361 147.377122
L 114.694284 150.457937
L 116.837206 156.619569
L 121.123052 175.104464
L 123.265974 180.239157
L 129.694742 207.9665
L 131.837665 211.047316
L 133.980588 216.182009
L 136.12351 218.235886
L 138.266433 227.478334
L 140.409356 232.613027
L 142.552278 235.693843
L 144.695201 237.74772
L 146.838124 242.882413
L 148.981046 246.990168
L 153.266891 251.097922
L 155.409814 257.259554
L 157.552737 260.34037
L 159.695659 265.475063
L 161.838582 266.502001
L 163.981505 268.555879
L 166.124427 271.636695
L 168.26735 275.744449
L 170.410273 276.771388
L 172.553195 276.771388
L 174.696118 278.825265
L 176.839041 281.906081
L 178.981963 286.013835
L 181.124886 288.067712
L 185.410731 288.067712
L 187.553654 289.094651
L 189.696577 289.094651
L 191.839499 290.12159
L 193.982422 293.202406
L 196.125345 294.229344
L 202.554113 294.229344
L 204.697035 295.256283
L 221.840417 295.256283
L 223.983339 296.283221
L 266.841792 296.283221
L 268.984715 297.31016
L 498.27744 297.31016
L 498.27744 297.31016
" clip-path="url(#pfcdfceddd9)" style="fill: none; stroke: #d11149; stroke-width: 1.5; stroke-linecap: round"/>
   </g>
   <g id="line2d_30">
    <path d="M 71.83583 267.52894
L 73.978753 263.421186
L 76.121676 260.34037
L 78.264598 256.232615
L 80.407521 250.070984
L 84.693366 231.586088
L 86.836289 229.532211
L 88.979212 217.208948
L 91.122134 213.101193
L 93.265057 200.77793
L 95.40798 199.750991
L 99.693825 185.37385
L 101.836748 182.293035
L 103.97967 176.131403
L 106.122593 176.131403
L 108.265516 173.050587
L 110.408438 174.077526
L 112.551361 167.915894
L 114.694284 165.862017
L 116.837206 162.781201
L 118.980129 155.592631
L 121.123052 146.350183
L 123.265974 143.269367
L 125.408897 134.02692
L 129.694742 117.595902
L 133.980588 111.43427
L 136.12351 109.380393
L 138.266433 101.164884
L 140.409356 97.057129
L 142.552278 95.003252
L 144.695201 95.003252
L 146.838124 89.868559
L 148.981046 88.84162
L 151.123969 86.787743
L 153.266891 85.760804
L 159.695659 79.599173
L 161.838582 81.65305
L 163.981505 79.599173
L 166.124427 76.518357
L 168.26735 74.46448
L 170.410273 74.46448
L 174.696118 80.626111
L 178.981963 78.572234
L 181.124886 80.626111
L 183.267809 83.706927
L 185.410731 85.760804
L 187.553654 84.733866
L 189.696577 89.868559
L 191.839499 90.895497
L 193.982422 90.895497
L 198.268267 95.003252
L 200.41119 98.084068
L 202.554113 99.111006
L 204.697035 98.084068
L 206.839958 101.164884
L 211.125803 101.164884
L 213.268726 104.2457
L 215.411649 104.2457
L 217.554571 105.272638
L 221.840417 109.380393
L 223.983339 109.380393
L 232.55503 113.488147
L 234.697953 117.595902
L 236.840875 117.595902
L 238.983798 120.676717
L 241.12672 120.676717
L 243.269643 122.730595
L 245.412566 122.730595
L 249.698411 124.784472
L 253.984256 124.784472
L 258.270102 126.838349
L 260.413024 129.919165
L 262.555947 129.919165
L 264.69887 134.02692
L 271.127638 137.107735
L 273.27056 141.21549
L 275.413483 141.21549
L 277.556406 143.269367
L 279.699328 144.296306
L 281.842251 146.350183
L 283.985174 150.457937
L 286.128096 151.484876
L 288.271019 153.538753
L 292.556864 155.592631
L 294.699787 157.646508
L 296.84271 157.646508
L 298.985632 160.727324
L 301.128555 161.754262
L 305.4144 165.862017
L 307.557323 168.942833
L 309.700246 169.969771
L 311.843168 173.050587
L 313.986091 174.077526
L 316.129014 174.077526
L 320.414859 178.18528
L 322.557782 178.18528
L 324.700704 180.239157
L 326.843627 181.266096
L 328.98655 183.319973
L 331.129472 184.346912
L 335.415317 188.454666
L 341.844085 191.535482
L 343.987008 193.589359
L 346.129931 194.616298
L 350.415776 200.77793
L 352.558699 201.804868
L 354.701621 204.885684
L 356.844544 204.885684
L 358.987467 205.912623
L 361.130389 208.993439
L 363.273312 211.047316
L 365.416235 212.074255
L 367.559157 215.15507
L 369.70208 216.182009
L 371.845003 219.262825
L 373.987925 221.316702
L 376.130848 222.343641
L 378.273771 225.424457
L 380.416693 226.451395
L 382.559616 228.505273
L 388.988384 228.505273
L 391.131307 229.532211
L 393.274229 233.639966
L 395.417152 233.639966
L 397.560075 234.666904
L 403.988843 234.666904
L 406.131765 235.693843
L 408.274688 235.693843
L 410.417611 236.720781
L 412.560533 239.801597
L 414.703456 241.855475
L 416.846379 242.882413
L 421.132224 242.882413
L 423.275146 243.909352
L 427.560992 243.909352
L 431.846837 245.963229
L 433.98976 245.963229
L 436.132682 246.990168
L 446.847296 246.990168
L 451.133141 249.044045
L 457.561909 249.044045
L 459.704832 251.097922
L 461.847754 251.097922
L 466.1336 253.151799
L 468.276522 253.151799
L 470.419445 254.178738
L 472.562368 254.178738
L 474.70529 255.205677
L 485.419904 255.205677
L 487.562826 256.232615
L 489.705749 256.232615
L 493.991594 258.286492
L 496.134517 258.286492
L 498.27744 259.313431
L 498.27744 259.313431
" clip-path="url(#pfcdfceddd9)" style="fill: none; stroke-dasharray: 6,2.25; stroke-dashoffset: 0; stroke: #1a8fe3; stroke-width: 1.5"/>
   </g>
   <g id="line2d_31">
    <path d="M 71.83583 298.337099
L 73.978753 297.31016
L 76.121676 297.31016
L 78.264598 296.283221
L 80.407521 296.283221
L 86.836289 293.202406
L 88.979212 293.202406
L 93.265057 291.148528
L 95.40798 286.013835
L 97.550902 283.959958
L 99.693825 282.933019
L 101.836748 282.933019
L 103.97967 279.852203
L 106.122593 275.744449
L 108.265516 274.71751
L 110.408438 272.663633
L 114.694284 270.609756
L 116.837206 267.52894
L 118.980129 265.475063
L 121.123052 265.475063
L 123.265974 263.421186
L 125.408897 263.421186
L 129.694742 261.367308
L 131.837665 261.367308
L 133.980588 259.313431
L 136.12351 259.313431
L 142.552278 256.232615
L 144.695201 254.178738
L 146.838124 254.178738
L 148.981046 251.097922
L 151.123969 251.097922
L 153.266891 250.070984
L 155.409814 245.963229
L 157.552737 244.93629
L 161.838582 238.774659
L 166.124427 238.774659
L 168.26735 236.720781
L 170.410273 235.693843
L 172.553195 232.613027
L 174.696118 227.478334
L 176.839041 225.424457
L 178.981963 222.343641
L 181.124886 218.235886
L 183.267809 215.15507
L 185.410731 213.101193
L 187.553654 213.101193
L 189.696577 207.9665
L 191.839499 205.912623
L 196.125345 199.750991
L 198.268267 197.697114
L 200.41119 194.616298
L 202.554113 193.589359
L 204.697035 193.589359
L 206.839958 190.508544
L 211.125803 190.508544
L 213.268726 187.427728
L 215.411649 187.427728
L 217.554571 186.400789
L 221.840417 182.293035
L 232.55503 177.158342
L 234.697953 173.050587
L 236.840875 173.050587
L 238.983798 169.969771
L 241.12672 169.969771
L 243.269643 167.915894
L 245.412566 167.915894
L 249.698411 165.862017
L 253.984256 165.862017
L 258.270102 163.808139
L 260.413024 160.727324
L 262.555947 160.727324
L 264.69887 156.619569
L 266.841792 155.592631
L 268.984715 153.538753
L 271.127638 152.511815
L 273.27056 148.40406
L 275.413483 148.40406
L 277.556406 146.350183
L 279.699328 145.323244
L 281.842251 143.269367
L 283.985174 139.161613
L 286.128096 138.134674
L 288.271019 136.080797
L 292.556864 134.02692
L 294.699787 131.973042
L 296.84271 131.973042
L 298.985632 128.892226
L 301.128555 127.865288
L 305.4144 123.757533
L 307.557323 120.676717
L 309.700246 119.649779
L 311.843168 116.568963
L 313.986091 115.542024
L 316.129014 115.542024
L 320.414859 111.43427
L 322.557782 111.43427
L 324.700704 109.380393
L 326.843627 108.353454
L 328.98655 106.299577
L 331.129472 105.272638
L 335.415317 101.164884
L 341.844085 98.084068
L 343.987008 96.030191
L 346.129931 95.003252
L 350.415776 88.84162
L 352.558699 87.814682
L 354.701621 84.733866
L 356.844544 84.733866
L 358.987467 83.706927
L 361.130389 80.626111
L 363.273312 78.572234
L 365.416235 77.545295
L 367.559157 74.46448
L 369.70208 73.437541
L 371.845003 70.356725
L 373.987925 68.302848
L 376.130848 67.275909
L 378.273771 64.195093
L 380.416693 63.168155
L 382.559616 61.114278
L 388.988384 61.114278
L 391.131307 60.087339
L 393.274229 55.979584
L 395.417152 55.979584
L 397.560075 54.952646
L 403.988843 54.952646
L 406.131765 53.925707
L 408.274688 53.925707
L 410.417611 52.898769
L 412.560533 49.817953
L 414.703456 47.764075
L 416.846379 46.737137
L 421.132224 46.737137
L 423.275146 45.710198
L 427.560992 45.710198
L 431.846837 43.656321
L 433.98976 43.656321
L 436.132682 42.629382
L 446.847296 42.629382
L 451.133141 40.575505
L 457.561909 40.575505
L 459.704832 38.521628
L 461.847754 38.521628
L 466.1336 36.467751
L 468.276522 36.467751
L 470.419445 35.440812
L 472.562368 35.440812
L 474.70529 34.413873
L 485.419904 34.413873
L 487.562826 33.386935
L 489.705749 33.386935
L 493.991594 31.333058
L 496.134517 31.333058
L 498.27744 30.306119
L 498.27744 30.306119
" clip-path="url(#pfcdfceddd9)" style="fill: none; stroke-dasharray: 1.5,1.5; stroke-dashoffset: 0; stroke: #1ccd6a; stroke-width: 1.5"/>
   </g>
   <g id="line2d_32"/>
   <g id="line2d_33"/>
   <g id="line2d_34"/>
   <g id="patch_3">
    <path d="M 50.51375 312.20077
L 50.51375 7.2
" style="fill: none"/>
   </g>
   <g id="patch_4">
    <path d="M 50.51375 312.20077
L 519.59952 312.20077
" style="fill: none"/>
   </g>
   <g id="legend_1">
    <g id="patch_5">
     <path d="M 403.351395 187.92101
L 511.19952 187.92101
Q 513.59952 187.92101 513.59952 185.52101
L 513.59952 133.87976
Q 513.59952 131.47976 511.19952 131.47976
L 403.351395 131.47976
Q 400.951395 131.47976 400.951395 133.87976
L 400.951395 185.52101
Q 400.951395 187.92101 403.351395 187.92101
z
" style="fill: #ffffff; opacity: 0.8; stroke: #cccccc; stroke-linejoin: miter"/>
    </g>
    <g id="line2d_35">
     <path d="M 405.751395 141.197885
L 417.751395 141.197885
L 429.751395 141.197885
" style="fill: none; stroke: #d11149; stroke-width: 1.5; stroke-linecap: round"/>
    </g>
    <g id="text_17">
     <!-- Susceptible -->
     <g style="fill: #262626" transform="translate(439.351395 145.397885) scale(0.12 -0.12)">
      <defs>
       <path id="DejaVuSans-53" d="M 3425 4513
L 3425 3897
Q 3066 4069 2747 4153
Q 2428 4238 2131 4238
Q 1616 4238 1336 4038
Q 1056 3838 1056 3469
Q 1056 3159 1242 3001
Q 1428 2844 1947 2747
L 2328 2669
Q 3034 2534 3370 2195
Q 3706 1856 3706 1288
Q 3706 609 3251 259
Q 2797 -91 1919 -91
Q 1588 -91 1214 -16
Q 841 59 441 206
L 441 856
Q 825 641 1194 531
Q 1563 422 1919 422
Q 2459 422 2753 634
Q 3047 847 3047 1241
Q 3047 1584 2836 1778
Q 2625 1972 2144 2069
L 1759 2144
Q 1053 2284 737 2584
Q 422 2884 422 3419
Q 422 4038 858 4394
Q 1294 4750 2059 4750
Q 2388 4750 2728 4690
Q 3069 4631 3425 4513
z
" transform="scale(0.015625)"/>
       <path id="DejaVuSans-75" d="M 544 1381
L 544 3500
L 1119 3500
L 1119 1403
Q 1119 906 1312 657
Q 1506 409 1894 409
Q 2359 409 2629 706
Q 2900 1003 2900 1516
L 2900 3500
L 3475 3500
L 3475 0
L 2900 0
L 2900 538
Q 2691 219 2414 64
Q 2138 -91 1772 -91
Q 1169 -91 856 284
Q 544 659 544 1381
z
M 1991 3584
L 1991 3584
z
" transform="scale(0.015625)"/>
       <path id="DejaVuSans-63" d="M 3122 3366
L 3122 2828
Q 2878 2963 2633 3030
Q 2388 3097 2138 3097
Q 1578 3097 1268 2742
Q 959 2388 959 1747
Q 959 1106 1268 751
Q 1578 397 2138 397
Q 2388 397 2633 464
Q 2878 531 3122 666
L 3122 134
Q 2881 22 2623 -34
Q 2366 -91 2075 -91
Q 1284 -91 818 406
Q 353 903 353 1747
Q 353 2603 823 3093
Q 1294 3584 2113 3584
Q 2378 3584 2631 3529
Q 2884 3475 3122 3366
z
" transform="scale(0.015625)"/>
       <path id="DejaVuSans-62" d="M 3116 1747
Q 3116 2381 2855 2742
Q 2594 3103 2138 3103
Q 1681 3103 1420 2742
Q 1159 2381 1159 1747
Q 1159 1113 1420 752
Q 1681 391 2138 391
Q 2594 391 2855 752
Q 3116 1113 3116 1747
z
M 1159 2969
Q 1341 3281 1617 3432
Q 1894 3584 2278 3584
Q 2916 3584 3314 3078
Q 3713 2572 3713 1747
Q 3713 922 3314 415
Q 2916 -91 2278 -91
Q 1894 -91 1617 61
Q 1341 213 1159 525
L 1159 0
L 581 0
L 581 4863
L 1159 4863
L 1159 2969
z
" transform="scale(0.015625)"/>
       <path id="DejaVuSans-6c" d="M 603 4863
L 1178 4863
L 1178 0
L 603 0
L 603 4863
z
" transform="scale(0.015625)"/>
      </defs>
      <use xlink:href="#DejaVuSans-53"/>
      <use xlink:href="#DejaVuSans-75" x="63.476562"/>
      <use xlink:href="#DejaVuSans-73" x="126.855469"/>
      <use xlink:href="#DejaVuSans-63" x="178.955078"/>
      <use xlink:href="#DejaVuSans-65" x="233.935547"/>
      <use xlink:href="#DejaVuSans-70" x="295.458984"/>
      <use xlink:href="#DejaVuSans-74" x="358.935547"/>
      <use xlink:href="#DejaVuSans-69" x="398.144531"/>
      <use xlink:href="#DejaVuSans-62" x="425.927734"/>
      <use xlink:href="#DejaVuSans-6c" x="489.404297"/>
      <use xlink:href="#DejaVuSans-65" x="517.1875"/>
     </g>
    </g>
    <g id="line2d_36">
     <path d="M 405.751395 158.811635
L 417.751395 158.811635
L 429.751395 158.811635
" style="fill: none; stroke-dasharray: 6,2.25; stroke-dashoffset: 0; stroke: #1a8fe3; stroke-width: 1.5"/>
    </g>
    <g id="text_18">
     <!-- Infected -->
     <g style="fill: #262626" transform="translate(439.351395 163.011635) scale(0.12 -0.12)">
      <use xlink:href="#DejaVuSans-49"/>
      <use xlink:href="#DejaVuSans-6e" x="29.492188"/>
      <use xlink:href="#DejaVuSans-66" x="92.871094"/>
      <use xlink:href="#DejaVuSans-65" x="128.076172"/>
      <use xlink:href="#DejaVuSans-63" x="189.599609"/>
      <use xlink:href="#DejaVuSans-74" x="244.580078"/>
      <use xlink:href="#DejaVuSans-65" x="283.789062"/>
      <use xlink:href="#DejaVuSans-64" x="345.3125"/>
     </g>
    </g>
    <g id="line2d_37">
     <path d="M 405.751395 176.425385
L 417.751395 176.425385
L 429.751395 176.425385
" style="fill: none; stroke-dasharray: 1.5,1.5; stroke-dashoffset: 0; stroke: #1ccd6a; stroke-width: 1.5"/>
    </g>
    <g id="text_19">
     <!-- Removed -->
     <g style="fill: #262626" transform="translate(439.351395 180.625385) scale(0.12 -0.12)">
      <defs>
       <path id="DejaVuSans-52" d="M 2841 2188
Q 3044 2119 3236 1894
Q 3428 1669 3622 1275
L 4263 0
L 3584 0
L 2988 1197
Q 2756 1666 2539 1819
Q 2322 1972 1947 1972
L 1259 1972
L 1259 0
L 628 0
L 628 4666
L 2053 4666
Q 2853 4666 3247 4331
Q 3641 3997 3641 3322
Q 3641 2881 3436 2590
Q 3231 2300 2841 2188
z
M 1259 4147
L 1259 2491
L 2053 2491
Q 2509 2491 2742 2702
Q 2975 2913 2975 3322
Q 2975 3731 2742 3939
Q 2509 4147 2053 4147
L 1259 4147
z
" transform="scale(0.015625)"/>
       <path id="DejaVuSans-76" d="M 191 3500
L 800 3500
L 1894 563
L 2988 3500
L 3597 3500
L 2284 0
L 1503 0
L 191 3500
z
" transform="scale(0.015625)"/>
      </defs>
      <use xlink:href="#DejaVuSans-52"/>
      <use xlink:href="#DejaVuSans-65" x="64.982422"/>
      <use xlink:href="#DejaVuSans-6d" x="126.505859"/>
      <use xlink:href="#DejaVuSans-6f" x="223.917969"/>
      <use xlink:href="#DejaVuSans-76" x="285.099609"/>
      <use xlink:href="#DejaVuSans-65" x="344.279297"/>
      <use xlink:href="#DejaVuSans-64" x="405.802734"/>
     </g>
    </g>
   </g>
  </g>
 </g>
 <defs>
  <clipPath id="pfcdfceddd9">
   <rect x="50.51375" y="7.2" width="469.08577" height="305.00077"/>
  </clipPath>
 </defs>
</svg>
