<?xml version="1.0" encoding="utf-8" standalone="no"?>
<!DOCTYPE svg PUBLIC "-//W3C//DTD SVG 1.1//EN"
  "http://www.w3.org/Graphics/SVG/1.1/DTD/svg11.dtd">
<svg xmlns:xlink="http://www.w3.org/1999/xlink" width="584.39952pt" height="584.39952pt" viewBox="0 0 584.39952 584.39952" xmlns="http://www.w3.org/2000/svg" version="1.1">
 <metadata>
  <rdf:RDF xmlns:dc="http://purl.org/dc/elements/1.1/" xmlns:cc="http://creativecommons.org/ns#" xmlns:rdf="http://www.w3.org/1999/02/22-rdf-syntax-ns#">
   <cc:Work>
    <dc:type rdf:resource="http://purl.org/dc/dcmitype/StillImage"/>
    <dc:date>2024-08-17T13:46:22.070007</dc:date>
    <dc:format>image/svg+xml</dc:format>
    <dc:creator>
     <cc:Agent>
      <dc:title>Matplotlib v3.9.1, https://matplotlib.org/</dc:title>
     </cc:Agent>
    </dc:creator>
   </cc:Work>
  </rdf:RDF>
 </metadata>
 <defs>
  <style type="text/css">*{stroke-linejoin: round; stroke-linecap: butt}</style>
 </defs>
 <g id="figure_1">
  <g id="patch_1">
   <path d="M 0 584.39952
L 584.39952 584.39952
L 584.39952 0
L 0 0
z
" style="fill: #ffffff"/>
  </g>
  <g id="axes_1">
   <g id="patch_2">
    <path d="M 71.152813 181.554926
L 577.19952 181.554926
L 577.19952 7.2
L 71.152813 7.2
z
" style="fill: #ffffff"/>
   </g>
   <g id="matplotlib.axis_1">
    <g id="xtick_1">
     <g id="line2d_1">
      <path d="M 94.154936 181.554926
L 94.154936 7.2
" clip-path="url(#p2804871da3)" style="fill: none; stroke: #eeeeee; stroke-width: 0.8; stroke-linecap: round"/>
     </g>
     <g id="line2d_2"/>
    </g>
    <g id="xtick_2">
     <g id="line2d_3">
      <path d="M 151.949215 181.554926
L 151.949215 7.2
" clip-path="url(#p2804871da3)" style="fill: none; stroke: #eeeeee; stroke-width: 0.8; stroke-linecap: round"/>
     </g>
     <g id="line2d_4"/>
    </g>
    <g id="xtick_3">
     <g id="line2d_5">
      <path d="M 209.743494 181.554926
L 209.743494 7.2
" clip-path="url(#p2804871da3)" style="fill: none; stroke: #eeeeee; stroke-width: 0.8; stroke-linecap: round"/>
     </g>
     <g id="line2d_6"/>
    </g>
    <g id="xtick_4">
     <g id="line2d_7">
      <path d="M 267.537773 181.554926
L 267.537773 7.2
" clip-path="url(#p2804871da3)" style="fill: none; stroke: #eeeeee; stroke-width: 0.8; stroke-linecap: round"/>
     </g>
     <g id="line2d_8"/>
    </g>
    <g id="xtick_5">
     <g id="line2d_9">
      <path d="M 325.332052 181.554926
L 325.332052 7.2
" clip-path="url(#p2804871da3)" style="fill: none; stroke: #eeeeee; stroke-width: 0.8; stroke-linecap: round"/>
     </g>
     <g id="line2d_10"/>
    </g>
    <g id="xtick_6">
     <g id="line2d_11">
      <path d="M 383.126331 181.554926
L 383.126331 7.2
" clip-path="url(#p2804871da3)" style="fill: none; stroke: #eeeeee; stroke-width: 0.8; stroke-linecap: round"/>
     </g>
     <g id="line2d_12"/>
    </g>
    <g id="xtick_7">
     <g id="line2d_13">
      <path d="M 440.92061 181.554926
L 440.92061 7.2
" clip-path="url(#p2804871da3)" style="fill: none; stroke: #eeeeee; stroke-width: 0.8; stroke-linecap: round"/>
     </g>
     <g id="line2d_14"/>
    </g>
    <g id="xtick_8">
     <g id="line2d_15">
      <path d="M 498.714889 181.554926
L 498.714889 7.2
" clip-path="url(#p2804871da3)" style="fill: none; stroke: #eeeeee; stroke-width: 0.8; stroke-linecap: round"/>
     </g>
     <g id="line2d_16"/>
    </g>
    <g id="xtick_9">
     <g id="line2d_17">
      <path d="M 556.509168 181.554926
L 556.509168 7.2
" clip-path="url(#p2804871da3)" style="fill: none; stroke: #eeeeee; stroke-width: 0.8; stroke-linecap: round"/>
     </g>
     <g id="line2d_18"/>
    </g>
   </g>
   <g id="matplotlib.axis_2">
    <g id="ytick_1">
     <g id="line2d_19">
      <path d="M 71.152813 167.533376
L 577.19952 167.533376
" clip-path="url(#p2804871da3)" style="fill: none; stroke: #eeeeee; stroke-width: 0.8; stroke-linecap: round"/>
     </g>
     <g id="line2d_20"/>
     <g id="text_1">
      <!-- −12.5 -->
      <g style="fill: #262626" transform="translate(24.749375 172.852282) scale(0.14 -0.14)">
       <defs>
        <path id="DejaVuSans-2212" d="M 678 2272
L 4684 2272
L 4684 1741
L 678 1741
L 678 2272
z
" transform="scale(0.015625)"/>
        <path id="DejaVuSans-31" d="M 794 531
L 1825 531
L 1825 4091
L 703 3866
L 703 4441
L 1819 4666
L 2450 4666
L 2450 531
L 3481 531
L 3481 0
L 794 0
L 794 531
z
" transform="scale(0.015625)"/>
        <path id="DejaVuSans-32" d="M 1228 531
L 3431 531
L 3431 0
L 469 0
L 469 531
Q 828 903 1448 1529
Q 2069 2156 2228 2338
Q 2531 2678 2651 2914
Q 2772 3150 2772 3378
Q 2772 3750 2511 3984
Q 2250 4219 1831 4219
Q 1534 4219 1204 4116
Q 875 4013 500 3803
L 500 4441
Q 881 4594 1212 4672
Q 1544 4750 1819 4750
Q 2544 4750 2975 4387
Q 3406 4025 3406 3419
Q 3406 3131 3298 2873
Q 3191 2616 2906 2266
Q 2828 2175 2409 1742
Q 1991 1309 1228 531
z
" transform="scale(0.015625)"/>
        <path id="DejaVuSans-2e" d="M 684 794
L 1344 794
L 1344 0
L 684 0
L 684 794
z
" transform="scale(0.015625)"/>
        <path id="DejaVuSans-35" d="M 691 4666
L 3169 4666
L 3169 4134
L 1269 4134
L 1269 2991
Q 1406 3038 1543 3061
Q 1681 3084 1819 3084
Q 2600 3084 3056 2656
Q 3513 2228 3513 1497
Q 3513 744 3044 326
Q 2575 -91 1722 -91
Q 1428 -91 1123 -41
Q 819 9 494 109
L 494 744
Q 775 591 1075 516
Q 1375 441 1709 441
Q 2250 441 2565 725
Q 2881 1009 2881 1497
Q 2881 1984 2565 2268
Q 2250 2553 1709 2553
Q 1456 2553 1204 2497
Q 953 2441 691 2322
L 691 4666
z
" transform="scale(0.015625)"/>
       </defs>
       <use xlink:href="#DejaVuSans-2212"/>
       <use xlink:href="#DejaVuSans-31" x="83.789062"/>
       <use xlink:href="#DejaVuSans-32" x="147.412109"/>
       <use xlink:href="#DejaVuSans-2e" x="211.035156"/>
       <use xlink:href="#DejaVuSans-35" x="242.822266"/>
      </g>
     </g>
    </g>
    <g id="ytick_2">
     <g id="line2d_21">
      <path d="M 71.152813 137.051745
L 577.19952 137.051745
" clip-path="url(#p2804871da3)" style="fill: none; stroke: #eeeeee; stroke-width: 0.8; stroke-linecap: round"/>
     </g>
     <g id="line2d_22"/>
     <g id="text_2">
      <!-- −10.0 -->
      <g style="fill: #262626" transform="translate(24.749375 142.370652) scale(0.14 -0.14)">
       <defs>
        <path id="DejaVuSans-30" d="M 2034 4250
Q 1547 4250 1301 3770
Q 1056 3291 1056 2328
Q 1056 1369 1301 889
Q 1547 409 2034 409
Q 2525 409 2770 889
Q 3016 1369 3016 2328
Q 3016 3291 2770 3770
Q 2525 4250 2034 4250
z
M 2034 4750
Q 2819 4750 3233 4129
Q 3647 3509 3647 2328
Q 3647 1150 3233 529
Q 2819 -91 2034 -91
Q 1250 -91 836 529
Q 422 1150 422 2328
Q 422 3509 836 4129
Q 1250 4750 2034 4750
z
" transform="scale(0.015625)"/>
       </defs>
       <use xlink:href="#DejaVuSans-2212"/>
       <use xlink:href="#DejaVuSans-31" x="83.789062"/>
       <use xlink:href="#DejaVuSans-30" x="147.412109"/>
       <use xlink:href="#DejaVuSans-2e" x="211.035156"/>
       <use xlink:href="#DejaVuSans-30" x="242.822266"/>
      </g>
     </g>
    </g>
    <g id="ytick_3">
     <g id="line2d_23">
      <path d="M 71.152813 106.570115
L 577.19952 106.570115
" clip-path="url(#p2804871da3)" style="fill: none; stroke: #eeeeee; stroke-width: 0.8; stroke-linecap: round"/>
     </g>
     <g id="line2d_24"/>
     <g id="text_3">
      <!-- −7.5 -->
      <g style="fill: #262626" transform="translate(33.656875 111.889021) scale(0.14 -0.14)">
       <defs>
        <path id="DejaVuSans-37" d="M 525 4666
L 3525 4666
L 3525 4397
L 1831 0
L 1172 0
L 2766 4134
L 525 4134
L 525 4666
z
" transform="scale(0.015625)"/>
       </defs>
       <use xlink:href="#DejaVuSans-2212"/>
       <use xlink:href="#DejaVuSans-37" x="83.789062"/>
       <use xlink:href="#DejaVuSans-2e" x="147.412109"/>
       <use xlink:href="#DejaVuSans-35" x="179.199219"/>
      </g>
     </g>
    </g>
    <g id="ytick_4">
     <g id="line2d_25">
      <path d="M 71.152813 76.088485
L 577.19952 76.088485
" clip-path="url(#p2804871da3)" style="fill: none; stroke: #eeeeee; stroke-width: 0.8; stroke-linecap: round"/>
     </g>
     <g id="line2d_26"/>
     <g id="text_4">
      <!-- −5.0 -->
      <g style="fill: #262626" transform="translate(33.656875 81.407391) scale(0.14 -0.14)">
       <use xlink:href="#DejaVuSans-2212"/>
       <use xlink:href="#DejaVuSans-35" x="83.789062"/>
       <use xlink:href="#DejaVuSans-2e" x="147.412109"/>
       <use xlink:href="#DejaVuSans-30" x="179.199219"/>
      </g>
     </g>
    </g>
    <g id="ytick_5">
     <g id="line2d_27">
      <path d="M 71.152813 45.606854
L 577.19952 45.606854
" clip-path="url(#p2804871da3)" style="fill: none; stroke: #eeeeee; stroke-width: 0.8; stroke-linecap: round"/>
     </g>
     <g id="line2d_28"/>
     <g id="text_5">
      <!-- −2.5 -->
      <g style="fill: #262626" transform="translate(33.656875 50.92576) scale(0.14 -0.14)">
       <use xlink:href="#DejaVuSans-2212"/>
       <use xlink:href="#DejaVuSans-32" x="83.789062"/>
       <use xlink:href="#DejaVuSans-2e" x="147.412109"/>
       <use xlink:href="#DejaVuSans-35" x="179.199219"/>
      </g>
     </g>
    </g>
    <g id="ytick_6">
     <g id="line2d_29">
      <path d="M 71.152813 15.125224
L 577.19952 15.125224
" clip-path="url(#p2804871da3)" style="fill: none; stroke: #eeeeee; stroke-width: 0.8; stroke-linecap: round"/>
     </g>
     <g id="line2d_30"/>
     <g id="text_6">
      <!-- 0.0 -->
      <g style="fill: #262626" transform="translate(45.388438 20.44413) scale(0.14 -0.14)">
       <use xlink:href="#DejaVuSans-30"/>
       <use xlink:href="#DejaVuSans-2e" x="63.623047"/>
       <use xlink:href="#DejaVuSans-30" x="95.410156"/>
      </g>
     </g>
    </g>
    <g id="text_7">
     <!-- Susceptible -->
     <g style="fill: #262626" transform="translate(17.837813 134.888869) rotate(-90) scale(0.14 -0.14)">
      <defs>
       <path id="DejaVuSans-53" d="M 3425 4513
L 3425 3897
Q 3066 4069 2747 4153
Q 2428 4238 2131 4238
Q 1616 4238 1336 4038
Q 1056 3838 1056 3469
Q 1056 3159 1242 3001
Q 1428 2844 1947 2747
L 2328 2669
Q 3034 2534 3370 2195
Q 3706 1856 3706 1288
Q 3706 609 3251 259
Q 2797 -91 1919 -91
Q 1588 -91 1214 -16
Q 841 59 441 206
L 441 856
Q 825 641 1194 531
Q 1563 422 1919 422
Q 2459 422 2753 634
Q 3047 847 3047 1241
Q 3047 1584 2836 1778
Q 2625 1972 2144 2069
L 1759 2144
Q 1053 2284 737 2584
Q 422 2884 422 3419
Q 422 4038 858 4394
Q 1294 4750 2059 4750
Q 2388 4750 2728 4690
Q 3069 4631 3425 4513
z
" transform="scale(0.015625)"/>
       <path id="DejaVuSans-75" d="M 544 1381
L 544 3500
L 1119 3500
L 1119 1403
Q 1119 906 1312 657
Q 1506 409 1894 409
Q 2359 409 2629 706
Q 2900 1003 2900 1516
L 2900 3500
L 3475 3500
L 3475 0
L 2900 0
L 2900 538
Q 2691 219 2414 64
Q 2138 -91 1772 -91
Q 1169 -91 856 284
Q 544 659 544 1381
z
M 1991 3584
L 1991 3584
z
" transform="scale(0.015625)"/>
       <path id="DejaVuSans-73" d="M 2834 3397
L 2834 2853
Q 2591 2978 2328 3040
Q 2066 3103 1784 3103
Q 1356 3103 1142 2972
Q 928 2841 928 2578
Q 928 2378 1081 2264
Q 1234 2150 1697 2047
L 1894 2003
Q 2506 1872 2764 1633
Q 3022 1394 3022 966
Q 3022 478 2636 193
Q 2250 -91 1575 -91
Q 1294 -91 989 -36
Q 684 19 347 128
L 347 722
Q 666 556 975 473
Q 1284 391 1588 391
Q 1994 391 2212 530
Q 2431 669 2431 922
Q 2431 1156 2273 1281
Q 2116 1406 1581 1522
L 1381 1569
Q 847 1681 609 1914
Q 372 2147 372 2553
Q 372 3047 722 3315
Q 1072 3584 1716 3584
Q 2034 3584 2315 3537
Q 2597 3491 2834 3397
z
" transform="scale(0.015625)"/>
       <path id="DejaVuSans-63" d="M 3122 3366
L 3122 2828
Q 2878 2963 2633 3030
Q 2388 3097 2138 3097
Q 1578 3097 1268 2742
Q 959 2388 959 1747
Q 959 1106 1268 751
Q 1578 397 2138 397
Q 2388 397 2633 464
Q 2878 531 3122 666
L 3122 134
Q 2881 22 2623 -34
Q 2366 -91 2075 -91
Q 1284 -91 818 406
Q 353 903 353 1747
Q 353 2603 823 3093
Q 1294 3584 2113 3584
Q 2378 3584 2631 3529
Q 2884 3475 3122 3366
z
" transform="scale(0.015625)"/>
       <path id="DejaVuSans-65" d="M 3597 1894
L 3597 1613
L 953 1613
Q 991 1019 1311 708
Q 1631 397 2203 397
Q 2534 397 2845 478
Q 3156 559 3463 722
L 3463 178
Q 3153 47 2828 -22
Q 2503 -91 2169 -91
Q 1331 -91 842 396
Q 353 884 353 1716
Q 353 2575 817 3079
Q 1281 3584 2069 3584
Q 2775 3584 3186 3129
Q 3597 2675 3597 1894
z
M 3022 2063
Q 3016 2534 2758 2815
Q 2500 3097 2075 3097
Q 1594 3097 1305 2825
Q 1016 2553 972 2059
L 3022 2063
z
" transform="scale(0.015625)"/>
       <path id="DejaVuSans-70" d="M 1159 525
L 1159 -1331
L 581 -1331
L 581 3500
L 1159 3500
L 1159 2969
Q 1341 3281 1617 3432
Q 1894 3584 2278 3584
Q 2916 3584 3314 3078
Q 3713 2572 3713 1747
Q 3713 922 3314 415
Q 2916 -91 2278 -91
Q 1894 -91 1617 61
Q 1341 213 1159 525
z
M 3116 1747
Q 3116 2381 2855 2742
Q 2594 3103 2138 3103
Q 1681 3103 1420 2742
Q 1159 2381 1159 1747
Q 1159 1113 1420 752
Q 1681 391 2138 391
Q 2594 391 2855 752
Q 3116 1113 3116 1747
z
" transform="scale(0.015625)"/>
       <path id="DejaVuSans-74" d="M 1172 4494
L 1172 3500
L 2356 3500
L 2356 3053
L 1172 3053
L 1172 1153
Q 1172 725 1289 603
Q 1406 481 1766 481
L 2356 481
L 2356 0
L 1766 0
Q 1100 0 847 248
Q 594 497 594 1153
L 594 3053
L 172 3053
L 172 3500
L 594 3500
L 594 4494
L 1172 4494
z
" transform="scale(0.015625)"/>
       <path id="DejaVuSans-69" d="M 603 3500
L 1178 3500
L 1178 0
L 603 0
L 603 3500
z
M 603 4863
L 1178 4863
L 1178 4134
L 603 4134
L 603 4863
z
" transform="scale(0.015625)"/>
       <path id="DejaVuSans-62" d="M 3116 1747
Q 3116 2381 2855 2742
Q 2594 3103 2138 3103
Q 1681 3103 1420 2742
Q 1159 2381 1159 1747
Q 1159 1113 1420 752
Q 1681 391 2138 391
Q 2594 391 2855 752
Q 3116 1113 3116 1747
z
M 1159 2969
Q 1341 3281 1617 3432
Q 1894 3584 2278 3584
Q 2916 3584 3314 3078
Q 3713 2572 3713 1747
Q 3713 922 3314 415
Q 2916 -91 2278 -91
Q 1894 -91 1617 61
Q 1341 213 1159 525
L 1159 0
L 581 0
L 581 4863
L 1159 4863
L 1159 2969
z
" transform="scale(0.015625)"/>
       <path id="DejaVuSans-6c" d="M 603 4863
L 1178 4863
L 1178 0
L 603 0
L 603 4863
z
" transform="scale(0.015625)"/>
      </defs>
      <use xlink:href="#DejaVuSans-53"/>
      <use xlink:href="#DejaVuSans-75" x="63.476562"/>
      <use xlink:href="#DejaVuSans-73" x="126.855469"/>
      <use xlink:href="#DejaVuSans-63" x="178.955078"/>
      <use xlink:href="#DejaVuSans-65" x="233.935547"/>
      <use xlink:href="#DejaVuSans-70" x="295.458984"/>
      <use xlink:href="#DejaVuSans-74" x="358.935547"/>
      <use xlink:href="#DejaVuSans-69" x="398.144531"/>
      <use xlink:href="#DejaVuSans-62" x="425.927734"/>
      <use xlink:href="#DejaVuSans-6c" x="489.404297"/>
      <use xlink:href="#DejaVuSans-65" x="517.1875"/>
     </g>
    </g>
   </g>
   <g id="PolyCollection_1"/>
   <g id="line2d_31">
    <path d="M 94.154936 15.125224
L 96.466707 76.088485
L 98.778478 51.70318
L 101.090249 76.088485
L 103.40202 88.281137
L 105.713791 137.051745
L 108.025563 137.051745
L 110.337334 51.70318
L 112.649105 161.43705
L 114.960876 76.088485
L 117.272647 173.629702
L 119.584418 88.281137
L 121.89619 124.859093
L 124.207961 112.666441
L 126.519732 51.70318
L 128.831503 124.859093
L 131.143274 63.895832
L 133.455045 63.895832
L 135.766816 27.317876
L 138.078588 100.473789
L 140.390359 51.70318
L 145.013901 124.859093
L 147.325672 124.859093
L 149.637443 76.088485
L 151.949215 124.859093
L 156.572757 124.859093
L 158.884528 51.70318
L 161.196299 76.088485
L 163.50807 39.510528
L 165.819842 124.859093
L 168.131613 76.088485
L 170.443384 51.70318
L 172.755155 39.510528
L 175.066926 76.088485
L 177.378697 63.895832
L 179.690469 39.510528
L 182.00224 39.510528
L 184.314011 88.281137
L 186.625782 51.70318
L 188.937553 76.088485
L 191.249324 27.317876
L 198.184638 63.895832
L 200.496409 27.317876
L 202.80818 15.125224
L 205.119951 39.510528
L 209.743494 63.895832
L 214.367036 15.125224
L 216.678807 15.125224
L 218.990578 27.317876
L 221.30235 15.125224
L 223.614121 27.317876
L 225.925892 51.70318
L 228.237663 27.317876
L 230.549434 15.125224
L 235.172976 15.125224
L 237.484748 27.317876
L 239.796519 15.125224
L 255.978917 15.125224
L 258.290688 27.317876
L 260.602459 15.125224
L 304.526111 15.125224
L 306.837883 27.317876
L 309.149654 15.125224
L 554.197397 15.125224
L 554.197397 15.125224
" clip-path="url(#p2804871da3)" style="fill: none; stroke: #808080; stroke-width: 1.5; stroke-linecap: round"/>
   </g>
   <g id="line2d_32">
    <path d="M 71.152813 15.125224
L 577.19952 15.125224
" clip-path="url(#p2804871da3)" style="fill: none; stroke: #dc143c; stroke-width: 1.5; stroke-linecap: round"/>
   </g>
   <g id="patch_3">
    <path d="M 71.152813 181.554926
L 71.152813 7.2
" style="fill: none"/>
   </g>
   <g id="patch_4">
    <path d="M 577.19952 181.554926
L 577.19952 7.2
" style="fill: none"/>
   </g>
   <g id="patch_5">
    <path d="M 71.152813 181.554926
L 577.19952 181.554926
" style="fill: none"/>
   </g>
   <g id="patch_6">
    <path d="M 71.152813 7.2
L 577.19952 7.2
" style="fill: none"/>
   </g>
  </g>
  <g id="axes_2">
   <g id="patch_7">
    <path d="M 71.152813 361.910331
L 577.19952 361.910331
L 577.19952 187.555406
L 71.152813 187.555406
z
" style="fill: #ffffff"/>
   </g>
   <g id="matplotlib.axis_3">
    <g id="xtick_10">
     <g id="line2d_33">
      <path d="M 94.154936 361.910331
L 94.154936 187.555406
" clip-path="url(#pb5792392cc)" style="fill: none; stroke: #eeeeee; stroke-width: 0.8; stroke-linecap: round"/>
     </g>
     <g id="line2d_34"/>
    </g>
    <g id="xtick_11">
     <g id="line2d_35">
      <path d="M 151.949215 361.910331
L 151.949215 187.555406
" clip-path="url(#pb5792392cc)" style="fill: none; stroke: #eeeeee; stroke-width: 0.8; stroke-linecap: round"/>
     </g>
     <g id="line2d_36"/>
    </g>
    <g id="xtick_12">
     <g id="line2d_37">
      <path d="M 209.743494 361.910331
L 209.743494 187.555406
" clip-path="url(#pb5792392cc)" style="fill: none; stroke: #eeeeee; stroke-width: 0.8; stroke-linecap: round"/>
     </g>
     <g id="line2d_38"/>
    </g>
    <g id="xtick_13">
     <g id="line2d_39">
      <path d="M 267.537773 361.910331
L 267.537773 187.555406
" clip-path="url(#pb5792392cc)" style="fill: none; stroke: #eeeeee; stroke-width: 0.8; stroke-linecap: round"/>
     </g>
     <g id="line2d_40"/>
    </g>
    <g id="xtick_14">
     <g id="line2d_41">
      <path d="M 325.332052 361.910331
L 325.332052 187.555406
" clip-path="url(#pb5792392cc)" style="fill: none; stroke: #eeeeee; stroke-width: 0.8; stroke-linecap: round"/>
     </g>
     <g id="line2d_42"/>
    </g>
    <g id="xtick_15">
     <g id="line2d_43">
      <path d="M 383.126331 361.910331
L 383.126331 187.555406
" clip-path="url(#pb5792392cc)" style="fill: none; stroke: #eeeeee; stroke-width: 0.8; stroke-linecap: round"/>
     </g>
     <g id="line2d_44"/>
    </g>
    <g id="xtick_16">
     <g id="line2d_45">
      <path d="M 440.92061 361.910331
L 440.92061 187.555406
" clip-path="url(#pb5792392cc)" style="fill: none; stroke: #eeeeee; stroke-width: 0.8; stroke-linecap: round"/>
     </g>
     <g id="line2d_46"/>
    </g>
    <g id="xtick_17">
     <g id="line2d_47">
      <path d="M 498.714889 361.910331
L 498.714889 187.555406
" clip-path="url(#pb5792392cc)" style="fill: none; stroke: #eeeeee; stroke-width: 0.8; stroke-linecap: round"/>
     </g>
     <g id="line2d_48"/>
    </g>
    <g id="xtick_18">
     <g id="line2d_49">
      <path d="M 556.509168 361.910331
L 556.509168 187.555406
" clip-path="url(#pb5792392cc)" style="fill: none; stroke: #eeeeee; stroke-width: 0.8; stroke-linecap: round"/>
     </g>
     <g id="line2d_50"/>
    </g>
   </g>
   <g id="matplotlib.axis_4">
    <g id="ytick_7">
     <g id="line2d_51">
      <path d="M 71.152813 353.985107
L 577.19952 353.985107
" clip-path="url(#pb5792392cc)" style="fill: none; stroke: #eeeeee; stroke-width: 0.8; stroke-linecap: round"/>
     </g>
     <g id="line2d_52"/>
     <g id="text_8">
      <!-- −5 -->
      <g style="fill: #262626" transform="translate(47.01375 359.304014) scale(0.14 -0.14)">
       <use xlink:href="#DejaVuSans-2212"/>
       <use xlink:href="#DejaVuSans-35" x="83.789062"/>
      </g>
     </g>
    </g>
    <g id="ytick_8">
     <g id="line2d_53">
      <path d="M 71.152813 307.366143
L 577.19952 307.366143
" clip-path="url(#pb5792392cc)" style="fill: none; stroke: #eeeeee; stroke-width: 0.8; stroke-linecap: round"/>
     </g>
     <g id="line2d_54"/>
     <g id="text_9">
      <!-- 0 -->
      <g style="fill: #262626" transform="translate(58.745313 312.68505) scale(0.14 -0.14)">
       <use xlink:href="#DejaVuSans-30"/>
      </g>
     </g>
    </g>
    <g id="ytick_9">
     <g id="line2d_55">
      <path d="M 71.152813 260.747179
L 577.19952 260.747179
" clip-path="url(#pb5792392cc)" style="fill: none; stroke: #eeeeee; stroke-width: 0.8; stroke-linecap: round"/>
     </g>
     <g id="line2d_56"/>
     <g id="text_10">
      <!-- 5 -->
      <g style="fill: #262626" transform="translate(58.745313 266.066085) scale(0.14 -0.14)">
       <use xlink:href="#DejaVuSans-35"/>
      </g>
     </g>
    </g>
    <g id="ytick_10">
     <g id="line2d_57">
      <path d="M 71.152813 214.128215
L 577.19952 214.128215
" clip-path="url(#pb5792392cc)" style="fill: none; stroke: #eeeeee; stroke-width: 0.8; stroke-linecap: round"/>
     </g>
     <g id="line2d_58"/>
     <g id="text_11">
      <!-- 10 -->
      <g style="fill: #262626" transform="translate(49.837813 219.447121) scale(0.14 -0.14)">
       <use xlink:href="#DejaVuSans-31"/>
       <use xlink:href="#DejaVuSans-30" x="63.623047"/>
      </g>
     </g>
    </g>
    <g id="text_12">
     <!-- Infected -->
     <g style="fill: #262626" transform="translate(40.102188 303.349743) rotate(-90) scale(0.14 -0.14)">
      <defs>
       <path id="DejaVuSans-49" d="M 628 4666
L 1259 4666
L 1259 0
L 628 0
L 628 4666
z
" transform="scale(0.015625)"/>
       <path id="DejaVuSans-6e" d="M 3513 2113
L 3513 0
L 2938 0
L 2938 2094
Q 2938 2591 2744 2837
Q 2550 3084 2163 3084
Q 1697 3084 1428 2787
Q 1159 2491 1159 1978
L 1159 0
L 581 0
L 581 3500
L 1159 3500
L 1159 2956
Q 1366 3272 1645 3428
Q 1925 3584 2291 3584
Q 2894 3584 3203 3211
Q 3513 2838 3513 2113
z
" transform="scale(0.015625)"/>
       <path id="DejaVuSans-66" d="M 2375 4863
L 2375 4384
L 1825 4384
Q 1516 4384 1395 4259
Q 1275 4134 1275 3809
L 1275 3500
L 2222 3500
L 2222 3053
L 1275 3053
L 1275 0
L 697 0
L 697 3053
L 147 3053
L 147 3500
L 697 3500
L 697 3744
Q 697 4328 969 4595
Q 1241 4863 1831 4863
L 2375 4863
z
" transform="scale(0.015625)"/>
       <path id="DejaVuSans-64" d="M 2906 2969
L 2906 4863
L 3481 4863
L 3481 0
L 2906 0
L 2906 525
Q 2725 213 2448 61
Q 2172 -91 1784 -91
Q 1150 -91 751 415
Q 353 922 353 1747
Q 353 2572 751 3078
Q 1150 3584 1784 3584
Q 2172 3584 2448 3432
Q 2725 3281 2906 2969
z
M 947 1747
Q 947 1113 1208 752
Q 1469 391 1925 391
Q 2381 391 2643 752
Q 2906 1113 2906 1747
Q 2906 2381 2643 2742
Q 2381 3103 1925 3103
Q 1469 3103 1208 2742
Q 947 2381 947 1747
z
" transform="scale(0.015625)"/>
      </defs>
      <use xlink:href="#DejaVuSans-49"/>
      <use xlink:href="#DejaVuSans-6e" x="29.492188"/>
      <use xlink:href="#DejaVuSans-66" x="92.871094"/>
      <use xlink:href="#DejaVuSans-65" x="128.076172"/>
      <use xlink:href="#DejaVuSans-63" x="189.599609"/>
      <use xlink:href="#DejaVuSans-74" x="244.580078"/>
      <use xlink:href="#DejaVuSans-65" x="283.789062"/>
      <use xlink:href="#DejaVuSans-64" x="345.3125"/>
     </g>
    </g>
   </g>
   <g id="PolyCollection_2"/>
   <g id="line2d_59">
    <path d="M 94.154936 307.366143
L 96.466707 270.070972
L 98.778478 279.394765
L 101.090249 270.070972
L 103.40202 251.423386
L 105.713791 223.452008
L 108.025563 223.452008
L 110.337334 288.718558
L 112.649105 195.48063
L 114.960876 270.070972
L 117.272647 195.48063
L 119.584418 298.04235
L 121.89619 242.099594
L 124.207961 242.099594
L 126.519732 279.394765
L 128.831503 251.423386
L 131.143274 307.366143
L 133.455045 279.394765
L 135.766816 316.689936
L 138.078588 251.423386
L 140.390359 288.718558
L 142.70213 279.394765
L 145.013901 242.099594
L 147.325672 223.452008
L 149.637443 279.394765
L 151.949215 223.452008
L 154.260986 232.775801
L 156.572757 232.775801
L 158.884528 279.394765
L 161.196299 279.394765
L 163.50807 288.718558
L 165.819842 232.775801
L 168.131613 270.070972
L 172.755155 307.366143
L 175.066926 260.747179
L 177.378697 298.04235
L 179.690469 288.718558
L 182.00224 298.04235
L 184.314011 288.718558
L 188.937553 288.718558
L 191.249324 326.013729
L 193.561096 288.718558
L 195.872867 279.394765
L 198.184638 288.718558
L 200.496409 307.366143
L 202.80818 335.337522
L 205.119951 335.337522
L 207.431723 298.04235
L 209.743494 298.04235
L 212.055265 326.013729
L 214.367036 335.337522
L 216.678807 326.013729
L 218.990578 298.04235
L 221.30235 353.985107
L 223.614121 316.689936
L 225.925892 307.366143
L 228.237663 326.013729
L 230.549434 326.013729
L 232.861205 335.337522
L 237.484748 298.04235
L 239.796519 335.337522
L 242.10829 307.366143
L 244.420061 307.366143
L 246.731832 335.337522
L 249.043603 307.366143
L 253.667146 326.013729
L 255.978917 326.013729
L 258.290688 307.366143
L 260.602459 316.689936
L 267.537773 316.689936
L 269.849544 344.661315
L 272.161315 307.366143
L 274.473086 335.337522
L 276.784857 307.366143
L 279.096629 326.013729
L 281.4084 307.366143
L 283.720171 316.689936
L 286.031942 316.689936
L 288.343713 307.366143
L 290.655484 307.366143
L 292.967256 316.689936
L 295.279027 316.689936
L 297.590798 335.337522
L 299.902569 307.366143
L 302.21434 344.661315
L 304.526111 316.689936
L 309.149654 316.689936
L 311.461425 344.661315
L 313.773196 307.366143
L 316.084967 326.013729
L 318.396738 316.689936
L 320.70851 326.013729
L 323.020281 344.661315
L 325.332052 316.689936
L 327.643823 326.013729
L 329.955594 316.689936
L 332.267365 316.689936
L 334.579136 326.013729
L 336.890908 307.366143
L 339.202679 335.337522
L 341.51445 316.689936
L 343.826221 326.013729
L 346.137992 326.013729
L 348.449763 335.337522
L 350.761535 316.689936
L 353.073306 335.337522
L 355.385077 316.689936
L 357.696848 307.366143
L 360.008619 326.013729
L 362.32039 326.013729
L 364.632162 307.366143
L 366.943933 326.013729
L 369.255704 316.689936
L 371.567475 326.013729
L 373.879246 316.689936
L 376.191017 326.013729
L 378.502789 326.013729
L 380.81456 316.689936
L 385.438102 316.689936
L 387.749873 326.013729
L 390.061644 316.689936
L 392.373416 335.337522
L 394.685187 335.337522
L 396.996958 316.689936
L 399.308729 335.337522
L 401.6205 307.366143
L 403.932271 316.689936
L 406.244043 335.337522
L 410.867585 316.689936
L 413.179356 335.337522
L 415.491127 316.689936
L 417.802898 335.337522
L 422.426441 316.689936
L 424.738212 335.337522
L 427.049983 316.689936
L 429.361754 326.013729
L 431.673525 307.366143
L 436.297068 307.366143
L 438.608839 316.689936
L 440.92061 344.661315
L 443.232381 307.366143
L 445.544152 316.689936
L 447.855923 307.366143
L 452.479466 307.366143
L 454.791237 316.689936
L 457.103008 307.366143
L 459.414779 316.689936
L 461.72655 335.337522
L 468.661864 307.366143
L 470.973635 307.366143
L 473.285406 316.689936
L 475.597177 307.366143
L 477.908949 307.366143
L 480.22072 316.689936
L 482.532491 316.689936
L 484.844262 307.366143
L 487.156033 316.689936
L 489.467804 307.366143
L 498.714889 307.366143
L 501.02666 316.689936
L 503.338431 316.689936
L 505.650203 307.366143
L 510.273745 307.366143
L 512.585516 326.013729
L 514.897287 307.366143
L 517.209058 316.689936
L 519.520829 316.689936
L 521.832601 307.366143
L 524.144372 316.689936
L 526.456143 307.366143
L 528.767914 316.689936
L 531.079685 307.366143
L 540.32677 307.366143
L 542.638541 316.689936
L 544.950312 307.366143
L 547.262083 316.689936
L 549.573855 316.689936
L 551.885626 307.366143
L 554.197397 316.689936
L 554.197397 316.689936
" clip-path="url(#pb5792392cc)" style="fill: none; stroke: #808080; stroke-width: 1.5; stroke-linecap: round"/>
   </g>
   <g id="line2d_60">
    <path d="M 71.152813 307.366143
L 577.19952 307.366143
" clip-path="url(#pb5792392cc)" style="fill: none; stroke: #dc143c; stroke-width: 1.5; stroke-linecap: round"/>
   </g>
   <g id="patch_8">
    <path d="M 71.152813 361.910331
L 71.152813 187.555406
" style="fill: none"/>
   </g>
   <g id="patch_9">
    <path d="M 577.19952 361.910331
L 577.19952 187.555406
" style="fill: none"/>
   </g>
   <g id="patch_10">
    <path d="M 71.152813 361.910331
L 577.19952 361.910331
" style="fill: none"/>
   </g>
   <g id="patch_11">
    <path d="M 71.152813 187.555406
L 577.19952 187.555406
" style="fill: none"/>
   </g>
  </g>
  <g id="axes_3">
   <g id="patch_12">
    <path d="M 71.152813 542.60077
L 577.19952 542.60077
L 577.19952 368.245844
L 71.152813 368.245844
z
" style="fill: #ffffff"/>
   </g>
   <g id="matplotlib.axis_5">
    <g id="xtick_19">
     <g id="line2d_61">
      <path d="M 94.154936 542.60077
L 94.154936 368.245844
" clip-path="url(#pdeb488161c)" style="fill: none; stroke: #eeeeee; stroke-width: 0.8; stroke-linecap: round"/>
     </g>
     <g id="line2d_62"/>
     <g id="text_13">
      <!-- 0 -->
      <g style="fill: #262626" transform="translate(89.701186 556.738582) scale(0.14 -0.14)">
       <use xlink:href="#DejaVuSans-30"/>
      </g>
     </g>
    </g>
    <g id="xtick_20">
     <g id="line2d_63">
      <path d="M 151.949215 542.60077
L 151.949215 368.245844
" clip-path="url(#pdeb488161c)" style="fill: none; stroke: #eeeeee; stroke-width: 0.8; stroke-linecap: round"/>
     </g>
     <g id="line2d_64"/>
     <g id="text_14">
      <!-- 25 -->
      <g style="fill: #262626" transform="translate(143.041715 556.738582) scale(0.14 -0.14)">
       <use xlink:href="#DejaVuSans-32"/>
       <use xlink:href="#DejaVuSans-35" x="63.623047"/>
      </g>
     </g>
    </g>
    <g id="xtick_21">
     <g id="line2d_65">
      <path d="M 209.743494 542.60077
L 209.743494 368.245844
" clip-path="url(#pdeb488161c)" style="fill: none; stroke: #eeeeee; stroke-width: 0.8; stroke-linecap: round"/>
     </g>
     <g id="line2d_66"/>
     <g id="text_15">
      <!-- 50 -->
      <g style="fill: #262626" transform="translate(200.835994 556.738582) scale(0.14 -0.14)">
       <use xlink:href="#DejaVuSans-35"/>
       <use xlink:href="#DejaVuSans-30" x="63.623047"/>
      </g>
     </g>
    </g>
    <g id="xtick_22">
     <g id="line2d_67">
      <path d="M 267.537773 542.60077
L 267.537773 368.245844
" clip-path="url(#pdeb488161c)" style="fill: none; stroke: #eeeeee; stroke-width: 0.8; stroke-linecap: round"/>
     </g>
     <g id="line2d_68"/>
     <g id="text_16">
      <!-- 75 -->
      <g style="fill: #262626" transform="translate(258.630273 556.738582) scale(0.14 -0.14)">
       <use xlink:href="#DejaVuSans-37"/>
       <use xlink:href="#DejaVuSans-35" x="63.623047"/>
      </g>
     </g>
    </g>
    <g id="xtick_23">
     <g id="line2d_69">
      <path d="M 325.332052 542.60077
L 325.332052 368.245844
" clip-path="url(#pdeb488161c)" style="fill: none; stroke: #eeeeee; stroke-width: 0.8; stroke-linecap: round"/>
     </g>
     <g id="line2d_70"/>
     <g id="text_17">
      <!-- 100 -->
      <g style="fill: #262626" transform="translate(311.970802 556.738582) scale(0.14 -0.14)">
       <use xlink:href="#DejaVuSans-31"/>
       <use xlink:href="#DejaVuSans-30" x="63.623047"/>
       <use xlink:href="#DejaVuSans-30" x="127.246094"/>
      </g>
     </g>
    </g>
    <g id="xtick_24">
     <g id="line2d_71">
      <path d="M 383.126331 542.60077
L 383.126331 368.245844
" clip-path="url(#pdeb488161c)" style="fill: none; stroke: #eeeeee; stroke-width: 0.8; stroke-linecap: round"/>
     </g>
     <g id="line2d_72"/>
     <g id="text_18">
      <!-- 125 -->
      <g style="fill: #262626" transform="translate(369.765081 556.738582) scale(0.14 -0.14)">
       <use xlink:href="#DejaVuSans-31"/>
       <use xlink:href="#DejaVuSans-32" x="63.623047"/>
       <use xlink:href="#DejaVuSans-35" x="127.246094"/>
      </g>
     </g>
    </g>
    <g id="xtick_25">
     <g id="line2d_73">
      <path d="M 440.92061 542.60077
L 440.92061 368.245844
" clip-path="url(#pdeb488161c)" style="fill: none; stroke: #eeeeee; stroke-width: 0.8; stroke-linecap: round"/>
     </g>
     <g id="line2d_74"/>
     <g id="text_19">
      <!-- 150 -->
      <g style="fill: #262626" transform="translate(427.55936 556.738582) scale(0.14 -0.14)">
       <use xlink:href="#DejaVuSans-31"/>
       <use xlink:href="#DejaVuSans-35" x="63.623047"/>
       <use xlink:href="#DejaVuSans-30" x="127.246094"/>
      </g>
     </g>
    </g>
    <g id="xtick_26">
     <g id="line2d_75">
      <path d="M 498.714889 542.60077
L 498.714889 368.245844
" clip-path="url(#pdeb488161c)" style="fill: none; stroke: #eeeeee; stroke-width: 0.8; stroke-linecap: round"/>
     </g>
     <g id="line2d_76"/>
     <g id="text_20">
      <!-- 175 -->
      <g style="fill: #262626" transform="translate(485.353639 556.738582) scale(0.14 -0.14)">
       <use xlink:href="#DejaVuSans-31"/>
       <use xlink:href="#DejaVuSans-37" x="63.623047"/>
       <use xlink:href="#DejaVuSans-35" x="127.246094"/>
      </g>
     </g>
    </g>
    <g id="xtick_27">
     <g id="line2d_77">
      <path d="M 556.509168 542.60077
L 556.509168 368.245844
" clip-path="url(#pdeb488161c)" style="fill: none; stroke: #eeeeee; stroke-width: 0.8; stroke-linecap: round"/>
     </g>
     <g id="line2d_78"/>
     <g id="text_21">
      <!-- 200 -->
      <g style="fill: #262626" transform="translate(543.147918 556.738582) scale(0.14 -0.14)">
       <use xlink:href="#DejaVuSans-32"/>
       <use xlink:href="#DejaVuSans-30" x="63.623047"/>
       <use xlink:href="#DejaVuSans-30" x="127.246094"/>
      </g>
     </g>
    </g>
    <g id="text_22">
     <!-- Iteration -->
     <g style="fill: #262626" transform="translate(294.484135 574.287957) scale(0.14 -0.14)">
      <defs>
       <path id="DejaVuSans-72" d="M 2631 2963
Q 2534 3019 2420 3045
Q 2306 3072 2169 3072
Q 1681 3072 1420 2755
Q 1159 2438 1159 1844
L 1159 0
L 581 0
L 581 3500
L 1159 3500
L 1159 2956
Q 1341 3275 1631 3429
Q 1922 3584 2338 3584
Q 2397 3584 2469 3576
Q 2541 3569 2628 3553
L 2631 2963
z
" transform="scale(0.015625)"/>
       <path id="DejaVuSans-61" d="M 2194 1759
Q 1497 1759 1228 1600
Q 959 1441 959 1056
Q 959 750 1161 570
Q 1363 391 1709 391
Q 2188 391 2477 730
Q 2766 1069 2766 1631
L 2766 1759
L 2194 1759
z
M 3341 1997
L 3341 0
L 2766 0
L 2766 531
Q 2569 213 2275 61
Q 1981 -91 1556 -91
Q 1019 -91 701 211
Q 384 513 384 1019
Q 384 1609 779 1909
Q 1175 2209 1959 2209
L 2766 2209
L 2766 2266
Q 2766 2663 2505 2880
Q 2244 3097 1772 3097
Q 1472 3097 1187 3025
Q 903 2953 641 2809
L 641 3341
Q 956 3463 1253 3523
Q 1550 3584 1831 3584
Q 2591 3584 2966 3190
Q 3341 2797 3341 1997
z
" transform="scale(0.015625)"/>
       <path id="DejaVuSans-6f" d="M 1959 3097
Q 1497 3097 1228 2736
Q 959 2375 959 1747
Q 959 1119 1226 758
Q 1494 397 1959 397
Q 2419 397 2687 759
Q 2956 1122 2956 1747
Q 2956 2369 2687 2733
Q 2419 3097 1959 3097
z
M 1959 3584
Q 2709 3584 3137 3096
Q 3566 2609 3566 1747
Q 3566 888 3137 398
Q 2709 -91 1959 -91
Q 1206 -91 779 398
Q 353 888 353 1747
Q 353 2609 779 3096
Q 1206 3584 1959 3584
z
" transform="scale(0.015625)"/>
      </defs>
      <use xlink:href="#DejaVuSans-49"/>
      <use xlink:href="#DejaVuSans-74" x="29.492188"/>
      <use xlink:href="#DejaVuSans-65" x="68.701172"/>
      <use xlink:href="#DejaVuSans-72" x="130.224609"/>
      <use xlink:href="#DejaVuSans-61" x="171.337891"/>
      <use xlink:href="#DejaVuSans-74" x="232.617188"/>
      <use xlink:href="#DejaVuSans-69" x="271.826172"/>
      <use xlink:href="#DejaVuSans-6f" x="299.609375"/>
      <use xlink:href="#DejaVuSans-6e" x="360.791016"/>
     </g>
    </g>
   </g>
   <g id="matplotlib.axis_6">
    <g id="ytick_11">
     <g id="line2d_79">
      <path d="M 71.152813 534.675546
L 577.19952 534.675546
" clip-path="url(#pdeb488161c)" style="fill: none; stroke: #eeeeee; stroke-width: 0.8; stroke-linecap: round"/>
     </g>
     <g id="line2d_80"/>
     <g id="text_23">
      <!-- 0 -->
      <g style="fill: #262626" transform="translate(58.745313 539.994452) scale(0.14 -0.14)">
       <use xlink:href="#DejaVuSans-30"/>
      </g>
     </g>
    </g>
    <g id="ytick_12">
     <g id="line2d_81">
      <path d="M 71.152813 502.974651
L 577.19952 502.974651
" clip-path="url(#pdeb488161c)" style="fill: none; stroke: #eeeeee; stroke-width: 0.8; stroke-linecap: round"/>
     </g>
     <g id="line2d_82"/>
     <g id="text_24">
      <!-- 1 -->
      <g style="fill: #262626" transform="translate(58.745313 508.293557) scale(0.14 -0.14)">
       <use xlink:href="#DejaVuSans-31"/>
      </g>
     </g>
    </g>
    <g id="ytick_13">
     <g id="line2d_83">
      <path d="M 71.152813 471.273755
L 577.19952 471.273755
" clip-path="url(#pdeb488161c)" style="fill: none; stroke: #eeeeee; stroke-width: 0.8; stroke-linecap: round"/>
     </g>
     <g id="line2d_84"/>
     <g id="text_25">
      <!-- 2 -->
      <g style="fill: #262626" transform="translate(58.745313 476.592661) scale(0.14 -0.14)">
       <use xlink:href="#DejaVuSans-32"/>
      </g>
     </g>
    </g>
    <g id="ytick_14">
     <g id="line2d_85">
      <path d="M 71.152813 439.572859
L 577.19952 439.572859
" clip-path="url(#pdeb488161c)" style="fill: none; stroke: #eeeeee; stroke-width: 0.8; stroke-linecap: round"/>
     </g>
     <g id="line2d_86"/>
     <g id="text_26">
      <!-- 3 -->
      <g style="fill: #262626" transform="translate(58.745313 444.891766) scale(0.14 -0.14)">
       <defs>
        <path id="DejaVuSans-33" d="M 2597 2516
Q 3050 2419 3304 2112
Q 3559 1806 3559 1356
Q 3559 666 3084 287
Q 2609 -91 1734 -91
Q 1441 -91 1130 -33
Q 819 25 488 141
L 488 750
Q 750 597 1062 519
Q 1375 441 1716 441
Q 2309 441 2620 675
Q 2931 909 2931 1356
Q 2931 1769 2642 2001
Q 2353 2234 1838 2234
L 1294 2234
L 1294 2753
L 1863 2753
Q 2328 2753 2575 2939
Q 2822 3125 2822 3475
Q 2822 3834 2567 4026
Q 2313 4219 1838 4219
Q 1578 4219 1281 4162
Q 984 4106 628 3988
L 628 4550
Q 988 4650 1302 4700
Q 1616 4750 1894 4750
Q 2613 4750 3031 4423
Q 3450 4097 3450 3541
Q 3450 3153 3228 2886
Q 3006 2619 2597 2516
z
" transform="scale(0.015625)"/>
       </defs>
       <use xlink:href="#DejaVuSans-33"/>
      </g>
     </g>
    </g>
    <g id="ytick_15">
     <g id="line2d_87">
      <path d="M 71.152813 407.871964
L 577.19952 407.871964
" clip-path="url(#pdeb488161c)" style="fill: none; stroke: #eeeeee; stroke-width: 0.8; stroke-linecap: round"/>
     </g>
     <g id="line2d_88"/>
     <g id="text_27">
      <!-- 4 -->
      <g style="fill: #262626" transform="translate(58.745313 413.19087) scale(0.14 -0.14)">
       <defs>
        <path id="DejaVuSans-34" d="M 2419 4116
L 825 1625
L 2419 1625
L 2419 4116
z
M 2253 4666
L 3047 4666
L 3047 1625
L 3713 1625
L 3713 1100
L 3047 1100
L 3047 0
L 2419 0
L 2419 1100
L 313 1100
L 313 1709
L 2253 4666
z
" transform="scale(0.015625)"/>
       </defs>
       <use xlink:href="#DejaVuSans-34"/>
      </g>
     </g>
    </g>
    <g id="ytick_16">
     <g id="line2d_89">
      <path d="M 71.152813 376.171068
L 577.19952 376.171068
" clip-path="url(#pdeb488161c)" style="fill: none; stroke: #eeeeee; stroke-width: 0.8; stroke-linecap: round"/>
     </g>
     <g id="line2d_90"/>
     <g id="text_28">
      <!-- 5 -->
      <g style="fill: #262626" transform="translate(58.745313 381.489975) scale(0.14 -0.14)">
       <use xlink:href="#DejaVuSans-35"/>
      </g>
     </g>
    </g>
    <g id="text_29">
     <!-- Removed -->
     <g style="fill: #262626" transform="translate(51.83375 488.275182) rotate(-90) scale(0.14 -0.14)">
      <defs>
       <path id="DejaVuSans-52" d="M 2841 2188
Q 3044 2119 3236 1894
Q 3428 1669 3622 1275
L 4263 0
L 3584 0
L 2988 1197
Q 2756 1666 2539 1819
Q 2322 1972 1947 1972
L 1259 1972
L 1259 0
L 628 0
L 628 4666
L 2053 4666
Q 2853 4666 3247 4331
Q 3641 3997 3641 3322
Q 3641 2881 3436 2590
Q 3231 2300 2841 2188
z
M 1259 4147
L 1259 2491
L 2053 2491
Q 2509 2491 2742 2702
Q 2975 2913 2975 3322
Q 2975 3731 2742 3939
Q 2509 4147 2053 4147
L 1259 4147
z
" transform="scale(0.015625)"/>
       <path id="DejaVuSans-6d" d="M 3328 2828
Q 3544 3216 3844 3400
Q 4144 3584 4550 3584
Q 5097 3584 5394 3201
Q 5691 2819 5691 2113
L 5691 0
L 5113 0
L 5113 2094
Q 5113 2597 4934 2840
Q 4756 3084 4391 3084
Q 3944 3084 3684 2787
Q 3425 2491 3425 1978
L 3425 0
L 2847 0
L 2847 2094
Q 2847 2600 2669 2842
Q 2491 3084 2119 3084
Q 1678 3084 1418 2786
Q 1159 2488 1159 1978
L 1159 0
L 581 0
L 581 3500
L 1159 3500
L 1159 2956
Q 1356 3278 1631 3431
Q 1906 3584 2284 3584
Q 2666 3584 2933 3390
Q 3200 3197 3328 2828
z
" transform="scale(0.015625)"/>
       <path id="DejaVuSans-76" d="M 191 3500
L 800 3500
L 1894 563
L 2988 3500
L 3597 3500
L 2284 0
L 1503 0
L 191 3500
z
" transform="scale(0.015625)"/>
      </defs>
      <use xlink:href="#DejaVuSans-52"/>
      <use xlink:href="#DejaVuSans-65" x="64.982422"/>
      <use xlink:href="#DejaVuSans-6d" x="126.505859"/>
      <use xlink:href="#DejaVuSans-6f" x="223.917969"/>
      <use xlink:href="#DejaVuSans-76" x="285.099609"/>
      <use xlink:href="#DejaVuSans-65" x="344.279297"/>
      <use xlink:href="#DejaVuSans-64" x="405.802734"/>
     </g>
    </g>
   </g>
   <g id="PolyCollection_3"/>
   <g id="line2d_91">
    <path d="M 94.154936 534.675546
L 96.466707 502.974651
L 98.778478 534.675546
L 101.090249 502.974651
L 103.40202 534.675546
L 105.713791 502.974651
L 110.337334 502.974651
L 112.649105 534.675546
L 114.960876 502.974651
L 117.272647 502.974651
L 119.584418 376.171068
L 121.89619 471.273755
L 126.519732 534.675546
L 128.831503 439.572859
L 131.143274 407.871964
L 133.455045 502.974651
L 135.766816 471.273755
L 138.078588 502.974651
L 140.390359 502.974651
L 142.70213 439.572859
L 145.013901 471.273755
L 147.325672 534.675546
L 149.637443 471.273755
L 151.949215 534.675546
L 154.260986 502.974651
L 156.572757 502.974651
L 158.884528 534.675546
L 161.196299 471.273755
L 163.50807 534.675546
L 165.819842 502.974651
L 170.443384 502.974651
L 172.755155 471.273755
L 175.066926 534.675546
L 177.378697 439.572859
L 179.690469 534.675546
L 182.00224 502.974651
L 184.314011 407.871964
L 186.625782 502.974651
L 188.937553 439.572859
L 191.249324 439.572859
L 193.561096 534.675546
L 195.872867 534.675546
L 198.184638 471.273755
L 200.496409 502.974651
L 205.119951 376.171068
L 207.431723 471.273755
L 212.055265 407.871964
L 216.678807 471.273755
L 218.990578 534.675546
L 221.30235 376.171068
L 223.614121 471.273755
L 225.925892 439.572859
L 228.237663 439.572859
L 230.549434 471.273755
L 232.861205 439.572859
L 235.172976 502.974651
L 237.484748 534.675546
L 239.796519 439.572859
L 242.10829 534.675546
L 244.420061 534.675546
L 246.731832 439.572859
L 249.043603 534.675546
L 253.667146 471.273755
L 255.978917 471.273755
L 258.290688 502.974651
L 267.537773 502.974651
L 269.849544 407.871964
L 272.161315 534.675546
L 274.473086 439.572859
L 276.784857 534.675546
L 279.096629 471.273755
L 281.4084 534.675546
L 283.720171 502.974651
L 286.031942 502.974651
L 288.343713 534.675546
L 290.655484 534.675546
L 292.967256 502.974651
L 295.279027 502.974651
L 297.590798 439.572859
L 299.902569 534.675546
L 302.21434 407.871964
L 304.526111 502.974651
L 306.837883 471.273755
L 309.149654 502.974651
L 311.461425 407.871964
L 313.773196 534.675546
L 316.084967 471.273755
L 318.396738 502.974651
L 320.70851 471.273755
L 323.020281 407.871964
L 325.332052 502.974651
L 327.643823 471.273755
L 329.955594 502.974651
L 332.267365 502.974651
L 334.579136 471.273755
L 336.890908 534.675546
L 339.202679 439.572859
L 341.51445 502.974651
L 343.826221 471.273755
L 346.137992 471.273755
L 348.449763 439.572859
L 350.761535 502.974651
L 353.073306 439.572859
L 355.385077 502.974651
L 357.696848 534.675546
L 360.008619 471.273755
L 362.32039 471.273755
L 364.632162 534.675546
L 366.943933 471.273755
L 369.255704 502.974651
L 371.567475 471.273755
L 373.879246 502.974651
L 376.191017 471.273755
L 378.502789 471.273755
L 380.81456 502.974651
L 385.438102 502.974651
L 387.749873 471.273755
L 390.061644 502.974651
L 392.373416 439.572859
L 394.685187 439.572859
L 396.996958 502.974651
L 399.308729 439.572859
L 401.6205 534.675546
L 403.932271 502.974651
L 406.244043 439.572859
L 410.867585 502.974651
L 413.179356 439.572859
L 415.491127 502.974651
L 417.802898 439.572859
L 422.426441 502.974651
L 424.738212 439.572859
L 427.049983 502.974651
L 429.361754 471.273755
L 431.673525 534.675546
L 436.297068 534.675546
L 438.608839 502.974651
L 440.92061 407.871964
L 443.232381 534.675546
L 445.544152 502.974651
L 447.855923 534.675546
L 452.479466 534.675546
L 454.791237 502.974651
L 457.103008 534.675546
L 459.414779 502.974651
L 461.72655 439.572859
L 468.661864 534.675546
L 470.973635 534.675546
L 473.285406 502.974651
L 475.597177 534.675546
L 477.908949 534.675546
L 480.22072 502.974651
L 482.532491 502.974651
L 484.844262 534.675546
L 487.156033 502.974651
L 489.467804 534.675546
L 498.714889 534.675546
L 501.02666 502.974651
L 503.338431 502.974651
L 505.650203 534.675546
L 510.273745 534.675546
L 512.585516 471.273755
L 514.897287 534.675546
L 517.209058 502.974651
L 519.520829 502.974651
L 521.832601 534.675546
L 524.144372 502.974651
L 526.456143 534.675546
L 528.767914 502.974651
L 531.079685 534.675546
L 540.32677 534.675546
L 542.638541 502.974651
L 544.950312 534.675546
L 547.262083 502.974651
L 549.573855 502.974651
L 551.885626 534.675546
L 554.197397 502.974651
L 554.197397 502.974651
" clip-path="url(#pdeb488161c)" style="fill: none; stroke: #808080; stroke-width: 1.5; stroke-linecap: round"/>
   </g>
   <g id="line2d_92">
    <path d="M 71.152813 534.675546
L 577.19952 534.675546
" clip-path="url(#pdeb488161c)" style="fill: none; stroke: #dc143c; stroke-width: 1.5; stroke-linecap: round"/>
   </g>
   <g id="patch_13">
    <path d="M 71.152813 542.60077
L 71.152813 368.245844
" style="fill: none"/>
   </g>
   <g id="patch_14">
    <path d="M 577.19952 542.60077
L 577.19952 368.245844
" style="fill: none"/>
   </g>
   <g id="patch_15">
    <path d="M 71.152813 542.60077
L 577.19952 542.60077
" style="fill: none"/>
   </g>
   <g id="patch_16">
    <path d="M 71.152813 368.245844
L 577.19952 368.245844
" style="fill: none"/>
   </g>
  </g>
 </g>
 <defs>
  <clipPath id="p2804871da3">
   <rect x="71.152813" y="7.2" width="506.046707" height="174.354926"/>
  </clipPath>
  <clipPath id="pb5792392cc">
   <rect x="71.152813" y="187.555406" width="506.046707" height="174.354926"/>
  </clipPath>
  <clipPath id="pdeb488161c">
   <rect x="71.152813" y="368.245844" width="506.046707" height="174.354926"/>
  </clipPath>
 </defs>
</svg>
