<?xml version="1.0" encoding="utf-8" standalone="no"?>
<!DOCTYPE svg PUBLIC "-//W3C//DTD SVG 1.1//EN"
  "http://www.w3.org/Graphics/SVG/1.1/DTD/svg11.dtd">
<svg xmlns:xlink="http://www.w3.org/1999/xlink" width="526.79952pt" height="353.99952pt" viewBox="0 0 526.79952 353.99952" xmlns="http://www.w3.org/2000/svg" version="1.1">
 <metadata>
  <rdf:RDF xmlns:dc="http://purl.org/dc/elements/1.1/" xmlns:cc="http://creativecommons.org/ns#" xmlns:rdf="http://www.w3.org/1999/02/22-rdf-syntax-ns#">
   <cc:Work>
    <dc:type rdf:resource="http://purl.org/dc/dcmitype/StillImage"/>
    <dc:date>2024-08-17T11:23:05.838840</dc:date>
    <dc:format>image/svg+xml</dc:format>
    <dc:creator>
     <cc:Agent>
      <dc:title>Matplotlib v3.9.1, https://matplotlib.org/</dc:title>
     </cc:Agent>
    </dc:creator>
   </cc:Work>
  </rdf:RDF>
 </metadata>
 <defs>
  <style type="text/css">*{stroke-linejoin: round; stroke-linecap: butt}</style>
 </defs>
 <g id="figure_1">
  <g id="patch_1">
   <path d="M 0 353.99952
L 526.79952 353.99952
L 526.79952 0
L 0 0
z
" style="fill: #ffffff"/>
  </g>
  <g id="axes_1">
   <g id="patch_2">
    <path d="M 58.883567 298.46386
L 519.59952 298.46386
L 519.59952 47.404995
L 58.883567 47.404995
z
" style="fill: #ffffff"/>
   </g>
   <g id="matplotlib.axis_1">
    <g id="xtick_1">
     <g id="line2d_1">
      <path d="M 79.825201 298.46386
L 79.825201 47.404995
" clip-path="url(#pcc29bf39c7)" style="fill: none; stroke: #eeeeee; stroke-width: 0.8; stroke-linecap: round"/>
     </g>
     <g id="line2d_2"/>
     <g id="text_1">
      <!-- $\mathdefault{0.0}$ -->
      <g style="fill: #262626" transform="translate(71.09991 311.649736) scale(0.14 -0.14)">
       <defs>
        <path id="CMR17-30" d="M 2688 2038
C 2688 2430 2682 3099 2413 3613
C 2176 4063 1798 4224 1466 4224
C 1158 4224 768 4082 525 3620
C 269 3137 243 2539 243 2038
C 243 1671 250 1112 448 623
C 723 -39 1216 -128 1466 -128
C 1760 -128 2208 -7 2470 604
C 2662 1048 2688 1568 2688 2038
z
M 1466 -26
C 1056 -26 813 328 723 816
C 653 1196 653 1749 653 2109
C 653 2604 653 3015 736 3407
C 858 3954 1216 4121 1466 4121
C 1728 4121 2067 3947 2189 3420
C 2272 3054 2278 2623 2278 2109
C 2278 1691 2278 1176 2202 797
C 2067 96 1690 -26 1466 -26
z
" transform="scale(0.015625)"/>
        <path id="CMMI12-3a" d="M 1178 307
C 1178 492 1024 620 870 620
C 685 620 557 467 557 313
C 557 128 710 0 864 0
C 1050 0 1178 153 1178 307
z
" transform="scale(0.015625)"/>
       </defs>
       <use xlink:href="#CMR17-30" transform="scale(0.996264)"/>
       <use xlink:href="#CMMI12-3a" transform="translate(45.690477 0) scale(0.996264)"/>
       <use xlink:href="#CMR17-30" transform="translate(72.787654 0) scale(0.996264)"/>
      </g>
     </g>
    </g>
    <g id="xtick_2">
     <g id="line2d_3">
      <path d="M 163.591738 298.46386
L 163.591738 47.404995
" clip-path="url(#pcc29bf39c7)" style="fill: none; stroke: #eeeeee; stroke-width: 0.8; stroke-linecap: round"/>
     </g>
     <g id="line2d_4"/>
     <g id="text_2">
      <!-- $\mathdefault{0.2}$ -->
      <g style="fill: #262626" transform="translate(154.866447 311.649736) scale(0.14 -0.14)">
       <defs>
        <path id="CMR17-32" d="M 2669 990
L 2554 990
C 2490 537 2438 460 2413 422
C 2381 371 1920 371 1830 371
L 602 371
C 832 620 1280 1073 1824 1596
C 2214 1966 2669 2400 2669 3033
C 2669 3788 2067 4224 1395 4224
C 691 4224 262 3603 262 3027
C 262 2777 448 2745 525 2745
C 589 2745 781 2783 781 3007
C 781 3206 614 3264 525 3264
C 486 3264 448 3257 422 3244
C 544 3788 915 4057 1306 4057
C 1862 4057 2227 3616 2227 3033
C 2227 2477 1901 1998 1536 1583
L 262 147
L 262 0
L 2515 0
L 2669 990
z
" transform="scale(0.015625)"/>
       </defs>
       <use xlink:href="#CMR17-30" transform="scale(0.996264)"/>
       <use xlink:href="#CMMI12-3a" transform="translate(45.690477 0) scale(0.996264)"/>
       <use xlink:href="#CMR17-32" transform="translate(72.787654 0) scale(0.996264)"/>
      </g>
     </g>
    </g>
    <g id="xtick_3">
     <g id="line2d_5">
      <path d="M 247.358275 298.46386
L 247.358275 47.404995
" clip-path="url(#pcc29bf39c7)" style="fill: none; stroke: #eeeeee; stroke-width: 0.8; stroke-linecap: round"/>
     </g>
     <g id="line2d_6"/>
     <g id="text_3">
      <!-- $\mathdefault{0.4}$ -->
      <g style="fill: #262626" transform="translate(238.632984 311.649736) scale(0.14 -0.14)">
       <defs>
        <path id="CMR17-34" d="M 2150 4147
C 2150 4281 2144 4288 2029 4288
L 128 1254
L 128 1088
L 1779 1088
L 1779 460
C 1779 230 1766 166 1318 166
L 1197 166
L 1197 0
C 1402 12 1747 12 1965 12
C 2182 12 2528 12 2733 0
L 2733 166
L 2611 166
C 2163 166 2150 230 2150 460
L 2150 1088
L 2803 1088
L 2803 1254
L 2150 1254
L 2150 4147
z
M 1798 3723
L 1798 1254
L 256 1254
L 1798 3723
z
" transform="scale(0.015625)"/>
       </defs>
       <use xlink:href="#CMR17-30" transform="scale(0.996264)"/>
       <use xlink:href="#CMMI12-3a" transform="translate(45.690477 0) scale(0.996264)"/>
       <use xlink:href="#CMR17-34" transform="translate(72.787654 0) scale(0.996264)"/>
      </g>
     </g>
    </g>
    <g id="xtick_4">
     <g id="line2d_7">
      <path d="M 331.124812 298.46386
L 331.124812 47.404995
" clip-path="url(#pcc29bf39c7)" style="fill: none; stroke: #eeeeee; stroke-width: 0.8; stroke-linecap: round"/>
     </g>
     <g id="line2d_8"/>
     <g id="text_4">
      <!-- $\mathdefault{0.6}$ -->
      <g style="fill: #262626" transform="translate(322.399521 311.649736) scale(0.14 -0.14)">
       <defs>
        <path id="CMR17-36" d="M 678 2198
C 678 3712 1395 4076 1811 4076
C 1946 4076 2272 4049 2400 3782
C 2298 3782 2106 3782 2106 3558
C 2106 3385 2246 3328 2336 3328
C 2394 3328 2566 3353 2566 3571
C 2566 3987 2246 4224 1805 4224
C 1043 4224 243 3411 243 2011
C 243 257 966 -128 1478 -128
C 2099 -128 2688 431 2688 1295
C 2688 2101 2170 2688 1517 2688
C 1126 2688 838 2430 678 1979
L 678 2198
z
M 1478 25
C 691 25 691 1212 691 1450
C 691 1914 909 2585 1504 2585
C 1613 2585 1926 2585 2138 2140
C 2253 1889 2253 1624 2253 1302
C 2253 954 2253 696 2118 438
C 1978 173 1773 25 1478 25
z
" transform="scale(0.015625)"/>
       </defs>
       <use xlink:href="#CMR17-30" transform="scale(0.996264)"/>
       <use xlink:href="#CMMI12-3a" transform="translate(45.690477 0) scale(0.996264)"/>
       <use xlink:href="#CMR17-36" transform="translate(72.787654 0) scale(0.996264)"/>
      </g>
     </g>
    </g>
    <g id="xtick_5">
     <g id="line2d_9">
      <path d="M 414.891349 298.46386
L 414.891349 47.404995
" clip-path="url(#pcc29bf39c7)" style="fill: none; stroke: #eeeeee; stroke-width: 0.8; stroke-linecap: round"/>
     </g>
     <g id="line2d_10"/>
     <g id="text_5">
      <!-- $\mathdefault{0.8}$ -->
      <g style="fill: #262626" transform="translate(406.166058 311.649736) scale(0.14 -0.14)">
       <defs>
        <path id="CMR17-38" d="M 1741 2289
C 2144 2494 2554 2803 2554 3298
C 2554 3884 1990 4224 1472 4224
C 890 4224 378 3800 378 3215
C 378 3054 416 2777 666 2533
C 730 2469 998 2276 1171 2154
C 883 2006 211 1652 211 945
C 211 282 838 -128 1459 -128
C 2144 -128 2720 366 2720 1022
C 2720 1607 2330 1877 2074 2051
L 1741 2289
z
M 902 2855
C 851 2887 595 3086 595 3388
C 595 3781 998 4076 1459 4076
C 1965 4076 2336 3716 2336 3298
C 2336 2700 1670 2359 1638 2359
C 1632 2359 1626 2359 1574 2398
L 902 2855
z
M 2080 1536
C 2176 1466 2483 1253 2483 861
C 2483 385 2010 25 1472 25
C 890 25 448 443 448 951
C 448 1459 838 1884 1280 2083
L 2080 1536
z
" transform="scale(0.015625)"/>
       </defs>
       <use xlink:href="#CMR17-30" transform="scale(0.996264)"/>
       <use xlink:href="#CMMI12-3a" transform="translate(45.690477 0) scale(0.996264)"/>
       <use xlink:href="#CMR17-38" transform="translate(72.787654 0) scale(0.996264)"/>
      </g>
     </g>
    </g>
    <g id="xtick_6">
     <g id="line2d_11">
      <path d="M 498.657886 298.46386
L 498.657886 47.404995
" clip-path="url(#pcc29bf39c7)" style="fill: none; stroke: #eeeeee; stroke-width: 0.8; stroke-linecap: round"/>
     </g>
     <g id="line2d_12"/>
     <g id="text_6">
      <!-- $\mathdefault{1.0}$ -->
      <g style="fill: #262626" transform="translate(489.932595 311.649736) scale(0.14 -0.14)">
       <defs>
        <path id="CMR17-31" d="M 1702 4083
C 1702 4217 1696 4224 1606 4224
C 1357 3927 979 3833 621 3820
C 602 3820 570 3820 563 3808
C 557 3795 557 3782 557 3648
C 755 3648 1088 3686 1344 3839
L 1344 467
C 1344 243 1331 166 781 166
L 589 166
L 589 0
C 896 6 1216 12 1523 12
C 1830 12 2150 6 2458 0
L 2458 166
L 2266 166
C 1715 166 1702 236 1702 467
L 1702 4083
z
" transform="scale(0.015625)"/>
       </defs>
       <use xlink:href="#CMR17-31" transform="scale(0.996264)"/>
       <use xlink:href="#CMMI12-3a" transform="translate(45.690477 0) scale(0.996264)"/>
       <use xlink:href="#CMR17-30" transform="translate(72.787654 0) scale(0.996264)"/>
      </g>
     </g>
    </g>
    <g id="text_7">
     <!--  -->
     <g style="fill: #262626" transform="translate(289.241543 328.047641) scale(0.14 -0.14)"/>
     <!-- $p(edge)$ -->
     <g style="fill: #262626" transform="translate(267.105445 343.312596) scale(0.14 -0.14)">
      <defs>
       <path id="CMMI12-70" d="M 275 -794
C 230 -981 205 -1031 -58 -1031
C -135 -1031 -199 -1031 -199 -1152
C -199 -1165 -192 -1216 -122 -1216
C -39 -1216 51 -1204 134 -1204
L 410 -1204
C 544 -1204 870 -1216 1005 -1216
C 1043 -1216 1120 -1216 1120 -1101
C 1120 -1031 1075 -1031 966 -1031
C 672 -1031 653 -987 653 -937
C 653 -863 941 217 979 364
C 1050 185 1222 -64 1555 -64
C 2278 -64 3059 874 3059 1813
C 3059 2400 2726 2816 2246 2816
C 1837 2816 1491 2419 1421 2330
C 1370 2649 1120 2816 864 2816
C 678 2816 531 2726 410 2483
C 294 2253 205 1864 205 1838
C 205 1813 230 1781 275 1781
C 326 1781 333 1787 371 1934
C 467 2311 589 2687 845 2687
C 992 2687 1043 2585 1043 2394
C 1043 2241 1024 2177 998 2062
L 275 -794
z
M 1382 1992
C 1427 2170 1606 2356 1709 2445
C 1779 2509 1990 2687 2234 2687
C 2515 2687 2643 2407 2643 2075
C 2643 1768 2464 1047 2304 715
C 2144 370 1850 64 1555 64
C 1120 64 1050 613 1050 638
C 1050 657 1062 708 1069 740
L 1382 1992
z
" transform="scale(0.015625)"/>
       <path id="CMR17-28" d="M 1958 -1562
C 1958 -1556 1958 -1543 1939 -1524
C 1645 -1223 858 -403 858 1596
C 858 3595 1632 4408 1946 4729
C 1946 4735 1958 4748 1958 4767
C 1958 4787 1939 4800 1914 4800
C 1843 4800 1299 4325 986 3620
C 666 2909 576 2218 576 1603
C 576 1141 621 360 1005 -467
C 1312 -1133 1837 -1600 1914 -1600
C 1946 -1600 1958 -1588 1958 -1562
z
" transform="scale(0.015625)"/>
       <path id="CMMI12-65" d="M 1146 1472
C 1318 1472 1754 1484 2061 1600
C 2547 1786 2592 2160 2592 2275
C 2592 2559 2349 2816 1926 2816
C 1254 2816 288 2205 288 1066
C 288 400 672 -64 1254 -64
C 2125 -64 2675 609 2675 691
C 2675 729 2637 761 2611 761
C 2592 761 2586 755 2528 698
C 2118 159 1510 64 1267 64
C 902 64 710 349 710 818
C 710 907 710 1066 806 1472
L 1146 1472
z
M 838 1600
C 1114 2591 1722 2687 1926 2687
C 2208 2687 2400 2520 2400 2275
C 2400 1600 1376 1600 1107 1600
L 838 1600
z
" transform="scale(0.015625)"/>
       <path id="CMMI12-64" d="M 3219 4255
C 3226 4281 3238 4319 3238 4351
C 3238 4416 3174 4416 3162 4416
C 3155 4416 2842 4390 2810 4383
C 2701 4377 2605 4364 2490 4358
C 2330 4345 2285 4339 2285 4223
C 2285 4159 2336 4159 2426 4159
C 2739 4159 2746 4103 2746 4040
C 2746 4002 2733 3951 2726 3932
L 2336 2394
C 2266 2560 2093 2816 1760 2816
C 1037 2816 256 1883 256 938
C 256 306 627 -64 1062 -64
C 1414 -64 1715 210 1894 421
C 1958 44 2259 -64 2451 -64
C 2643 -64 2797 51 2912 281
C 3014 498 3104 887 3104 913
C 3104 945 3078 970 3040 970
C 2982 970 2976 938 2950 842
C 2854 466 2733 64 2470 64
C 2285 64 2272 230 2272 357
C 2272 383 2272 517 2317 696
L 3219 4255
z
M 1926 759
C 1894 651 1894 638 1805 517
C 1664 338 1382 64 1082 64
C 819 64 672 300 672 676
C 672 1028 870 1743 992 2011
C 1210 2458 1510 2687 1760 2687
C 2182 2687 2266 2164 2266 2113
C 2266 2107 2246 2024 2240 2011
L 1926 759
z
" transform="scale(0.015625)"/>
       <path id="CMMI12-67" d="M 2163 811
C 2138 708 2125 683 2042 587
C 1779 249 1510 128 1312 128
C 1101 128 902 293 902 734
C 902 1072 1094 1787 1235 2075
C 1421 2432 1709 2687 1978 2687
C 2400 2687 2483 2164 2483 2126
L 2464 2036
L 2163 811
z
M 2560 2394
C 2477 2579 2298 2816 1978 2816
C 1280 2816 486 1941 486 989
C 486 325 890 0 1299 0
C 1638 0 1939 268 2054 396
L 1914 -176
C 1824 -520 1786 -677 1555 -896
C 1293 -1152 1050 -1152 909 -1152
C 717 -1152 557 -1140 397 -1090
C 602 -1034 653 -858 653 -789
C 653 -689 576 -589 435 -589
C 282 -589 115 -714 115 -921
C 115 -1178 378 -1280 922 -1280
C 1747 -1280 2176 -758 2259 -420
L 2970 2426
C 2989 2502 2989 2515 2989 2528
C 2989 2617 2918 2688 2822 2688
C 2669 2688 2579 2560 2560 2388
L 2560 2394
z
" transform="scale(0.015625)"/>
       <path id="CMR17-29" d="M 1683 1596
C 1683 2057 1638 2839 1254 3665
C 947 4332 422 4800 346 4800
C 326 4800 301 4793 301 4761
C 301 4748 307 4742 314 4729
C 621 4408 1402 3595 1402 1603
C 1402 -396 627 -1210 314 -1530
C 307 -1543 301 -1549 301 -1562
C 301 -1594 326 -1600 346 -1600
C 416 -1600 960 -1127 1274 -422
C 1594 289 1683 981 1683 1596
z
" transform="scale(0.015625)"/>
      </defs>
      <use xlink:href="#CMMI12-70" transform="scale(0.996264)"/>
      <use xlink:href="#CMR17-28" transform="translate(48.959514 0) scale(0.996264)"/>
      <use xlink:href="#CMMI12-65" transform="translate(84.240282 0) scale(0.996264)"/>
      <use xlink:href="#CMMI12-64" transform="translate(129.452283 0) scale(0.996264)"/>
      <use xlink:href="#CMMI12-67" transform="translate(180.14138 0) scale(0.996264)"/>
      <use xlink:href="#CMMI12-65" transform="translate(230.426869 0) scale(0.996264)"/>
      <use xlink:href="#CMR17-29" transform="translate(275.63887 0) scale(0.996264)"/>
     </g>
    </g>
   </g>
   <g id="matplotlib.axis_2">
    <g id="ytick_1">
     <g id="line2d_13">
      <path d="M 58.883567 287.052093
L 519.59952 287.052093
" clip-path="url(#pcc29bf39c7)" style="fill: none; stroke: #eeeeee; stroke-width: 0.8; stroke-linecap: round"/>
     </g>
     <g id="line2d_14"/>
     <g id="text_8">
      <!-- $\mathdefault{0.0}$ -->
      <g style="fill: #262626" transform="translate(37.932985 291.895031) scale(0.14 -0.14)">
       <use xlink:href="#CMR17-30" transform="scale(0.996264)"/>
       <use xlink:href="#CMMI12-3a" transform="translate(45.690477 0) scale(0.996264)"/>
       <use xlink:href="#CMR17-30" transform="translate(72.787654 0) scale(0.996264)"/>
      </g>
     </g>
    </g>
    <g id="ytick_2">
     <g id="line2d_15">
      <path d="M 58.883567 241.405027
L 519.59952 241.405027
" clip-path="url(#pcc29bf39c7)" style="fill: none; stroke: #eeeeee; stroke-width: 0.8; stroke-linecap: round"/>
     </g>
     <g id="line2d_16"/>
     <g id="text_9">
      <!-- $\mathdefault{0.2}$ -->
      <g style="fill: #262626" transform="translate(37.932985 246.247965) scale(0.14 -0.14)">
       <use xlink:href="#CMR17-30" transform="scale(0.996264)"/>
       <use xlink:href="#CMMI12-3a" transform="translate(45.690477 0) scale(0.996264)"/>
       <use xlink:href="#CMR17-32" transform="translate(72.787654 0) scale(0.996264)"/>
      </g>
     </g>
    </g>
    <g id="ytick_3">
     <g id="line2d_17">
      <path d="M 58.883567 195.757961
L 519.59952 195.757961
" clip-path="url(#pcc29bf39c7)" style="fill: none; stroke: #eeeeee; stroke-width: 0.8; stroke-linecap: round"/>
     </g>
     <g id="line2d_18"/>
     <g id="text_10">
      <!-- $\mathdefault{0.4}$ -->
      <g style="fill: #262626" transform="translate(37.932985 200.600899) scale(0.14 -0.14)">
       <use xlink:href="#CMR17-30" transform="scale(0.996264)"/>
       <use xlink:href="#CMMI12-3a" transform="translate(45.690477 0) scale(0.996264)"/>
       <use xlink:href="#CMR17-34" transform="translate(72.787654 0) scale(0.996264)"/>
      </g>
     </g>
    </g>
    <g id="ytick_4">
     <g id="line2d_19">
      <path d="M 58.883567 150.110894
L 519.59952 150.110894
" clip-path="url(#pcc29bf39c7)" style="fill: none; stroke: #eeeeee; stroke-width: 0.8; stroke-linecap: round"/>
     </g>
     <g id="line2d_20"/>
     <g id="text_11">
      <!-- $\mathdefault{0.6}$ -->
      <g style="fill: #262626" transform="translate(37.932985 154.953833) scale(0.14 -0.14)">
       <use xlink:href="#CMR17-30" transform="scale(0.996264)"/>
       <use xlink:href="#CMMI12-3a" transform="translate(45.690477 0) scale(0.996264)"/>
       <use xlink:href="#CMR17-36" transform="translate(72.787654 0) scale(0.996264)"/>
      </g>
     </g>
    </g>
    <g id="ytick_5">
     <g id="line2d_21">
      <path d="M 58.883567 104.463828
L 519.59952 104.463828
" clip-path="url(#pcc29bf39c7)" style="fill: none; stroke: #eeeeee; stroke-width: 0.8; stroke-linecap: round"/>
     </g>
     <g id="line2d_22"/>
     <g id="text_12">
      <!-- $\mathdefault{0.8}$ -->
      <g style="fill: #262626" transform="translate(37.932985 109.306766) scale(0.14 -0.14)">
       <use xlink:href="#CMR17-30" transform="scale(0.996264)"/>
       <use xlink:href="#CMMI12-3a" transform="translate(45.690477 0) scale(0.996264)"/>
       <use xlink:href="#CMR17-38" transform="translate(72.787654 0) scale(0.996264)"/>
      </g>
     </g>
    </g>
    <g id="ytick_6">
     <g id="line2d_23">
      <path d="M 58.883567 58.816762
L 519.59952 58.816762
" clip-path="url(#pcc29bf39c7)" style="fill: none; stroke: #eeeeee; stroke-width: 0.8; stroke-linecap: round"/>
     </g>
     <g id="line2d_24"/>
     <g id="text_13">
      <!-- $\mathdefault{1.0}$ -->
      <g style="fill: #262626" transform="translate(37.932985 63.6597) scale(0.14 -0.14)">
       <use xlink:href="#CMR17-31" transform="scale(0.996264)"/>
       <use xlink:href="#CMMI12-3a" transform="translate(45.690477 0) scale(0.996264)"/>
       <use xlink:href="#CMR17-30" transform="translate(72.787654 0) scale(0.996264)"/>
      </g>
     </g>
    </g>
    <g id="text_14">
     <!-- Proportion of edges -->
     <g style="fill: #262626" transform="translate(16.885876 228.896506) rotate(-90) scale(0.14 -0.14)">
      <defs>
       <path id="CMSS17-50" d="M 2106 1856
C 2874 1856 3501 2447 3501 3139
C 3501 3818 2899 4416 2067 4416
L 570 4416
L 570 0
L 1107 0
L 1107 1856
L 2106 1856
z
M 1926 4057
C 2669 4057 2995 3598 2995 3139
C 2995 2711 2694 2227 1926 2227
L 1094 2227
L 1094 4057
L 1926 4057
z
" transform="scale(0.015625)"/>
       <path id="CMSS17-72" d="M 954 1369
C 954 1974 1395 2379 1958 2392
L 1958 2816
C 1549 2809 1165 2604 934 2270
L 934 2783
L 480 2783
L 480 0
L 954 0
L 954 1369
z
" transform="scale(0.015625)"/>
       <path id="CMSS17-6f" d="M 2829 1356
C 2829 2175 2221 2816 1504 2816
C 768 2816 173 2156 173 1356
C 173 544 787 -64 1498 -64
C 2227 -64 2829 563 2829 1356
z
M 1504 339
C 1050 339 659 710 659 1407
C 659 2150 1114 2425 1498 2425
C 1914 2425 2342 2124 2342 1407
C 2342 684 1926 339 1504 339
z
" transform="scale(0.015625)"/>
       <path id="CMSS17-70" d="M 966 275
C 1178 70 1466 -64 1773 -64
C 2368 -64 2880 553 2880 1382
C 2880 2147 2496 2816 1946 2816
C 1626 2816 1242 2700 954 2470
L 954 2764
L 480 2764
L 480 -1280
L 966 -1280
L 966 275
z
M 966 2088
C 1018 2166 1235 2412 1587 2412
C 2035 2412 2394 1946 2394 1382
C 2394 741 1958 326 1530 326
C 1402 326 1267 358 1139 468
C 966 624 966 721 966 812
L 966 2088
z
" transform="scale(0.015625)"/>
       <path id="CMSS17-74" d="M 1069 2380
L 1901 2380
L 1901 2752
L 1069 2752
L 1069 3520
L 614 3520
L 614 2752
L 109 2752
L 109 2380
L 602 2380
L 602 751
C 602 384 685 -64 1107 -64
C 1427 -64 1722 25 2003 172
L 1901 551
C 1747 416 1562 339 1363 339
C 1082 339 1069 699 1069 860
L 1069 2380
z
" transform="scale(0.015625)"/>
       <path id="CMSS17-69" d="M 979 4224
L 442 4224
L 442 3686
L 979 3686
L 979 4224
z
M 947 2752
L 474 2752
L 474 0
L 947 0
L 947 2752
z
" transform="scale(0.015625)"/>
       <path id="CMSS17-6e" d="M 2618 1878
C 2618 2283 2522 2816 1798 2816
C 1389 2816 1120 2604 941 2386
L 941 2783
L 474 2783
L 474 0
L 960 0
L 960 1556
C 960 1962 1114 2425 1549 2425
C 2112 2425 2131 2045 2131 1826
L 2131 0
L 2618 0
L 2618 1878
z
" transform="scale(0.015625)"/>
       <path id="CMSS17-66" d="M 1075 2380
L 1722 2380
L 1722 2752
L 1062 2752
L 1062 3563
C 1062 4013 1408 4089 1606 4089
C 1670 4089 1850 4089 2080 4007
L 2080 4428
C 1933 4460 1754 4480 1613 4480
C 1018 4480 602 3994 602 3366
L 602 2752
L 160 2752
L 160 2380
L 602 2380
L 602 0
L 1075 0
L 1075 2380
z
" transform="scale(0.015625)"/>
       <path id="CMSS17-65" d="M 2502 1375
C 2502 1587 2490 2001 2285 2347
C 2061 2713 1696 2816 1421 2816
C 755 2816 192 2184 192 1363
C 192 579 774 -64 1510 -64
C 1798 -64 2150 19 2470 249
C 2470 275 2458 414 2451 421
C 2451 433 2432 629 2432 655
C 2125 408 1773 326 1517 326
C 1107 326 666 667 646 1375
L 2502 1375
z
M 698 1728
C 781 2086 1062 2425 1421 2425
C 1517 2425 1965 2412 2080 1728
L 698 1728
z
" transform="scale(0.015625)"/>
       <path id="CMSS17-64" d="M 2611 4416
L 2138 4416
L 2138 2495
C 1939 2662 1613 2816 1254 2816
C 672 2816 211 2179 211 1375
C 211 572 666 -64 1235 -64
C 1677 -64 1971 172 2125 307
L 2125 -13
L 2611 -13
L 2611 4416
z
M 2125 851
C 2125 760 2125 663 1926 488
C 1798 378 1645 326 1498 326
C 1152 326 698 585 698 1369
C 698 2185 1210 2425 1562 2425
C 1798 2425 1990 2308 2125 2114
L 2125 851
z
" transform="scale(0.015625)"/>
       <path id="CMSS17-67" d="M 2848 2816
C 2483 2809 2170 2739 1914 2617
C 1702 2783 1485 2816 1338 2816
C 781 2816 358 2356 358 1824
C 358 1481 550 1222 563 1209
C 448 1049 384 876 384 684
C 384 460 474 300 544 211
C 211 6 166 -308 166 -429
C 166 -896 749 -1280 1498 -1280
C 2253 -1280 2835 -896 2835 -423
C 2835 460 1856 467 1587 467
L 1069 467
C 973 467 717 467 717 793
C 717 921 774 1004 781 1011
C 877 940 1075 832 1338 832
C 1869 832 2310 1279 2310 1824
C 2310 2128 2170 2349 2112 2425
L 2131 2425
C 2150 2425 2419 2444 2515 2444
C 2720 2444 2739 2438 2918 2419
L 2848 2816
z
M 1338 1184
C 1120 1184 813 1317 813 1824
C 813 2375 1165 2463 1331 2463
C 1549 2463 1856 2330 1856 1824
C 1856 1272 1504 1184 1338 1184
z
M 1581 0
C 1734 0 2381 0 2381 -436
C 2381 -711 1984 -928 1504 -928
C 1018 -928 621 -717 621 -429
C 621 -397 621 0 1062 0
L 1581 0
z
" transform="scale(0.015625)"/>
       <path id="CMSS17-73" d="M 2061 2623
C 1683 2803 1389 2816 1197 2816
C 742 2816 198 2655 198 2009
C 198 1363 902 1222 1094 1183
C 1389 1126 1715 1062 1715 742
C 1715 339 1254 339 1171 339
C 915 339 563 409 243 639
L 166 211
C 531 0 883 -64 1178 -64
C 1965 -64 2163 416 2163 780
C 2163 1094 1984 1305 1862 1401
C 1651 1567 1574 1587 1050 1695
C 960 1708 646 1779 646 2067
C 646 2431 1050 2431 1139 2431
C 1555 2431 1811 2303 1984 2207
L 2061 2623
z
" transform="scale(0.015625)"/>
      </defs>
      <use xlink:href="#CMSS17-50" transform="scale(0.996264)"/>
      <use xlink:href="#CMSS17-72" transform="translate(59.735586 0) scale(0.996264)"/>
      <use xlink:href="#CMSS17-6f" transform="translate(91.645359 0) scale(0.996264)"/>
      <use xlink:href="#CMSS17-70" transform="translate(138.488982 0) scale(0.996264)"/>
      <use xlink:href="#CMSS17-6f" transform="translate(189.296364 0) scale(0.996264)"/>
      <use xlink:href="#CMSS17-72" transform="translate(233.537534 0) scale(0.996264)"/>
      <use xlink:href="#CMSS17-74" transform="translate(265.447306 0) scale(0.996264)"/>
      <use xlink:href="#CMSS17-69" transform="translate(299.278873 0) scale(0.996264)"/>
      <use xlink:href="#CMSS17-6f" transform="translate(321.459596 0) scale(0.996264)"/>
      <use xlink:href="#CMSS17-6e" transform="translate(368.30322 0) scale(0.996264)"/>
      <use xlink:href="#CMSS17-6f" transform="translate(447.737276 0) scale(0.996264)"/>
      <use xlink:href="#CMSS17-66" transform="translate(494.580899 0) scale(0.996264)"/>
      <use xlink:href="#CMSS17-65" transform="translate(554.436671 0) scale(0.996264)"/>
      <use xlink:href="#CMSS17-64" transform="translate(596.075493 0) scale(0.996264)"/>
      <use xlink:href="#CMSS17-67" transform="translate(644.280436 0) scale(0.996264)"/>
      <use xlink:href="#CMSS17-65" transform="translate(691.124059 0) scale(0.996264)"/>
      <use xlink:href="#CMSS17-73" transform="translate(732.762881 0) scale(0.996264)"/>
     </g>
     <!--  -->
     <g style="fill: #262626" transform="translate(31.220957 172.934428) rotate(-90) scale(0.14 -0.14)"/>
    </g>
   </g>
   <g id="line2d_25">
    <path d="M 79.825201 287.052093
L 79.825201 285.814566
L 81.878303 285.814566
L 81.878303 285.726171
L 81.919365 285.107408
L 82.064948 285.107408
L 82.064948 285.019013
L 82.064948 283.869881
L 82.288923 283.869881
L 82.288923 283.781486
L 82.288923 283.604697
L 82.56267 283.604697
L 82.56267 283.516302
L 82.56267 283.251118
L 83.315474 283.251118
L 83.315474 283.162723
L 83.315474 283.074328
L 83.703282 283.074328
L 83.703282 282.985933
L 83.703282 282.809144
L 83.931404 282.809144
L 83.931404 282.720749
L 83.931404 282.543959
L 84.055834 282.543959
L 84.055834 282.455564
L 84.055834 281.483222
L 85.300138 281.483222
L 85.300138 281.394827
L 85.300138 281.306432
L 86.805746 281.306432
L 86.805746 281.218038
L 86.805746 280.1573
L 87.216366 280.1573
L 87.216366 280.068905
L 87.216366 279.715326
L 87.405883 279.715326
L 87.405883 279.626931
L 87.405883 279.273352
L 87.581362 279.273352
L 87.581362 279.184957
L 87.581362 278.831378
L 89.301054 278.831378
L 89.301054 278.742984
L 89.301054 278.477799
L 89.680088 278.477799
L 89.680088 278.389404
L 89.680088 278.212615
L 90.564501 278.212615
L 90.564501 278.12422
L 90.564501 276.975088
L 91.459442 276.975088
L 91.459442 276.886693
L 91.459442 275.91435
L 95.337523 275.825956
L 95.337523 275.737561
L 95.531427 275.737561
L 95.531427 275.649166
L 95.531427 274.146455
L 97.276563 274.146455
L 97.276563 274.05806
L 97.276563 273.704481
L 100.766835 273.704481
L 100.766835 273.616086
L 100.766835 272.378559
L 101.3038 272.378559
L 101.3038 272.290164
L 101.3038 271.671401
L 102.222671 271.671401
L 102.222671 271.583006
L 102.222671 270.522269
L 103.988625 270.433874
L 103.988625 269.019557
L 104.462418 269.019557
L 104.462418 268.931163
L 104.462418 268.312399
L 106.47819 268.312399
L 106.47819 268.224004
L 106.47819 263.362291
L 106.67345 263.362291
L 106.67345 263.273896
L 106.67345 263.008712
L 106.874812 263.008712
L 106.874812 262.920317
L 106.874812 256.821077
L 107.456524 256.821077
L 107.456524 256.732682
L 107.456524 254.787997
L 108.941912 254.787997
L 108.941912 254.699602
L 108.941912 253.904049
L 111.237653 253.815655
L 111.237653 253.020102
L 111.819365 253.020102
L 111.819365 252.931707
L 111.819365 252.666522
L 112.0431 252.578128
L 112.0431 252.578128
L 112.0431 252.312943
L 112.674824 252.312943
L 112.674824 252.224548
L 112.674824 251.782575
L 113.273645 251.782575
L 113.273645 251.69418
L 113.273645 250.103074
L 114.09333 250.103074
L 114.09333 250.014679
L 114.09333 248.511968
L 114.727925 248.511968
L 114.727925 248.423573
L 114.727925 248.158388
L 118.218197 248.158388
L 118.218197 248.069994
L 118.218197 247.62802
L 121.70847 247.62802
L 121.70847 247.539625
L 121.70847 247.009256
L 124.24685 247.009256
L 124.24685 246.920861
L 124.24685 245.683334
L 126.362166 245.683334
L 126.362166 245.59494
L 126.362166 245.241361
L 127.046533 245.241361
L 127.046533 245.152966
L 127.046533 242.412728
L 128.301206 242.412728
L 128.301206 242.324333
L 128.301206 239.584094
L 129.099635 239.584094
L 129.099635 239.4957
L 129.099635 238.523357
L 132.179287 238.434962
L 132.179287 236.932251
L 133.205837 236.932251
L 133.205837 236.843856
L 133.205837 234.899171
L 133.342711 234.899171
L 133.342711 234.810776
L 133.342711 231.805353
L 137.996407 231.805353
L 137.996407 231.716959
L 137.996407 230.302642
L 138.403199 230.302642
L 138.403199 230.214247
L 138.403199 224.556981
L 140.904968 224.556981
L 140.904968 224.468586
L 140.904968 221.816743
L 141.874488 221.816743
L 141.874488 221.728348
L 141.874488 219.606873
L 145.524446 219.606873
L 145.524446 219.518479
L 145.524446 217.573793
L 151.217136 217.573793
L 151.217136 217.485399
L 151.217136 208.557525
L 153.120921 208.557525
L 153.120921 208.469131
L 153.120921 208.203946
L 153.736851 208.203946
L 153.736851 208.115551
L 153.736851 207.496788
L 153.993489 207.496788
L 153.993489 207.408393
L 153.993489 206.436051
L 155.447769 206.436051
L 155.447769 206.347656
L 155.447769 205.552103
L 161.26489 205.552103
L 161.26489 205.463708
L 161.26489 203.519023
L 174.267865 203.430628
L 174.267865 202.281496
L 175.014448 202.281496
L 175.014448 202.193101
L 175.014448 201.662732
L 183.240679 201.662732
L 183.240679 201.574337
L 183.240679 199.894837
L 184.533372 199.894837
L 184.533372 199.806442
L 184.533372 198.65731
L 186.392097 198.65731
L 186.392097 198.568915
L 186.437157 193.618807
L 194.713333 193.618807
L 194.713333 193.530412
L 194.713333 179.652431
L 201.984734 179.652431
L 201.984734 179.564036
L 201.984734 178.591694
L 203.011285 178.591694
L 203.011285 178.503299
L 203.011285 171.078137
L 207.801855 171.078137
L 207.801855 170.989742
L 207.801855 169.929005
L 208.696796 169.84061
L 208.696796 169.84061
L 208.696796 169.663821
L 213.090146 169.663821
L 213.090146 169.575426
L 213.090146 167.80753
L 219.436096 167.80753
L 219.436096 167.719135
L 219.436096 166.746793
L 224.089793 166.746793
L 224.089793 166.658398
L 224.089793 163.74137
L 231.070337 163.74137
L 231.070337 163.652975
L 231.070337 162.769027
L 238.050882 162.769027
L 238.050882 162.680633
L 238.050882 160.028789
L 241.64692 160.028789
L 241.64692 159.940394
L 241.64692 156.051024
L 247.358275 156.051024
L 247.358275 155.962629
L 247.358275 152.338443
L 253.640765 152.338443
L 253.640765 152.250048
L 253.640765 137.664909
L 257.511795 137.664909
L 257.511795 137.576514
L 257.511795 134.924671
L 265.973061 134.924671
L 265.973061 134.836276
L 265.973061 131.919248
L 270.203694 131.919248
L 270.203694 131.830853
L 270.203694 130.151352
L 276.549644 130.151352
L 276.549644 130.062958
L 276.549644 121.842243
L 277.607302 121.842243
L 277.607302 121.753848
L 277.607302 119.01361
L 279.722619 119.01361
L 279.722619 118.925215
L 279.722619 117.776083
L 289.241543 117.776083
L 289.241543 117.687688
L 289.241543 112.295606
L 299.712361 112.295606
L 299.712361 112.207211
L 299.712361 109.466973
L 315.418586 109.466973
L 315.418586 109.378578
L 315.418586 108.67142
L 331.124812 108.67142
L 331.124812 108.583025
L 331.124812 105.135629
L 338.687069 105.135629
L 338.687069 105.047234
L 338.687069 97.268493
L 356.739373 97.268493
L 356.739373 97.180098
L 356.739373 90.19691
L 359.046991 90.19691
L 359.046991 90.108515
L 359.046991 87.014698
L 360.4431 87.014698
L 360.4431 86.926303
L 360.4431 81.092247
L 401.558267 81.092247
L 401.558267 81.003853
L 401.558267 61.468605
L 428.852438 61.468605
L 428.852438 61.380211
L 428.852438 58.816762
L 428.852438 58.816762
" clip-path="url(#pcc29bf39c7)" style="fill: none; stroke: #d11149; stroke-width: 1.5; stroke-linecap: round"/>
   </g>
   <g id="patch_3">
    <path d="M 58.883567 298.46386
L 58.883567 47.404995
" style="fill: none"/>
   </g>
   <g id="patch_4">
    <path d="M 519.59952 298.46386
L 519.59952 47.404995
" style="fill: none"/>
   </g>
   <g id="patch_5">
    <path d="M 58.883567 298.46386
L 519.59952 298.46386
" style="fill: none"/>
   </g>
   <g id="patch_6">
    <path d="M 58.883567 47.404995
L 519.59952 47.404995
" style="fill: none"/>
   </g>
   <g id="text_15">
    <!-- EDCF of edge weights (probabilities) -->
    <g style="fill: #262626" transform="translate(58.883567 16.166376) scale(0.12 -0.12)">
     <defs>
      <path id="CMSS17-45" d="M 1958 435
C 1446 435 1216 435 1101 428
L 1101 2105
L 3085 2105
L 3085 2496
L 1101 2496
L 1101 3993
L 1926 3993
C 2003 3993 2080 3987 2157 3987
L 3251 3987
L 3251 4403
L 563 4403
L 563 0
L 3334 0
L 3334 441
L 1958 435
z
" transform="scale(0.015625)"/>
      <path id="CMSS17-44" d="M 570 4416
L 570 0
L 2144 0
C 3194 0 4000 981 4000 2169
C 4000 3396 3194 4416 2144 4416
L 570 4416
z
M 1094 358
L 1094 4057
L 2003 4057
C 2861 4057 3475 3275 3475 2169
C 3475 1108 2867 358 2003 358
L 1094 358
z
" transform="scale(0.015625)"/>
      <path id="CMSS17-43" d="M 3501 705
C 3072 416 2874 332 2355 332
C 1459 332 934 1304 934 2191
C 934 3137 1472 4070 2381 4070
C 2790 4070 3059 3954 3386 3748
L 3475 4255
C 3168 4409 2778 4480 2387 4480
C 1158 4480 397 3343 397 2191
C 397 924 1299 -77 2323 -77
C 2874 -77 3066 -32 3539 268
L 3501 705
z
" transform="scale(0.015625)"/>
      <path id="CMSS17-46" d="M 2918 1984
L 2918 2374
L 1101 2374
L 1101 3993
L 1882 3993
C 1958 3993 2035 3987 2112 3987
L 3168 3987
L 3168 4403
L 563 4403
L 563 0
L 1101 0
L 1101 1984
L 2918 1984
z
" transform="scale(0.015625)"/>
      <path id="CMSS17-77" d="M 4013 2752
L 3526 2752
L 3187 1600
C 3117 1356 2918 684 2893 371
L 2886 371
C 2874 563 2765 1024 2586 1632
L 2259 2752
L 1818 2752
L 1498 1657
C 1338 1100 1216 627 1203 371
L 1197 371
C 1171 748 909 1632 870 1772
L 582 2752
L 83 2752
L 915 0
L 1402 0
C 1734 1100 1990 1952 2010 2380
C 2022 2169 2131 1715 2195 1491
L 2618 0
L 3181 0
L 4013 2752
z
" transform="scale(0.015625)"/>
      <path id="CMSS17-68" d="M 2618 1878
C 2618 2283 2522 2816 1798 2816
C 1395 2816 1133 2617 947 2399
L 947 4416
L 474 4416
L 474 0
L 960 0
L 960 1556
C 960 1962 1114 2425 1549 2425
C 2112 2425 2131 2045 2131 1826
L 2131 0
L 2618 0
L 2618 1878
z
" transform="scale(0.015625)"/>
      <path id="CMSS17-28" d="M 1613 4800
C 1267 4447 474 3627 474 1603
C 474 -428 1267 -1242 1613 -1600
L 2003 -1600
C 1216 -781 960 366 960 1596
C 960 2820 1203 3973 2003 4800
L 1613 4800
z
" transform="scale(0.015625)"/>
      <path id="CMSS17-62" d="M 954 4416
L 480 4416
L 480 -13
L 966 -13
L 966 275
C 1210 38 1504 -64 1766 -64
C 2381 -64 2880 559 2880 1382
C 2880 2133 2496 2816 1926 2816
C 1523 2816 1165 2649 954 2476
L 954 4416
z
M 966 2095
C 1107 2276 1306 2425 1587 2425
C 1965 2425 2394 2146 2394 1382
C 2394 566 1882 326 1530 326
C 1402 326 1267 358 1139 468
C 966 624 966 721 966 812
L 966 2095
z
" transform="scale(0.015625)"/>
      <path id="CMSS17-61" d="M 2406 1789
C 2406 2399 1978 2816 1402 2816
C 1120 2816 813 2764 461 2559
L 499 2133
C 659 2250 934 2438 1395 2438
C 1722 2438 1920 2185 1920 1782
L 1920 1536
C 896 1504 256 1209 256 711
C 256 452 416 -64 947 -64
C 1043 -64 1562 -52 1933 224
L 1933 -13
L 2406 -13
L 2406 1789
z
M 1920 824
C 1920 711 1920 559 1728 446
C 1562 339 1350 326 1261 326
C 941 326 723 503 723 723
C 723 1165 1722 1209 1920 1216
L 1920 824
z
" transform="scale(0.015625)"/>
      <path id="CMSS17-6c" d="M 947 4416
L 474 4416
L 474 0
L 947 0
L 947 4416
z
" transform="scale(0.015625)"/>
      <path id="CMSS17-29" d="M 723 -1600
C 1069 -1248 1862 -428 1862 1596
C 1862 3627 1069 4440 723 4800
L 333 4800
C 1120 3979 1376 2833 1376 1603
C 1376 379 1133 -774 333 -1600
L 723 -1600
z
" transform="scale(0.015625)"/>
     </defs>
     <use xlink:href="#CMSS17-45" transform="scale(0.996264)"/>
     <use xlink:href="#CMSS17-44" transform="translate(55.892013 0) scale(0.996264)"/>
     <use xlink:href="#CMSS17-43" transform="translate(123.434855 0) scale(0.996264)"/>
     <use xlink:href="#CMSS17-46" transform="translate(183.290626 0) scale(0.996264)"/>
     <use xlink:href="#CMSS17-6f" transform="translate(267.809299 0) scale(0.996264)"/>
     <use xlink:href="#CMSS17-66" transform="translate(314.652922 0) scale(0.996264)"/>
     <use xlink:href="#CMSS17-65" transform="translate(374.508694 0) scale(0.996264)"/>
     <use xlink:href="#CMSS17-64" transform="translate(416.147516 0) scale(0.996264)"/>
     <use xlink:href="#CMSS17-67" transform="translate(464.352459 0) scale(0.996264)"/>
     <use xlink:href="#CMSS17-65" transform="translate(511.196082 0) scale(0.996264)"/>
     <use xlink:href="#CMSS17-77" transform="translate(584.064017 0) scale(0.996264)"/>
     <use xlink:href="#CMSS17-65" transform="translate(645.281108 0) scale(0.996264)"/>
     <use xlink:href="#CMSS17-69" transform="translate(686.91993 0) scale(0.996264)"/>
     <use xlink:href="#CMSS17-67" transform="translate(709.100653 0) scale(0.996264)"/>
     <use xlink:href="#CMSS17-68" transform="translate(755.944277 0) scale(0.996264)"/>
     <use xlink:href="#CMSS17-74" transform="translate(804.14922 0) scale(0.996264)"/>
     <use xlink:href="#CMSS17-73" transform="translate(837.980787 0) scale(0.996264)"/>
     <use xlink:href="#CMSS17-28" transform="translate(905.123442 0) scale(0.996264)"/>
     <use xlink:href="#CMSS17-70" transform="translate(941.557356 0) scale(0.996264)"/>
     <use xlink:href="#CMSS17-72" transform="translate(987.159845 0) scale(0.996264)"/>
     <use xlink:href="#CMSS17-6f" transform="translate(1019.069617 0) scale(0.996264)"/>
     <use xlink:href="#CMSS17-62" transform="translate(1065.913241 0) scale(0.996264)"/>
     <use xlink:href="#CMSS17-61" transform="translate(1114.118184 0) scale(0.996264)"/>
     <use xlink:href="#CMSS17-62" transform="translate(1159.040105 0) scale(0.996264)"/>
     <use xlink:href="#CMSS17-69" transform="translate(1207.245048 0) scale(0.996264)"/>
     <use xlink:href="#CMSS17-6c" transform="translate(1229.425771 0) scale(0.996264)"/>
     <use xlink:href="#CMSS17-69" transform="translate(1251.606494 0) scale(0.996264)"/>
     <use xlink:href="#CMSS17-74" transform="translate(1273.787217 0) scale(0.996264)"/>
     <use xlink:href="#CMSS17-69" transform="translate(1307.618784 0) scale(0.996264)"/>
     <use xlink:href="#CMSS17-65" transform="translate(1329.799507 0) scale(0.996264)"/>
     <use xlink:href="#CMSS17-73" transform="translate(1371.438329 0) scale(0.996264)"/>
     <use xlink:href="#CMSS17-29" transform="translate(1407.351871 0) scale(0.996264)"/>
    </g>
    <!-- in the \textbf{simulated} communication network -->
    <g style="fill: #262626" transform="translate(58.883567 29.117784) scale(0.12 -0.12)">
     <defs>
      <path id="CMSSBX10-73" d="M 2534 914
C 2534 1277 2342 1503 2227 1607
C 1971 1840 1747 1879 1478 1931
C 1126 1995 870 2047 870 2300
C 870 2565 1082 2617 1331 2617
C 1760 2617 1990 2455 2157 2313
C 2221 2248 2234 2248 2259 2248
C 2323 2248 2336 2306 2342 2332
C 2355 2384 2419 2745 2419 2777
C 2419 2879 2080 2969 2010 2995
C 1754 3065 1549 3072 1382 3072
C 1094 3072 237 3072 237 2151
C 237 1833 378 1639 550 1484
C 774 1277 1024 1231 1389 1160
C 1574 1128 1901 1069 1901 784
C 1901 480 1651 435 1402 435
C 1120 435 762 519 461 882
C 429 914 410 933 371 933
C 307 933 294 875 288 836
C 275 746 198 377 198 313
C 198 198 672 51 678 44
C 1030 -64 1293 -64 1402 -64
C 1728 -64 2534 -39 2534 914
z
" transform="scale(0.015625)"/>
      <path id="CMSSBX10-69" d="M 653 4480
C 448 4480 346 4441 346 4185
L 346 3891
C 346 3686 410 3603 646 3603
L 979 3603
C 1286 3603 1286 3737 1286 4038
C 1286 4345 1286 4480 979 4480
L 653 4480
z
M 1242 2635
C 1242 2841 1197 2944 934 2944
L 698 2944
C 467 2944 390 2873 390 2635
L 390 308
C 390 76 461 0 698 0
L 934 0
C 1178 0 1242 83 1242 308
L 1242 2635
z
" transform="scale(0.015625)"/>
      <path id="CMSSBX10-6d" d="M 5158 2059
C 5158 2713 4877 2976 4224 2976
C 3770 2976 3418 2764 3187 2344
C 3085 2956 2541 2976 2272 2976
C 2150 2976 1882 2976 1594 2764
C 1395 2617 1267 2413 1222 2318
L 1216 2318
L 1216 2636
C 1216 2841 1171 2944 909 2944
L 691 2944
C 461 2944 384 2873 384 2636
L 384 305
C 384 76 454 0 691 0
L 947 0
C 1190 0 1254 83 1254 305
L 1254 1704
C 1254 2274 1645 2515 1958 2515
C 2266 2515 2336 2382 2336 2046
L 2336 305
C 2336 76 2406 0 2643 0
L 2899 0
C 3142 0 3206 83 3206 305
L 3206 1704
C 3206 2274 3597 2515 3910 2515
C 4218 2515 4288 2382 4288 2046
L 4288 305
C 4288 76 4358 0 4595 0
L 4851 0
C 5094 0 5158 83 5158 305
L 5158 2059
z
" transform="scale(0.015625)"/>
      <path id="CMSSBX10-75" d="M 3200 2636
C 3200 2841 3155 2944 2893 2944
L 2637 2944
C 2394 2944 2330 2860 2330 2636
L 2330 1115
C 2330 692 2106 326 1651 326
C 1293 326 1254 416 1254 756
L 1254 2636
C 1254 2841 1210 2944 947 2944
L 691 2944
C 461 2944 384 2873 384 2636
L 384 814
C 384 128 755 -64 1421 -64
C 1594 -64 2048 -64 2349 480
L 2349 313
C 2349 108 2394 6 2656 6
L 2893 6
C 3136 6 3200 89 3200 313
L 3200 2636
z
" transform="scale(0.015625)"/>
      <path id="CMSSBX10-6c" d="M 1242 4109
C 1242 4313 1197 4416 934 4416
L 698 4416
C 467 4416 390 4345 390 4109
L 390 306
C 390 76 461 0 698 0
L 934 0
C 1178 0 1242 83 1242 306
L 1242 4109
z
" transform="scale(0.015625)"/>
      <path id="CMSSBX10-61" d="M 2970 2047
C 2970 3065 1997 3072 1677 3072
C 1376 3072 1056 3046 627 2867
C 493 2809 461 2790 461 2719
C 461 2675 499 2300 506 2248
C 512 2209 544 2177 589 2177
C 621 2177 640 2196 659 2215
C 934 2507 1254 2649 1651 2649
C 1997 2649 2099 2436 2099 2054
L 2099 1827
C 1875 1827 198 1814 198 862
C 198 409 557 -64 1120 -64
C 1338 -64 1818 0 2118 442
L 2118 313
C 2118 108 2163 6 2426 6
L 2662 6
C 2906 6 2970 89 2970 313
L 2970 2047
z
M 2099 998
C 2099 396 1491 396 1472 396
C 1203 396 1030 629 1030 875
C 1030 1510 1920 1555 2099 1562
L 2099 998
z
" transform="scale(0.015625)"/>
      <path id="CMSSBX10-74" d="M 1395 2483
L 1965 2483
C 2042 2483 2272 2483 2272 2713
C 2272 2944 2042 2944 1965 2944
L 1395 2944
L 1395 3470
C 1395 3673 1350 3776 1088 3776
L 890 3776
C 659 3776 582 3705 582 3470
L 582 2944
L 435 2944
C 365 2944 128 2944 128 2713
C 128 2483 358 2483 435 2483
L 563 2483
L 563 858
C 563 211 794 -64 1235 -64
C 1293 -64 1574 -64 1907 38
C 2016 70 2387 185 2387 307
C 2387 326 2374 371 2336 505
C 2304 634 2291 672 2234 672
C 2202 672 2195 666 2157 627
C 2086 576 1914 435 1645 435
C 1491 435 1395 544 1395 968
L 1395 2483
z
" transform="scale(0.015625)"/>
      <path id="CMSSBX10-65" d="M 2758 1388
C 2906 1388 3066 1395 3066 1683
C 3066 2520 2682 3072 1728 3072
C 704 3072 198 2494 198 1510
C 198 448 806 -64 1811 -64
C 2054 -64 2419 -32 2842 179
C 2982 249 3027 268 3027 345
C 3027 390 3008 578 3002 630
C 2976 831 2970 837 2912 837
C 2886 837 2874 837 2803 772
C 2426 442 2042 396 1837 396
C 1114 396 1037 973 1018 1388
L 2758 1388
z
M 1024 1728
C 1043 2124 1171 2611 1728 2611
C 2240 2611 2336 2234 2355 1728
L 1024 1728
z
" transform="scale(0.015625)"/>
      <path id="CMSSBX10-64" d="M 3194 4113
C 3194 4313 3149 4416 2886 4416
L 2650 4416
C 2406 4416 2342 4332 2342 4113
L 2342 2687
C 2054 2963 1734 3008 1536 3008
C 237 3008 237 1779 237 1465
C 237 1171 237 -64 1504 -64
C 1773 -64 2048 12 2323 307
C 2323 70 2413 6 2630 6
L 2886 6
C 3130 6 3194 89 3194 313
L 3194 4113
z
M 2323 806
C 2323 697 2323 640 2138 512
C 1978 409 1830 396 1754 396
C 1107 396 1107 985 1107 1465
C 1107 1945 1107 2547 1824 2547
C 2010 2547 2182 2483 2323 2348
L 2323 806
z
" transform="scale(0.015625)"/>
      <path id="CMSS17-63" d="M 2464 2540
C 2464 2585 2170 2713 2093 2739
C 1882 2816 1613 2816 1542 2816
C 710 2816 211 2092 211 1363
C 211 595 768 -64 1517 -64
C 1946 -64 2253 76 2502 243
L 2464 665
C 2189 454 1869 339 1523 339
C 1024 339 698 774 698 1369
C 698 1830 909 2412 1549 2412
C 1901 2412 2099 2342 2394 2143
L 2464 2540
z
" transform="scale(0.015625)"/>
      <path id="CMSS17-6d" d="M 4288 1878
C 4288 2309 4179 2816 3462 2816
C 2982 2816 2694 2515 2566 2328
C 2451 2668 2182 2816 1798 2816
C 1363 2816 1088 2566 941 2386
L 941 2783
L 474 2783
L 474 0
L 960 0
L 960 1556
C 960 1936 1101 2425 1555 2425
C 2138 2425 2138 2013 2138 1826
L 2138 0
L 2624 0
L 2624 1556
C 2624 1936 2765 2425 3219 2425
C 3802 2425 3802 2013 3802 1826
L 3802 0
L 4288 0
L 4288 1878
z
" transform="scale(0.015625)"/>
      <path id="CMSS17-75" d="M 2618 2752
L 2131 2752
L 2131 976
C 2131 500 1786 307 1421 307
C 998 307 960 448 960 712
L 960 2752
L 474 2752
L 474 680
C 474 179 646 -64 1088 -64
C 1306 -64 1798 -13 2144 307
L 2144 -13
L 2618 -13
L 2618 2752
z
" transform="scale(0.015625)"/>
      <path id="CMSS17-6b" d="M 1696 1686
L 2688 2735
L 2074 2735
L 954 1552
L 954 4416
L 480 4416
L 480 0
L 947 0
L 947 891
L 1376 1342
L 2278 0
L 2822 0
L 1696 1686
z
" transform="scale(0.015625)"/>
     </defs>
     <use xlink:href="#CMSS17-69" transform="scale(0.996264)"/>
     <use xlink:href="#CMSS17-6e" transform="translate(22.180723 0) scale(0.996264)"/>
     <use xlink:href="#CMSS17-74" transform="translate(101.614779 0) scale(0.996264)"/>
     <use xlink:href="#CMSS17-68" transform="translate(135.446346 0) scale(0.996264)"/>
     <use xlink:href="#CMSS17-65" transform="translate(183.651289 0) scale(0.996264)"/>
     <use xlink:href="#CMSSBX10-73" transform="translate(256.519224 0) scale(0.996264)"/>
     <use xlink:href="#CMSSBX10-69" transform="translate(298.528589 0) scale(0.996264)"/>
     <use xlink:href="#CMSSBX10-6d" transform="translate(323.988808 0) scale(0.996264)"/>
     <use xlink:href="#CMSSBX10-75" transform="translate(410.332165 0) scale(0.996264)"/>
     <use xlink:href="#CMSSBX10-6c" transform="translate(466.233953 0) scale(0.996264)"/>
     <use xlink:href="#CMSSBX10-61" transform="translate(491.694172 0) scale(0.996264)"/>
     <use xlink:href="#CMSSBX10-74" transform="translate(543.998367 0) scale(0.996264)"/>
     <use xlink:href="#CMSSBX10-65" transform="translate(584.26427 0) scale(0.996264)"/>
     <use xlink:href="#CMSSBX10-64" transform="translate(635.184723 0) scale(0.996264)"/>
     <use xlink:href="#CMSS17-63" transform="translate(722.315624 0) scale(0.996264)"/>
     <use xlink:href="#CMSS17-6f" transform="translate(763.954446 0) scale(0.996264)"/>
     <use xlink:href="#CMSS17-6d" transform="translate(810.798069 0) scale(0.996264)"/>
     <use xlink:href="#CMSS17-6d" transform="translate(885.027324 0) scale(0.996264)"/>
     <use xlink:href="#CMSS17-75" transform="translate(959.256578 0) scale(0.996264)"/>
     <use xlink:href="#CMSS17-6e" transform="translate(1007.461521 0) scale(0.996264)"/>
     <use xlink:href="#CMSS17-69" transform="translate(1055.666464 0) scale(0.996264)"/>
     <use xlink:href="#CMSS17-63" transform="translate(1077.847187 0) scale(0.996264)"/>
     <use xlink:href="#CMSS17-61" transform="translate(1119.486009 0) scale(0.996264)"/>
     <use xlink:href="#CMSS17-74" transform="translate(1164.40793 0) scale(0.996264)"/>
     <use xlink:href="#CMSS17-69" transform="translate(1198.239497 0) scale(0.996264)"/>
     <use xlink:href="#CMSS17-6f" transform="translate(1220.42022 0) scale(0.996264)"/>
     <use xlink:href="#CMSS17-6e" transform="translate(1267.263843 0) scale(0.996264)"/>
     <use xlink:href="#CMSS17-6e" transform="translate(1346.697899 0) scale(0.996264)"/>
     <use xlink:href="#CMSS17-65" transform="translate(1394.902842 0) scale(0.996264)"/>
     <use xlink:href="#CMSS17-74" transform="translate(1436.541664 0) scale(0.996264)"/>
     <use xlink:href="#CMSS17-77" transform="translate(1467.770777 0) scale(0.996264)"/>
     <use xlink:href="#CMSS17-6f" transform="translate(1528.987868 0) scale(0.996264)"/>
     <use xlink:href="#CMSS17-72" transform="translate(1573.229038 0) scale(0.996264)"/>
     <use xlink:href="#CMSS17-6b" transform="translate(1605.138811 0) scale(0.996264)"/>
    </g>
    <!--  -->
    <g style="fill: #262626" transform="translate(58.883567 41.404995) scale(0.12 -0.12)"/>
   </g>
  </g>
 </g>
 <defs>
  <clipPath id="pcc29bf39c7">
   <rect x="58.883567" y="47.404995" width="460.715953" height="251.058864"/>
  </clipPath>
 </defs>
</svg>
