<?xml version="1.0" encoding="utf-8" standalone="no"?>
<!DOCTYPE svg PUBLIC "-//W3C//DTD SVG 1.1//EN"
  "http://www.w3.org/Graphics/SVG/1.1/DTD/svg11.dtd">
<svg xmlns:xlink="http://www.w3.org/1999/xlink" width="584.39952pt" height="584.39952pt" viewBox="0 0 584.39952 584.39952" xmlns="http://www.w3.org/2000/svg" version="1.1">
 <metadata>
  <rdf:RDF xmlns:dc="http://purl.org/dc/elements/1.1/" xmlns:cc="http://creativecommons.org/ns#" xmlns:rdf="http://www.w3.org/1999/02/22-rdf-syntax-ns#">
   <cc:Work>
    <dc:type rdf:resource="http://purl.org/dc/dcmitype/StillImage"/>
    <dc:date>2024-08-17T18:11:32.235511</dc:date>
    <dc:format>image/svg+xml</dc:format>
    <dc:creator>
     <cc:Agent>
      <dc:title>Matplotlib v3.9.1, https://matplotlib.org/</dc:title>
     </cc:Agent>
    </dc:creator>
   </cc:Work>
  </rdf:RDF>
 </metadata>
 <defs>
  <style type="text/css">*{stroke-linejoin: round; stroke-linecap: butt}</style>
 </defs>
 <g id="figure_1">
  <g id="patch_1">
   <path d="M 0 584.39952 
L 584.39952 584.39952 
L 584.39952 0 
L 0 0 
z
" style="fill: #ffffff"/>
  </g>
  <g id="axes_1">
   <g id="patch_2">
    <path d="M 57.795938 181.566547 
L 577.19952 181.566547 
L 577.19952 7.2 
L 57.795938 7.2 
z
" style="fill: #ffffff"/>
   </g>
   <g id="matplotlib.axis_1">
    <g id="xtick_1">
     <g id="line2d_1">
      <path d="M 81.405191 181.566547 
L 81.405191 7.2 
" clip-path="url(#pea9caa6cae)" style="fill: none; stroke: #eeeeee; stroke-width: 0.8; stroke-linecap: round"/>
     </g>
     <g id="line2d_2"/>
    </g>
    <g id="xtick_2">
     <g id="line2d_3">
      <path d="M 140.724924 181.566547 
L 140.724924 7.2 
" clip-path="url(#pea9caa6cae)" style="fill: none; stroke: #eeeeee; stroke-width: 0.8; stroke-linecap: round"/>
     </g>
     <g id="line2d_4"/>
    </g>
    <g id="xtick_3">
     <g id="line2d_5">
      <path d="M 200.044657 181.566547 
L 200.044657 7.2 
" clip-path="url(#pea9caa6cae)" style="fill: none; stroke: #eeeeee; stroke-width: 0.8; stroke-linecap: round"/>
     </g>
     <g id="line2d_6"/>
    </g>
    <g id="xtick_4">
     <g id="line2d_7">
      <path d="M 259.36439 181.566547 
L 259.36439 7.2 
" clip-path="url(#pea9caa6cae)" style="fill: none; stroke: #eeeeee; stroke-width: 0.8; stroke-linecap: round"/>
     </g>
     <g id="line2d_8"/>
    </g>
    <g id="xtick_5">
     <g id="line2d_9">
      <path d="M 318.684123 181.566547 
L 318.684123 7.2 
" clip-path="url(#pea9caa6cae)" style="fill: none; stroke: #eeeeee; stroke-width: 0.8; stroke-linecap: round"/>
     </g>
     <g id="line2d_10"/>
    </g>
    <g id="xtick_6">
     <g id="line2d_11">
      <path d="M 378.003856 181.566547 
L 378.003856 7.2 
" clip-path="url(#pea9caa6cae)" style="fill: none; stroke: #eeeeee; stroke-width: 0.8; stroke-linecap: round"/>
     </g>
     <g id="line2d_12"/>
    </g>
    <g id="xtick_7">
     <g id="line2d_13">
      <path d="M 437.323589 181.566547 
L 437.323589 7.2 
" clip-path="url(#pea9caa6cae)" style="fill: none; stroke: #eeeeee; stroke-width: 0.8; stroke-linecap: round"/>
     </g>
     <g id="line2d_14"/>
    </g>
    <g id="xtick_8">
     <g id="line2d_15">
      <path d="M 496.643323 181.566547 
L 496.643323 7.2 
" clip-path="url(#pea9caa6cae)" style="fill: none; stroke: #eeeeee; stroke-width: 0.8; stroke-linecap: round"/>
     </g>
     <g id="line2d_16"/>
    </g>
    <g id="xtick_9">
     <g id="line2d_17">
      <path d="M 555.963056 181.566547 
L 555.963056 7.2 
" clip-path="url(#pea9caa6cae)" style="fill: none; stroke: #eeeeee; stroke-width: 0.8; stroke-linecap: round"/>
     </g>
     <g id="line2d_18"/>
    </g>
   </g>
   <g id="matplotlib.axis_2">
    <g id="ytick_1">
     <g id="line2d_19">
      <path d="M 57.795938 128.350783 
L 577.19952 128.350783 
" clip-path="url(#pea9caa6cae)" style="fill: none; stroke: #eeeeee; stroke-width: 0.8; stroke-linecap: round"/>
     </g>
     <g id="line2d_20"/>
     <g id="text_1">
      <!-- −10 -->
      <g style="fill: #262626" transform="translate(24.749375 133.669689) scale(0.14 -0.14)">
       <defs>
        <path id="DejaVuSans-2212" d="M 678 2272 
L 4684 2272 
L 4684 1741 
L 678 1741 
L 678 2272 
z
" transform="scale(0.015625)"/>
        <path id="DejaVuSans-31" d="M 794 531 
L 1825 531 
L 1825 4091 
L 703 3866 
L 703 4441 
L 1819 4666 
L 2450 4666 
L 2450 531 
L 3481 531 
L 3481 0 
L 794 0 
L 794 531 
z
" transform="scale(0.015625)"/>
        <path id="DejaVuSans-30" d="M 2034 4250 
Q 1547 4250 1301 3770 
Q 1056 3291 1056 2328 
Q 1056 1369 1301 889 
Q 1547 409 2034 409 
Q 2525 409 2770 889 
Q 3016 1369 3016 2328 
Q 3016 3291 2770 3770 
Q 2525 4250 2034 4250 
z
M 2034 4750 
Q 2819 4750 3233 4129 
Q 3647 3509 3647 2328 
Q 3647 1150 3233 529 
Q 2819 -91 2034 -91 
Q 1250 -91 836 529 
Q 422 1150 422 2328 
Q 422 3509 836 4129 
Q 1250 4750 2034 4750 
z
" transform="scale(0.015625)"/>
       </defs>
       <use xlink:href="#DejaVuSans-2212"/>
       <use xlink:href="#DejaVuSans-31" x="83.789062"/>
       <use xlink:href="#DejaVuSans-30" x="147.412109"/>
      </g>
     </g>
    </g>
    <g id="ytick_2">
     <g id="line2d_21">
      <path d="M 57.795938 71.738267 
L 577.19952 71.738267 
" clip-path="url(#pea9caa6cae)" style="fill: none; stroke: #eeeeee; stroke-width: 0.8; stroke-linecap: round"/>
     </g>
     <g id="line2d_22"/>
     <g id="text_2">
      <!-- −5 -->
      <g style="fill: #262626" transform="translate(33.656875 77.057174) scale(0.14 -0.14)">
       <defs>
        <path id="DejaVuSans-35" d="M 691 4666 
L 3169 4666 
L 3169 4134 
L 1269 4134 
L 1269 2991 
Q 1406 3038 1543 3061 
Q 1681 3084 1819 3084 
Q 2600 3084 3056 2656 
Q 3513 2228 3513 1497 
Q 3513 744 3044 326 
Q 2575 -91 1722 -91 
Q 1428 -91 1123 -41 
Q 819 9 494 109 
L 494 744 
Q 775 591 1075 516 
Q 1375 441 1709 441 
Q 2250 441 2565 725 
Q 2881 1009 2881 1497 
Q 2881 1984 2565 2268 
Q 2250 2553 1709 2553 
Q 1456 2553 1204 2497 
Q 953 2441 691 2322 
L 691 4666 
z
" transform="scale(0.015625)"/>
       </defs>
       <use xlink:href="#DejaVuSans-2212"/>
       <use xlink:href="#DejaVuSans-35" x="83.789062"/>
      </g>
     </g>
    </g>
    <g id="ytick_3">
     <g id="line2d_23">
      <path d="M 57.795938 15.125752 
L 577.19952 15.125752 
" clip-path="url(#pea9caa6cae)" style="fill: none; stroke: #eeeeee; stroke-width: 0.8; stroke-linecap: round"/>
     </g>
     <g id="line2d_24"/>
     <g id="text_3">
      <!-- 0 -->
      <g style="fill: #262626" transform="translate(45.388438 20.444658) scale(0.14 -0.14)">
       <use xlink:href="#DejaVuSans-30"/>
      </g>
     </g>
    </g>
    <g id="text_4">
     <!-- Susceptible -->
     <g style="fill: #262626" transform="translate(17.837813 134.89468) rotate(-90) scale(0.14 -0.14)">
      <defs>
       <path id="DejaVuSans-53" d="M 3425 4513 
L 3425 3897 
Q 3066 4069 2747 4153 
Q 2428 4238 2131 4238 
Q 1616 4238 1336 4038 
Q 1056 3838 1056 3469 
Q 1056 3159 1242 3001 
Q 1428 2844 1947 2747 
L 2328 2669 
Q 3034 2534 3370 2195 
Q 3706 1856 3706 1288 
Q 3706 609 3251 259 
Q 2797 -91 1919 -91 
Q 1588 -91 1214 -16 
Q 841 59 441 206 
L 441 856 
Q 825 641 1194 531 
Q 1563 422 1919 422 
Q 2459 422 2753 634 
Q 3047 847 3047 1241 
Q 3047 1584 2836 1778 
Q 2625 1972 2144 2069 
L 1759 2144 
Q 1053 2284 737 2584 
Q 422 2884 422 3419 
Q 422 4038 858 4394 
Q 1294 4750 2059 4750 
Q 2388 4750 2728 4690 
Q 3069 4631 3425 4513 
z
" transform="scale(0.015625)"/>
       <path id="DejaVuSans-75" d="M 544 1381 
L 544 3500 
L 1119 3500 
L 1119 1403 
Q 1119 906 1312 657 
Q 1506 409 1894 409 
Q 2359 409 2629 706 
Q 2900 1003 2900 1516 
L 2900 3500 
L 3475 3500 
L 3475 0 
L 2900 0 
L 2900 538 
Q 2691 219 2414 64 
Q 2138 -91 1772 -91 
Q 1169 -91 856 284 
Q 544 659 544 1381 
z
M 1991 3584 
L 1991 3584 
z
" transform="scale(0.015625)"/>
       <path id="DejaVuSans-73" d="M 2834 3397 
L 2834 2853 
Q 2591 2978 2328 3040 
Q 2066 3103 1784 3103 
Q 1356 3103 1142 2972 
Q 928 2841 928 2578 
Q 928 2378 1081 2264 
Q 1234 2150 1697 2047 
L 1894 2003 
Q 2506 1872 2764 1633 
Q 3022 1394 3022 966 
Q 3022 478 2636 193 
Q 2250 -91 1575 -91 
Q 1294 -91 989 -36 
Q 684 19 347 128 
L 347 722 
Q 666 556 975 473 
Q 1284 391 1588 391 
Q 1994 391 2212 530 
Q 2431 669 2431 922 
Q 2431 1156 2273 1281 
Q 2116 1406 1581 1522 
L 1381 1569 
Q 847 1681 609 1914 
Q 372 2147 372 2553 
Q 372 3047 722 3315 
Q 1072 3584 1716 3584 
Q 2034 3584 2315 3537 
Q 2597 3491 2834 3397 
z
" transform="scale(0.015625)"/>
       <path id="DejaVuSans-63" d="M 3122 3366 
L 3122 2828 
Q 2878 2963 2633 3030 
Q 2388 3097 2138 3097 
Q 1578 3097 1268 2742 
Q 959 2388 959 1747 
Q 959 1106 1268 751 
Q 1578 397 2138 397 
Q 2388 397 2633 464 
Q 2878 531 3122 666 
L 3122 134 
Q 2881 22 2623 -34 
Q 2366 -91 2075 -91 
Q 1284 -91 818 406 
Q 353 903 353 1747 
Q 353 2603 823 3093 
Q 1294 3584 2113 3584 
Q 2378 3584 2631 3529 
Q 2884 3475 3122 3366 
z
" transform="scale(0.015625)"/>
       <path id="DejaVuSans-65" d="M 3597 1894 
L 3597 1613 
L 953 1613 
Q 991 1019 1311 708 
Q 1631 397 2203 397 
Q 2534 397 2845 478 
Q 3156 559 3463 722 
L 3463 178 
Q 3153 47 2828 -22 
Q 2503 -91 2169 -91 
Q 1331 -91 842 396 
Q 353 884 353 1716 
Q 353 2575 817 3079 
Q 1281 3584 2069 3584 
Q 2775 3584 3186 3129 
Q 3597 2675 3597 1894 
z
M 3022 2063 
Q 3016 2534 2758 2815 
Q 2500 3097 2075 3097 
Q 1594 3097 1305 2825 
Q 1016 2553 972 2059 
L 3022 2063 
z
" transform="scale(0.015625)"/>
       <path id="DejaVuSans-70" d="M 1159 525 
L 1159 -1331 
L 581 -1331 
L 581 3500 
L 1159 3500 
L 1159 2969 
Q 1341 3281 1617 3432 
Q 1894 3584 2278 3584 
Q 2916 3584 3314 3078 
Q 3713 2572 3713 1747 
Q 3713 922 3314 415 
Q 2916 -91 2278 -91 
Q 1894 -91 1617 61 
Q 1341 213 1159 525 
z
M 3116 1747 
Q 3116 2381 2855 2742 
Q 2594 3103 2138 3103 
Q 1681 3103 1420 2742 
Q 1159 2381 1159 1747 
Q 1159 1113 1420 752 
Q 1681 391 2138 391 
Q 2594 391 2855 752 
Q 3116 1113 3116 1747 
z
" transform="scale(0.015625)"/>
       <path id="DejaVuSans-74" d="M 1172 4494 
L 1172 3500 
L 2356 3500 
L 2356 3053 
L 1172 3053 
L 1172 1153 
Q 1172 725 1289 603 
Q 1406 481 1766 481 
L 2356 481 
L 2356 0 
L 1766 0 
Q 1100 0 847 248 
Q 594 497 594 1153 
L 594 3053 
L 172 3053 
L 172 3500 
L 594 3500 
L 594 4494 
L 1172 4494 
z
" transform="scale(0.015625)"/>
       <path id="DejaVuSans-69" d="M 603 3500 
L 1178 3500 
L 1178 0 
L 603 0 
L 603 3500 
z
M 603 4863 
L 1178 4863 
L 1178 4134 
L 603 4134 
L 603 4863 
z
" transform="scale(0.015625)"/>
       <path id="DejaVuSans-62" d="M 3116 1747 
Q 3116 2381 2855 2742 
Q 2594 3103 2138 3103 
Q 1681 3103 1420 2742 
Q 1159 2381 1159 1747 
Q 1159 1113 1420 752 
Q 1681 391 2138 391 
Q 2594 391 2855 752 
Q 3116 1113 3116 1747 
z
M 1159 2969 
Q 1341 3281 1617 3432 
Q 1894 3584 2278 3584 
Q 2916 3584 3314 3078 
Q 3713 2572 3713 1747 
Q 3713 922 3314 415 
Q 2916 -91 2278 -91 
Q 1894 -91 1617 61 
Q 1341 213 1159 525 
L 1159 0 
L 581 0 
L 581 4863 
L 1159 4863 
L 1159 2969 
z
" transform="scale(0.015625)"/>
       <path id="DejaVuSans-6c" d="M 603 4863 
L 1178 4863 
L 1178 0 
L 603 0 
L 603 4863 
z
" transform="scale(0.015625)"/>
      </defs>
      <use xlink:href="#DejaVuSans-53"/>
      <use xlink:href="#DejaVuSans-75" x="63.476562"/>
      <use xlink:href="#DejaVuSans-73" x="126.855469"/>
      <use xlink:href="#DejaVuSans-63" x="178.955078"/>
      <use xlink:href="#DejaVuSans-65" x="233.935547"/>
      <use xlink:href="#DejaVuSans-70" x="295.458984"/>
      <use xlink:href="#DejaVuSans-74" x="358.935547"/>
      <use xlink:href="#DejaVuSans-69" x="398.144531"/>
      <use xlink:href="#DejaVuSans-62" x="425.927734"/>
      <use xlink:href="#DejaVuSans-6c" x="489.404297"/>
      <use xlink:href="#DejaVuSans-65" x="517.1875"/>
     </g>
    </g>
   </g>
   <g id="PolyCollection_1"/>
   <g id="line2d_25">
    <path d="M 81.405191 15.125752 
L 83.777981 49.093261 
L 86.15077 71.738267 
L 88.523559 60.415764 
L 90.896349 71.738267 
L 93.269138 173.640795 
L 95.641927 94.383274 
L 98.014717 105.705777 
L 100.387506 105.705777 
L 102.760295 71.738267 
L 105.133084 117.02828 
L 109.878663 49.093261 
L 112.251452 71.738267 
L 114.624242 60.415764 
L 116.997031 83.060771 
L 119.36982 150.995789 
L 121.74261 94.383274 
L 124.115399 60.415764 
L 126.488188 71.738267 
L 128.860978 26.448255 
L 131.233767 60.415764 
L 133.606556 128.350783 
L 135.979346 173.640795 
L 138.352135 105.705777 
L 140.724924 139.673286 
L 143.097714 94.383274 
L 145.470503 128.350783 
L 147.843292 94.383274 
L 150.216082 26.448255 
L 152.588871 49.093261 
L 154.96166 94.383274 
L 157.33445 71.738267 
L 162.080028 71.738267 
L 164.452818 139.673286 
L 166.825607 60.415764 
L 169.198396 15.125752 
L 171.571185 83.060771 
L 173.943975 71.738267 
L 176.316764 37.770758 
L 178.689553 15.125752 
L 181.062343 60.415764 
L 183.435132 60.415764 
L 185.807921 15.125752 
L 188.180711 37.770758 
L 190.5535 15.125752 
L 192.926289 37.770758 
L 197.671868 15.125752 
L 200.044657 37.770758 
L 202.417447 15.125752 
L 204.790236 26.448255 
L 207.163025 26.448255 
L 209.535815 15.125752 
L 211.908604 15.125752 
L 216.654183 37.770758 
L 219.026972 15.125752 
L 226.14534 15.125752 
L 228.518129 37.770758 
L 230.890919 15.125752 
L 242.754865 15.125752 
L 245.127654 26.448255 
L 247.500444 15.125752 
L 261.73718 15.125752 
L 264.109969 26.448255 
L 266.482758 15.125752 
L 553.590266 15.125752 
L 553.590266 15.125752 
" clip-path="url(#pea9caa6cae)" style="fill: none; stroke: #808080; stroke-width: 1.5; stroke-linecap: round"/>
   </g>
   <g id="line2d_26">
    <path d="M 57.795938 15.125752 
L 577.19952 15.125752 
" clip-path="url(#pea9caa6cae)" style="fill: none; stroke: #dc143c; stroke-width: 1.5; stroke-linecap: round"/>
   </g>
   <g id="patch_3">
    <path d="M 57.795938 181.566547 
L 57.795938 7.2 
" style="fill: none"/>
   </g>
   <g id="patch_4">
    <path d="M 577.19952 181.566547 
L 577.19952 7.2 
" style="fill: none"/>
   </g>
   <g id="patch_5">
    <path d="M 57.795938 181.566547 
L 577.19952 181.566547 
" style="fill: none"/>
   </g>
   <g id="patch_6">
    <path d="M 57.795938 7.2 
L 577.19952 7.2 
" style="fill: none"/>
   </g>
  </g>
  <g id="axes_2">
   <g id="patch_7">
    <path d="M 57.795938 361.933574 
L 577.19952 361.933574 
L 577.19952 187.567027 
L 57.795938 187.567027 
z
" style="fill: #ffffff"/>
   </g>
   <g id="matplotlib.axis_3">
    <g id="xtick_10">
     <g id="line2d_27">
      <path d="M 81.405191 361.933574 
L 81.405191 187.567027 
" clip-path="url(#p37f3028f99)" style="fill: none; stroke: #eeeeee; stroke-width: 0.8; stroke-linecap: round"/>
     </g>
     <g id="line2d_28"/>
    </g>
    <g id="xtick_11">
     <g id="line2d_29">
      <path d="M 140.724924 361.933574 
L 140.724924 187.567027 
" clip-path="url(#p37f3028f99)" style="fill: none; stroke: #eeeeee; stroke-width: 0.8; stroke-linecap: round"/>
     </g>
     <g id="line2d_30"/>
    </g>
    <g id="xtick_12">
     <g id="line2d_31">
      <path d="M 200.044657 361.933574 
L 200.044657 187.567027 
" clip-path="url(#p37f3028f99)" style="fill: none; stroke: #eeeeee; stroke-width: 0.8; stroke-linecap: round"/>
     </g>
     <g id="line2d_32"/>
    </g>
    <g id="xtick_13">
     <g id="line2d_33">
      <path d="M 259.36439 361.933574 
L 259.36439 187.567027 
" clip-path="url(#p37f3028f99)" style="fill: none; stroke: #eeeeee; stroke-width: 0.8; stroke-linecap: round"/>
     </g>
     <g id="line2d_34"/>
    </g>
    <g id="xtick_14">
     <g id="line2d_35">
      <path d="M 318.684123 361.933574 
L 318.684123 187.567027 
" clip-path="url(#p37f3028f99)" style="fill: none; stroke: #eeeeee; stroke-width: 0.8; stroke-linecap: round"/>
     </g>
     <g id="line2d_36"/>
    </g>
    <g id="xtick_15">
     <g id="line2d_37">
      <path d="M 378.003856 361.933574 
L 378.003856 187.567027 
" clip-path="url(#p37f3028f99)" style="fill: none; stroke: #eeeeee; stroke-width: 0.8; stroke-linecap: round"/>
     </g>
     <g id="line2d_38"/>
    </g>
    <g id="xtick_16">
     <g id="line2d_39">
      <path d="M 437.323589 361.933574 
L 437.323589 187.567027 
" clip-path="url(#p37f3028f99)" style="fill: none; stroke: #eeeeee; stroke-width: 0.8; stroke-linecap: round"/>
     </g>
     <g id="line2d_40"/>
    </g>
    <g id="xtick_17">
     <g id="line2d_41">
      <path d="M 496.643323 361.933574 
L 496.643323 187.567027 
" clip-path="url(#p37f3028f99)" style="fill: none; stroke: #eeeeee; stroke-width: 0.8; stroke-linecap: round"/>
     </g>
     <g id="line2d_42"/>
    </g>
    <g id="xtick_18">
     <g id="line2d_43">
      <path d="M 555.963056 361.933574 
L 555.963056 187.567027 
" clip-path="url(#p37f3028f99)" style="fill: none; stroke: #eeeeee; stroke-width: 0.8; stroke-linecap: round"/>
     </g>
     <g id="line2d_44"/>
    </g>
   </g>
   <g id="matplotlib.axis_4">
    <g id="ytick_4">
     <g id="line2d_45">
      <path d="M 57.795938 354.007822 
L 577.19952 354.007822 
" clip-path="url(#p37f3028f99)" style="fill: none; stroke: #eeeeee; stroke-width: 0.8; stroke-linecap: round"/>
     </g>
     <g id="line2d_46"/>
     <g id="text_5">
      <!-- −5 -->
      <g style="fill: #262626" transform="translate(33.656875 359.326728) scale(0.14 -0.14)">
       <use xlink:href="#DejaVuSans-2212"/>
       <use xlink:href="#DejaVuSans-35" x="83.789062"/>
      </g>
     </g>
    </g>
    <g id="ytick_5">
     <g id="line2d_47">
      <path d="M 57.795938 312.293337 
L 577.19952 312.293337 
" clip-path="url(#p37f3028f99)" style="fill: none; stroke: #eeeeee; stroke-width: 0.8; stroke-linecap: round"/>
     </g>
     <g id="line2d_48"/>
     <g id="text_6">
      <!-- 0 -->
      <g style="fill: #262626" transform="translate(45.388438 317.612243) scale(0.14 -0.14)">
       <use xlink:href="#DejaVuSans-30"/>
      </g>
     </g>
    </g>
    <g id="ytick_6">
     <g id="line2d_49">
      <path d="M 57.795938 270.578852 
L 577.19952 270.578852 
" clip-path="url(#p37f3028f99)" style="fill: none; stroke: #eeeeee; stroke-width: 0.8; stroke-linecap: round"/>
     </g>
     <g id="line2d_50"/>
     <g id="text_7">
      <!-- 5 -->
      <g style="fill: #262626" transform="translate(45.388438 275.897758) scale(0.14 -0.14)">
       <use xlink:href="#DejaVuSans-35"/>
      </g>
     </g>
    </g>
    <g id="ytick_7">
     <g id="line2d_51">
      <path d="M 57.795938 228.864367 
L 577.19952 228.864367 
" clip-path="url(#p37f3028f99)" style="fill: none; stroke: #eeeeee; stroke-width: 0.8; stroke-linecap: round"/>
     </g>
     <g id="line2d_52"/>
     <g id="text_8">
      <!-- 10 -->
      <g style="fill: #262626" transform="translate(36.480938 234.183273) scale(0.14 -0.14)">
       <use xlink:href="#DejaVuSans-31"/>
       <use xlink:href="#DejaVuSans-30" x="63.623047"/>
      </g>
     </g>
    </g>
    <g id="text_9">
     <!-- Infected -->
     <g style="fill: #262626" transform="translate(26.745313 303.367176) rotate(-90) scale(0.14 -0.14)">
      <defs>
       <path id="DejaVuSans-49" d="M 628 4666 
L 1259 4666 
L 1259 0 
L 628 0 
L 628 4666 
z
" transform="scale(0.015625)"/>
       <path id="DejaVuSans-6e" d="M 3513 2113 
L 3513 0 
L 2938 0 
L 2938 2094 
Q 2938 2591 2744 2837 
Q 2550 3084 2163 3084 
Q 1697 3084 1428 2787 
Q 1159 2491 1159 1978 
L 1159 0 
L 581 0 
L 581 3500 
L 1159 3500 
L 1159 2956 
Q 1366 3272 1645 3428 
Q 1925 3584 2291 3584 
Q 2894 3584 3203 3211 
Q 3513 2838 3513 2113 
z
" transform="scale(0.015625)"/>
       <path id="DejaVuSans-66" d="M 2375 4863 
L 2375 4384 
L 1825 4384 
Q 1516 4384 1395 4259 
Q 1275 4134 1275 3809 
L 1275 3500 
L 2222 3500 
L 2222 3053 
L 1275 3053 
L 1275 0 
L 697 0 
L 697 3053 
L 147 3053 
L 147 3500 
L 697 3500 
L 697 3744 
Q 697 4328 969 4595 
Q 1241 4863 1831 4863 
L 2375 4863 
z
" transform="scale(0.015625)"/>
       <path id="DejaVuSans-64" d="M 2906 2969 
L 2906 4863 
L 3481 4863 
L 3481 0 
L 2906 0 
L 2906 525 
Q 2725 213 2448 61 
Q 2172 -91 1784 -91 
Q 1150 -91 751 415 
Q 353 922 353 1747 
Q 353 2572 751 3078 
Q 1150 3584 1784 3584 
Q 2172 3584 2448 3432 
Q 2725 3281 2906 2969 
z
M 947 1747 
Q 947 1113 1208 752 
Q 1469 391 1925 391 
Q 2381 391 2643 752 
Q 2906 1113 2906 1747 
Q 2906 2381 2643 2742 
Q 2381 3103 1925 3103 
Q 1469 3103 1208 2742 
Q 947 2381 947 1747 
z
" transform="scale(0.015625)"/>
      </defs>
      <use xlink:href="#DejaVuSans-49"/>
      <use xlink:href="#DejaVuSans-6e" x="29.492188"/>
      <use xlink:href="#DejaVuSans-66" x="92.871094"/>
      <use xlink:href="#DejaVuSans-65" x="128.076172"/>
      <use xlink:href="#DejaVuSans-63" x="189.599609"/>
      <use xlink:href="#DejaVuSans-74" x="244.580078"/>
      <use xlink:href="#DejaVuSans-65" x="283.789062"/>
      <use xlink:href="#DejaVuSans-64" x="345.3125"/>
     </g>
    </g>
   </g>
   <g id="PolyCollection_2"/>
   <g id="line2d_53">
    <path d="M 81.405191 312.293337 
L 83.777981 287.264646 
L 86.15077 270.578852 
L 88.523559 278.921749 
L 90.896349 270.578852 
L 93.269138 203.835676 
L 95.641927 253.893058 
L 98.014717 245.550161 
L 100.387506 262.235955 
L 102.760295 287.264646 
L 105.133084 262.235955 
L 107.505874 262.235955 
L 109.878663 295.607543 
L 112.251452 270.578852 
L 114.624242 303.95044 
L 116.997031 262.235955 
L 119.36982 212.178573 
L 121.74261 270.578852 
L 126.488188 287.264646 
L 128.860978 320.636234 
L 131.233767 303.95044 
L 133.606556 262.235955 
L 135.979346 195.492779 
L 138.352135 253.893058 
L 140.724924 245.550161 
L 143.097714 270.578852 
L 147.843292 270.578852 
L 150.216082 320.636234 
L 152.588871 303.95044 
L 154.96166 262.235955 
L 157.33445 278.921749 
L 159.707239 303.95044 
L 162.080028 287.264646 
L 164.452818 237.207264 
L 166.825607 287.264646 
L 169.198396 328.979131 
L 171.571185 270.578852 
L 173.943975 287.264646 
L 178.689553 337.322028 
L 181.062343 303.95044 
L 183.435132 295.607543 
L 185.807921 328.979131 
L 188.180711 312.293337 
L 192.926289 312.293337 
L 195.299079 328.979131 
L 197.671868 320.636234 
L 200.044657 295.607543 
L 202.417447 345.664925 
L 204.790236 320.636234 
L 211.908604 320.636234 
L 214.281393 312.293337 
L 216.654183 312.293337 
L 221.399761 345.664925 
L 223.772551 320.636234 
L 226.14534 320.636234 
L 228.518129 295.607543 
L 230.890919 320.636234 
L 233.263708 312.293337 
L 235.636497 320.636234 
L 238.009286 345.664925 
L 242.754865 312.293337 
L 245.127654 320.636234 
L 247.500444 320.636234 
L 249.873233 337.322028 
L 252.246022 320.636234 
L 254.618812 312.293337 
L 259.36439 328.979131 
L 261.73718 354.007822 
L 264.109969 312.293337 
L 266.482758 320.636234 
L 271.228337 320.636234 
L 273.601126 328.979131 
L 275.973916 320.636234 
L 278.346705 337.322028 
L 280.719494 320.636234 
L 283.092284 337.322028 
L 285.465073 328.979131 
L 287.837862 312.293337 
L 292.583441 328.979131 
L 294.95623 328.979131 
L 297.32902 337.322028 
L 299.701809 320.636234 
L 302.074598 312.293337 
L 304.447387 337.322028 
L 306.820177 320.636234 
L 309.192966 312.293337 
L 311.565755 312.293337 
L 313.938545 328.979131 
L 316.311334 312.293337 
L 318.684123 328.979131 
L 323.429702 312.293337 
L 325.802491 320.636234 
L 328.175281 320.636234 
L 330.54807 312.293337 
L 332.920859 312.293337 
L 335.293649 320.636234 
L 342.412017 320.636234 
L 344.784806 328.979131 
L 349.530385 312.293337 
L 351.903174 337.322028 
L 354.275963 312.293337 
L 356.648753 320.636234 
L 359.021542 312.293337 
L 363.767121 328.979131 
L 366.13991 320.636234 
L 370.885488 320.636234 
L 373.258278 328.979131 
L 375.631067 312.293337 
L 378.003856 328.979131 
L 385.122224 328.979131 
L 387.495014 312.293337 
L 389.867803 337.322028 
L 392.240592 312.293337 
L 394.613382 320.636234 
L 396.986171 312.293337 
L 401.73175 328.979131 
L 404.104539 320.636234 
L 406.477328 320.636234 
L 408.850118 312.293337 
L 411.222907 337.322028 
L 413.595696 320.636234 
L 415.968486 337.322028 
L 418.341275 312.293337 
L 420.714064 312.293337 
L 423.086854 328.979131 
L 425.459643 312.293337 
L 427.832432 337.322028 
L 430.205222 312.293337 
L 432.578011 328.979131 
L 434.9508 337.322028 
L 437.323589 312.293337 
L 439.696379 312.293337 
L 442.069168 320.636234 
L 444.441957 312.293337 
L 446.814747 312.293337 
L 449.187536 320.636234 
L 451.560325 312.293337 
L 453.933115 312.293337 
L 456.305904 320.636234 
L 458.678693 312.293337 
L 461.051483 320.636234 
L 463.424272 320.636234 
L 465.797061 312.293337 
L 468.169851 320.636234 
L 470.54264 320.636234 
L 472.915429 337.322028 
L 475.288219 312.293337 
L 477.661008 320.636234 
L 480.033797 312.293337 
L 482.406587 312.293337 
L 484.779376 320.636234 
L 487.152165 320.636234 
L 489.524955 312.293337 
L 491.897744 328.979131 
L 494.270533 320.636234 
L 496.643323 328.979131 
L 499.016112 320.636234 
L 501.388901 320.636234 
L 503.76169 328.979131 
L 506.13448 312.293337 
L 508.507269 320.636234 
L 510.880058 312.293337 
L 513.252848 312.293337 
L 515.625637 328.979131 
L 517.998426 312.293337 
L 522.744005 328.979131 
L 525.116794 312.293337 
L 527.489584 320.636234 
L 529.862373 312.293337 
L 534.607952 328.979131 
L 539.35353 312.293337 
L 541.72632 328.979131 
L 544.099109 312.293337 
L 548.844688 328.979131 
L 551.217477 312.293337 
L 553.590266 312.293337 
L 553.590266 312.293337 
" clip-path="url(#p37f3028f99)" style="fill: none; stroke: #808080; stroke-width: 1.5; stroke-linecap: round"/>
   </g>
   <g id="line2d_54">
    <path d="M 57.795938 312.293337 
L 577.19952 312.293337 
" clip-path="url(#p37f3028f99)" style="fill: none; stroke: #dc143c; stroke-width: 1.5; stroke-linecap: round"/>
   </g>
   <g id="patch_8">
    <path d="M 57.795938 361.933574 
L 57.795938 187.567027 
" style="fill: none"/>
   </g>
   <g id="patch_9">
    <path d="M 577.19952 361.933574 
L 577.19952 187.567027 
" style="fill: none"/>
   </g>
   <g id="patch_10">
    <path d="M 57.795938 361.933574 
L 577.19952 361.933574 
" style="fill: none"/>
   </g>
   <g id="patch_11">
    <path d="M 57.795938 187.567027 
L 577.19952 187.567027 
" style="fill: none"/>
   </g>
  </g>
  <g id="axes_3">
   <g id="patch_12">
    <path d="M 57.795938 542.60077 
L 577.19952 542.60077 
L 577.19952 368.234223 
L 57.795938 368.234223 
z
" style="fill: #ffffff"/>
   </g>
   <g id="matplotlib.axis_5">
    <g id="xtick_19">
     <g id="line2d_55">
      <path d="M 81.405191 542.60077 
L 81.405191 368.234223 
" clip-path="url(#p62a74da1d4)" style="fill: none; stroke: #eeeeee; stroke-width: 0.8; stroke-linecap: round"/>
     </g>
     <g id="line2d_56"/>
     <g id="text_10">
      <!-- 0 -->
      <g style="fill: #262626" transform="translate(76.951441 556.738582) scale(0.14 -0.14)">
       <use xlink:href="#DejaVuSans-30"/>
      </g>
     </g>
    </g>
    <g id="xtick_20">
     <g id="line2d_57">
      <path d="M 140.724924 542.60077 
L 140.724924 368.234223 
" clip-path="url(#p62a74da1d4)" style="fill: none; stroke: #eeeeee; stroke-width: 0.8; stroke-linecap: round"/>
     </g>
     <g id="line2d_58"/>
     <g id="text_11">
      <!-- 25 -->
      <g style="fill: #262626" transform="translate(131.817424 556.738582) scale(0.14 -0.14)">
       <defs>
        <path id="DejaVuSans-32" d="M 1228 531 
L 3431 531 
L 3431 0 
L 469 0 
L 469 531 
Q 828 903 1448 1529 
Q 2069 2156 2228 2338 
Q 2531 2678 2651 2914 
Q 2772 3150 2772 3378 
Q 2772 3750 2511 3984 
Q 2250 4219 1831 4219 
Q 1534 4219 1204 4116 
Q 875 4013 500 3803 
L 500 4441 
Q 881 4594 1212 4672 
Q 1544 4750 1819 4750 
Q 2544 4750 2975 4387 
Q 3406 4025 3406 3419 
Q 3406 3131 3298 2873 
Q 3191 2616 2906 2266 
Q 2828 2175 2409 1742 
Q 1991 1309 1228 531 
z
" transform="scale(0.015625)"/>
       </defs>
       <use xlink:href="#DejaVuSans-32"/>
       <use xlink:href="#DejaVuSans-35" x="63.623047"/>
      </g>
     </g>
    </g>
    <g id="xtick_21">
     <g id="line2d_59">
      <path d="M 200.044657 542.60077 
L 200.044657 368.234223 
" clip-path="url(#p62a74da1d4)" style="fill: none; stroke: #eeeeee; stroke-width: 0.8; stroke-linecap: round"/>
     </g>
     <g id="line2d_60"/>
     <g id="text_12">
      <!-- 50 -->
      <g style="fill: #262626" transform="translate(191.137157 556.738582) scale(0.14 -0.14)">
       <use xlink:href="#DejaVuSans-35"/>
       <use xlink:href="#DejaVuSans-30" x="63.623047"/>
      </g>
     </g>
    </g>
    <g id="xtick_22">
     <g id="line2d_61">
      <path d="M 259.36439 542.60077 
L 259.36439 368.234223 
" clip-path="url(#p62a74da1d4)" style="fill: none; stroke: #eeeeee; stroke-width: 0.8; stroke-linecap: round"/>
     </g>
     <g id="line2d_62"/>
     <g id="text_13">
      <!-- 75 -->
      <g style="fill: #262626" transform="translate(250.45689 556.738582) scale(0.14 -0.14)">
       <defs>
        <path id="DejaVuSans-37" d="M 525 4666 
L 3525 4666 
L 3525 4397 
L 1831 0 
L 1172 0 
L 2766 4134 
L 525 4134 
L 525 4666 
z
" transform="scale(0.015625)"/>
       </defs>
       <use xlink:href="#DejaVuSans-37"/>
       <use xlink:href="#DejaVuSans-35" x="63.623047"/>
      </g>
     </g>
    </g>
    <g id="xtick_23">
     <g id="line2d_63">
      <path d="M 318.684123 542.60077 
L 318.684123 368.234223 
" clip-path="url(#p62a74da1d4)" style="fill: none; stroke: #eeeeee; stroke-width: 0.8; stroke-linecap: round"/>
     </g>
     <g id="line2d_64"/>
     <g id="text_14">
      <!-- 100 -->
      <g style="fill: #262626" transform="translate(305.322873 556.738582) scale(0.14 -0.14)">
       <use xlink:href="#DejaVuSans-31"/>
       <use xlink:href="#DejaVuSans-30" x="63.623047"/>
       <use xlink:href="#DejaVuSans-30" x="127.246094"/>
      </g>
     </g>
    </g>
    <g id="xtick_24">
     <g id="line2d_65">
      <path d="M 378.003856 542.60077 
L 378.003856 368.234223 
" clip-path="url(#p62a74da1d4)" style="fill: none; stroke: #eeeeee; stroke-width: 0.8; stroke-linecap: round"/>
     </g>
     <g id="line2d_66"/>
     <g id="text_15">
      <!-- 125 -->
      <g style="fill: #262626" transform="translate(364.642606 556.738582) scale(0.14 -0.14)">
       <use xlink:href="#DejaVuSans-31"/>
       <use xlink:href="#DejaVuSans-32" x="63.623047"/>
       <use xlink:href="#DejaVuSans-35" x="127.246094"/>
      </g>
     </g>
    </g>
    <g id="xtick_25">
     <g id="line2d_67">
      <path d="M 437.323589 542.60077 
L 437.323589 368.234223 
" clip-path="url(#p62a74da1d4)" style="fill: none; stroke: #eeeeee; stroke-width: 0.8; stroke-linecap: round"/>
     </g>
     <g id="line2d_68"/>
     <g id="text_16">
      <!-- 150 -->
      <g style="fill: #262626" transform="translate(423.962339 556.738582) scale(0.14 -0.14)">
       <use xlink:href="#DejaVuSans-31"/>
       <use xlink:href="#DejaVuSans-35" x="63.623047"/>
       <use xlink:href="#DejaVuSans-30" x="127.246094"/>
      </g>
     </g>
    </g>
    <g id="xtick_26">
     <g id="line2d_69">
      <path d="M 496.643323 542.60077 
L 496.643323 368.234223 
" clip-path="url(#p62a74da1d4)" style="fill: none; stroke: #eeeeee; stroke-width: 0.8; stroke-linecap: round"/>
     </g>
     <g id="line2d_70"/>
     <g id="text_17">
      <!-- 175 -->
      <g style="fill: #262626" transform="translate(483.282073 556.738582) scale(0.14 -0.14)">
       <use xlink:href="#DejaVuSans-31"/>
       <use xlink:href="#DejaVuSans-37" x="63.623047"/>
       <use xlink:href="#DejaVuSans-35" x="127.246094"/>
      </g>
     </g>
    </g>
    <g id="xtick_27">
     <g id="line2d_71">
      <path d="M 555.963056 542.60077 
L 555.963056 368.234223 
" clip-path="url(#p62a74da1d4)" style="fill: none; stroke: #eeeeee; stroke-width: 0.8; stroke-linecap: round"/>
     </g>
     <g id="line2d_72"/>
     <g id="text_18">
      <!-- 200 -->
      <g style="fill: #262626" transform="translate(542.601806 556.738582) scale(0.14 -0.14)">
       <use xlink:href="#DejaVuSans-32"/>
       <use xlink:href="#DejaVuSans-30" x="63.623047"/>
       <use xlink:href="#DejaVuSans-30" x="127.246094"/>
      </g>
     </g>
    </g>
    <g id="text_19">
     <!-- Iteration -->
     <g style="fill: #262626" transform="translate(287.805697 574.287957) scale(0.14 -0.14)">
      <defs>
       <path id="DejaVuSans-72" d="M 2631 2963 
Q 2534 3019 2420 3045 
Q 2306 3072 2169 3072 
Q 1681 3072 1420 2755 
Q 1159 2438 1159 1844 
L 1159 0 
L 581 0 
L 581 3500 
L 1159 3500 
L 1159 2956 
Q 1341 3275 1631 3429 
Q 1922 3584 2338 3584 
Q 2397 3584 2469 3576 
Q 2541 3569 2628 3553 
L 2631 2963 
z
" transform="scale(0.015625)"/>
       <path id="DejaVuSans-61" d="M 2194 1759 
Q 1497 1759 1228 1600 
Q 959 1441 959 1056 
Q 959 750 1161 570 
Q 1363 391 1709 391 
Q 2188 391 2477 730 
Q 2766 1069 2766 1631 
L 2766 1759 
L 2194 1759 
z
M 3341 1997 
L 3341 0 
L 2766 0 
L 2766 531 
Q 2569 213 2275 61 
Q 1981 -91 1556 -91 
Q 1019 -91 701 211 
Q 384 513 384 1019 
Q 384 1609 779 1909 
Q 1175 2209 1959 2209 
L 2766 2209 
L 2766 2266 
Q 2766 2663 2505 2880 
Q 2244 3097 1772 3097 
Q 1472 3097 1187 3025 
Q 903 2953 641 2809 
L 641 3341 
Q 956 3463 1253 3523 
Q 1550 3584 1831 3584 
Q 2591 3584 2966 3190 
Q 3341 2797 3341 1997 
z
" transform="scale(0.015625)"/>
       <path id="DejaVuSans-6f" d="M 1959 3097 
Q 1497 3097 1228 2736 
Q 959 2375 959 1747 
Q 959 1119 1226 758 
Q 1494 397 1959 397 
Q 2419 397 2687 759 
Q 2956 1122 2956 1747 
Q 2956 2369 2687 2733 
Q 2419 3097 1959 3097 
z
M 1959 3584 
Q 2709 3584 3137 3096 
Q 3566 2609 3566 1747 
Q 3566 888 3137 398 
Q 2709 -91 1959 -91 
Q 1206 -91 779 398 
Q 353 888 353 1747 
Q 353 2609 779 3096 
Q 1206 3584 1959 3584 
z
" transform="scale(0.015625)"/>
      </defs>
      <use xlink:href="#DejaVuSans-49"/>
      <use xlink:href="#DejaVuSans-74" x="29.492188"/>
      <use xlink:href="#DejaVuSans-65" x="68.701172"/>
      <use xlink:href="#DejaVuSans-72" x="130.224609"/>
      <use xlink:href="#DejaVuSans-61" x="171.337891"/>
      <use xlink:href="#DejaVuSans-74" x="232.617188"/>
      <use xlink:href="#DejaVuSans-69" x="271.826172"/>
      <use xlink:href="#DejaVuSans-6f" x="299.609375"/>
      <use xlink:href="#DejaVuSans-6e" x="360.791016"/>
     </g>
    </g>
   </g>
   <g id="matplotlib.axis_6">
    <g id="ytick_8">
     <g id="line2d_73">
      <path d="M 57.795938 534.675018 
L 577.19952 534.675018 
" clip-path="url(#p62a74da1d4)" style="fill: none; stroke: #eeeeee; stroke-width: 0.8; stroke-linecap: round"/>
     </g>
     <g id="line2d_74"/>
     <g id="text_20">
      <!-- 0 -->
      <g style="fill: #262626" transform="translate(45.388438 539.993924) scale(0.14 -0.14)">
       <use xlink:href="#DejaVuSans-30"/>
      </g>
     </g>
    </g>
    <g id="ytick_9">
     <g id="line2d_75">
      <path d="M 57.795938 502.972009 
L 577.19952 502.972009 
" clip-path="url(#p62a74da1d4)" style="fill: none; stroke: #eeeeee; stroke-width: 0.8; stroke-linecap: round"/>
     </g>
     <g id="line2d_76"/>
     <g id="text_21">
      <!-- 1 -->
      <g style="fill: #262626" transform="translate(45.388438 508.290916) scale(0.14 -0.14)">
       <use xlink:href="#DejaVuSans-31"/>
      </g>
     </g>
    </g>
    <g id="ytick_10">
     <g id="line2d_77">
      <path d="M 57.795938 471.269001 
L 577.19952 471.269001 
" clip-path="url(#p62a74da1d4)" style="fill: none; stroke: #eeeeee; stroke-width: 0.8; stroke-linecap: round"/>
     </g>
     <g id="line2d_78"/>
     <g id="text_22">
      <!-- 2 -->
      <g style="fill: #262626" transform="translate(45.388438 476.587907) scale(0.14 -0.14)">
       <use xlink:href="#DejaVuSans-32"/>
      </g>
     </g>
    </g>
    <g id="ytick_11">
     <g id="line2d_79">
      <path d="M 57.795938 439.565992 
L 577.19952 439.565992 
" clip-path="url(#p62a74da1d4)" style="fill: none; stroke: #eeeeee; stroke-width: 0.8; stroke-linecap: round"/>
     </g>
     <g id="line2d_80"/>
     <g id="text_23">
      <!-- 3 -->
      <g style="fill: #262626" transform="translate(45.388438 444.884898) scale(0.14 -0.14)">
       <defs>
        <path id="DejaVuSans-33" d="M 2597 2516 
Q 3050 2419 3304 2112 
Q 3559 1806 3559 1356 
Q 3559 666 3084 287 
Q 2609 -91 1734 -91 
Q 1441 -91 1130 -33 
Q 819 25 488 141 
L 488 750 
Q 750 597 1062 519 
Q 1375 441 1716 441 
Q 2309 441 2620 675 
Q 2931 909 2931 1356 
Q 2931 1769 2642 2001 
Q 2353 2234 1838 2234 
L 1294 2234 
L 1294 2753 
L 1863 2753 
Q 2328 2753 2575 2939 
Q 2822 3125 2822 3475 
Q 2822 3834 2567 4026 
Q 2313 4219 1838 4219 
Q 1578 4219 1281 4162 
Q 984 4106 628 3988 
L 628 4550 
Q 988 4650 1302 4700 
Q 1616 4750 1894 4750 
Q 2613 4750 3031 4423 
Q 3450 4097 3450 3541 
Q 3450 3153 3228 2886 
Q 3006 2619 2597 2516 
z
" transform="scale(0.015625)"/>
       </defs>
       <use xlink:href="#DejaVuSans-33"/>
      </g>
     </g>
    </g>
    <g id="ytick_12">
     <g id="line2d_81">
      <path d="M 57.795938 407.862984 
L 577.19952 407.862984 
" clip-path="url(#p62a74da1d4)" style="fill: none; stroke: #eeeeee; stroke-width: 0.8; stroke-linecap: round"/>
     </g>
     <g id="line2d_82"/>
     <g id="text_24">
      <!-- 4 -->
      <g style="fill: #262626" transform="translate(45.388438 413.18189) scale(0.14 -0.14)">
       <defs>
        <path id="DejaVuSans-34" d="M 2419 4116 
L 825 1625 
L 2419 1625 
L 2419 4116 
z
M 2253 4666 
L 3047 4666 
L 3047 1625 
L 3713 1625 
L 3713 1100 
L 3047 1100 
L 3047 0 
L 2419 0 
L 2419 1100 
L 313 1100 
L 313 1709 
L 2253 4666 
z
" transform="scale(0.015625)"/>
       </defs>
       <use xlink:href="#DejaVuSans-34"/>
      </g>
     </g>
    </g>
    <g id="ytick_13">
     <g id="line2d_83">
      <path d="M 57.795938 376.159975 
L 577.19952 376.159975 
" clip-path="url(#p62a74da1d4)" style="fill: none; stroke: #eeeeee; stroke-width: 0.8; stroke-linecap: round"/>
     </g>
     <g id="line2d_84"/>
     <g id="text_25">
      <!-- 5 -->
      <g style="fill: #262626" transform="translate(45.388438 381.478881) scale(0.14 -0.14)">
       <use xlink:href="#DejaVuSans-35"/>
      </g>
     </g>
    </g>
    <g id="text_26">
     <!-- Removed -->
     <g style="fill: #262626" transform="translate(38.476875 488.269371) rotate(-90) scale(0.14 -0.14)">
      <defs>
       <path id="DejaVuSans-52" d="M 2841 2188 
Q 3044 2119 3236 1894 
Q 3428 1669 3622 1275 
L 4263 0 
L 3584 0 
L 2988 1197 
Q 2756 1666 2539 1819 
Q 2322 1972 1947 1972 
L 1259 1972 
L 1259 0 
L 628 0 
L 628 4666 
L 2053 4666 
Q 2853 4666 3247 4331 
Q 3641 3997 3641 3322 
Q 3641 2881 3436 2590 
Q 3231 2300 2841 2188 
z
M 1259 4147 
L 1259 2491 
L 2053 2491 
Q 2509 2491 2742 2702 
Q 2975 2913 2975 3322 
Q 2975 3731 2742 3939 
Q 2509 4147 2053 4147 
L 1259 4147 
z
" transform="scale(0.015625)"/>
       <path id="DejaVuSans-6d" d="M 3328 2828 
Q 3544 3216 3844 3400 
Q 4144 3584 4550 3584 
Q 5097 3584 5394 3201 
Q 5691 2819 5691 2113 
L 5691 0 
L 5113 0 
L 5113 2094 
Q 5113 2597 4934 2840 
Q 4756 3084 4391 3084 
Q 3944 3084 3684 2787 
Q 3425 2491 3425 1978 
L 3425 0 
L 2847 0 
L 2847 2094 
Q 2847 2600 2669 2842 
Q 2491 3084 2119 3084 
Q 1678 3084 1418 2786 
Q 1159 2488 1159 1978 
L 1159 0 
L 581 0 
L 581 3500 
L 1159 3500 
L 1159 2956 
Q 1356 3278 1631 3431 
Q 1906 3584 2284 3584 
Q 2666 3584 2933 3390 
Q 3200 3197 3328 2828 
z
" transform="scale(0.015625)"/>
       <path id="DejaVuSans-76" d="M 191 3500 
L 800 3500 
L 1894 563 
L 2988 3500 
L 3597 3500 
L 2284 0 
L 1503 0 
L 191 3500 
z
" transform="scale(0.015625)"/>
      </defs>
      <use xlink:href="#DejaVuSans-52"/>
      <use xlink:href="#DejaVuSans-65" x="64.982422"/>
      <use xlink:href="#DejaVuSans-6d" x="126.505859"/>
      <use xlink:href="#DejaVuSans-6f" x="223.917969"/>
      <use xlink:href="#DejaVuSans-76" x="285.099609"/>
      <use xlink:href="#DejaVuSans-65" x="344.279297"/>
      <use xlink:href="#DejaVuSans-64" x="405.802734"/>
     </g>
    </g>
   </g>
   <g id="PolyCollection_3"/>
   <g id="line2d_85">
    <path d="M 81.405191 534.675018 
L 90.896349 534.675018 
L 93.269138 502.972009 
L 95.641927 534.675018 
L 98.014717 534.675018 
L 100.387506 471.269001 
L 102.760295 471.269001 
L 105.133084 439.565992 
L 107.505874 534.675018 
L 109.878663 502.972009 
L 112.251452 534.675018 
L 114.624242 439.565992 
L 116.997031 534.675018 
L 119.36982 534.675018 
L 121.74261 471.269001 
L 124.115399 534.675018 
L 126.488188 471.269001 
L 128.860978 471.269001 
L 133.606556 407.862984 
L 135.979346 534.675018 
L 138.352135 502.972009 
L 140.724924 439.565992 
L 143.097714 471.269001 
L 145.470503 376.159975 
L 147.843292 471.269001 
L 152.588871 471.269001 
L 154.96166 502.972009 
L 157.33445 502.972009 
L 159.707239 407.862984 
L 162.080028 471.269001 
L 164.452818 471.269001 
L 166.825607 502.972009 
L 169.198396 471.269001 
L 171.571185 502.972009 
L 173.943975 471.269001 
L 176.316764 471.269001 
L 178.689553 439.565992 
L 181.062343 439.565992 
L 183.435132 471.269001 
L 188.180711 471.269001 
L 190.5535 534.675018 
L 192.926289 471.269001 
L 195.299079 439.565992 
L 197.671868 502.972009 
L 200.044657 534.675018 
L 202.417447 407.862984 
L 204.790236 471.269001 
L 207.163025 471.269001 
L 209.535815 502.972009 
L 214.281393 502.972009 
L 216.654183 471.269001 
L 219.026972 471.269001 
L 221.399761 407.862984 
L 223.772551 502.972009 
L 226.14534 502.972009 
L 228.518129 534.675018 
L 230.890919 502.972009 
L 233.263708 534.675018 
L 235.636497 502.972009 
L 238.009286 407.862984 
L 242.754865 534.675018 
L 245.127654 471.269001 
L 247.500444 502.972009 
L 249.873233 439.565992 
L 252.246022 502.972009 
L 254.618812 534.675018 
L 259.36439 471.269001 
L 261.73718 376.159975 
L 264.109969 502.972009 
L 271.228337 502.972009 
L 273.601126 471.269001 
L 275.973916 502.972009 
L 278.346705 439.565992 
L 280.719494 502.972009 
L 283.092284 439.565992 
L 285.465073 471.269001 
L 287.837862 534.675018 
L 292.583441 471.269001 
L 294.95623 471.269001 
L 297.32902 439.565992 
L 299.701809 502.972009 
L 302.074598 534.675018 
L 304.447387 439.565992 
L 306.820177 502.972009 
L 309.192966 534.675018 
L 311.565755 534.675018 
L 313.938545 471.269001 
L 316.311334 534.675018 
L 318.684123 471.269001 
L 323.429702 534.675018 
L 325.802491 502.972009 
L 328.175281 502.972009 
L 330.54807 534.675018 
L 332.920859 534.675018 
L 335.293649 502.972009 
L 342.412017 502.972009 
L 344.784806 471.269001 
L 349.530385 534.675018 
L 351.903174 439.565992 
L 354.275963 534.675018 
L 356.648753 502.972009 
L 359.021542 534.675018 
L 363.767121 471.269001 
L 366.13991 502.972009 
L 370.885488 502.972009 
L 373.258278 471.269001 
L 375.631067 534.675018 
L 378.003856 471.269001 
L 385.122224 471.269001 
L 387.495014 534.675018 
L 389.867803 439.565992 
L 392.240592 534.675018 
L 394.613382 502.972009 
L 396.986171 534.675018 
L 401.73175 471.269001 
L 404.104539 502.972009 
L 406.477328 502.972009 
L 408.850118 534.675018 
L 411.222907 439.565992 
L 413.595696 502.972009 
L 415.968486 439.565992 
L 418.341275 534.675018 
L 420.714064 534.675018 
L 423.086854 471.269001 
L 425.459643 534.675018 
L 427.832432 439.565992 
L 430.205222 534.675018 
L 432.578011 471.269001 
L 434.9508 439.565992 
L 437.323589 534.675018 
L 439.696379 534.675018 
L 442.069168 502.972009 
L 444.441957 534.675018 
L 446.814747 534.675018 
L 449.187536 502.972009 
L 451.560325 534.675018 
L 453.933115 534.675018 
L 456.305904 502.972009 
L 458.678693 534.675018 
L 461.051483 502.972009 
L 463.424272 502.972009 
L 465.797061 534.675018 
L 468.169851 502.972009 
L 470.54264 502.972009 
L 472.915429 439.565992 
L 475.288219 534.675018 
L 477.661008 502.972009 
L 480.033797 534.675018 
L 482.406587 534.675018 
L 484.779376 502.972009 
L 487.152165 502.972009 
L 489.524955 534.675018 
L 491.897744 471.269001 
L 494.270533 502.972009 
L 496.643323 471.269001 
L 499.016112 502.972009 
L 501.388901 502.972009 
L 503.76169 471.269001 
L 506.13448 534.675018 
L 508.507269 502.972009 
L 510.880058 534.675018 
L 513.252848 534.675018 
L 515.625637 471.269001 
L 517.998426 534.675018 
L 522.744005 471.269001 
L 525.116794 534.675018 
L 527.489584 502.972009 
L 529.862373 534.675018 
L 534.607952 471.269001 
L 539.35353 534.675018 
L 541.72632 471.269001 
L 544.099109 534.675018 
L 548.844688 471.269001 
L 551.217477 534.675018 
L 553.590266 534.675018 
L 553.590266 534.675018 
" clip-path="url(#p62a74da1d4)" style="fill: none; stroke: #808080; stroke-width: 1.5; stroke-linecap: round"/>
   </g>
   <g id="line2d_86">
    <path d="M 57.795938 534.675018 
L 577.19952 534.675018 
" clip-path="url(#p62a74da1d4)" style="fill: none; stroke: #dc143c; stroke-width: 1.5; stroke-linecap: round"/>
   </g>
   <g id="patch_13">
    <path d="M 57.795938 542.60077 
L 57.795938 368.234223 
" style="fill: none"/>
   </g>
   <g id="patch_14">
    <path d="M 577.19952 542.60077 
L 577.19952 368.234223 
" style="fill: none"/>
   </g>
   <g id="patch_15">
    <path d="M 57.795938 542.60077 
L 577.19952 542.60077 
" style="fill: none"/>
   </g>
   <g id="patch_16">
    <path d="M 57.795938 368.234223 
L 577.19952 368.234223 
" style="fill: none"/>
   </g>
  </g>
 </g>
 <defs>
  <clipPath id="pea9caa6cae">
   <rect x="57.795938" y="7.2" width="519.403582" height="174.366547"/>
  </clipPath>
  <clipPath id="p37f3028f99">
   <rect x="57.795938" y="187.567027" width="519.403582" height="174.366547"/>
  </clipPath>
  <clipPath id="p62a74da1d4">
   <rect x="57.795938" y="368.234223" width="519.403582" height="174.366547"/>
  </clipPath>
 </defs>
</svg>
