<?xml version="1.0" encoding="utf-8" standalone="no"?>
<!DOCTYPE svg PUBLIC "-//W3C//DTD SVG 1.1//EN"
  "http://www.w3.org/Graphics/SVG/1.1/DTD/svg11.dtd">
<svg xmlns:xlink="http://www.w3.org/1999/xlink" width="526.723855pt" height="353.99952pt" viewBox="0 0 526.723855 353.99952" xmlns="http://www.w3.org/2000/svg" version="1.1">
 <metadata>
  <rdf:RDF xmlns:dc="http://purl.org/dc/elements/1.1/" xmlns:cc="http://creativecommons.org/ns#" xmlns:rdf="http://www.w3.org/1999/02/22-rdf-syntax-ns#">
   <cc:Work>
    <dc:type rdf:resource="http://purl.org/dc/dcmitype/StillImage"/>
    <dc:date>2024-08-17T18:15:03.706414</dc:date>
    <dc:format>image/svg+xml</dc:format>
    <dc:creator>
     <cc:Agent>
      <dc:title>Matplotlib v3.9.1, https://matplotlib.org/</dc:title>
     </cc:Agent>
    </dc:creator>
   </cc:Work>
  </rdf:RDF>
 </metadata>
 <defs>
  <style type="text/css">*{stroke-linejoin: round; stroke-linecap: butt}</style>
 </defs>
 <g id="figure_1">
  <g id="patch_1">
   <path d="M 0 353.99952 
L 526.723855 353.99952 
L 526.723855 0 
L 0 0 
z
" style="fill: #ffffff"/>
  </g>
  <g id="axes_1">
   <g id="patch_2">
    <path d="M 50.51375 329.750145 
L 515.819767 329.750145 
L 515.819767 12.518906 
L 50.51375 12.518906 
z
" style="fill: #ffffff"/>
   </g>
   <g id="matplotlib.axis_1">
    <g id="xtick_1">
     <g id="line2d_1">
      <path d="M 63.999601 329.750145 
L 63.999601 12.518906 
" clip-path="url(#p9bce1e80e8)" style="fill: none; stroke: #eeeeee; stroke-width: 0.8; stroke-linecap: round"/>
     </g>
     <g id="line2d_2"/>
     <g id="text_1">
      <!-- 0.347 -->
      <g style="fill: #262626" transform="translate(43.959914 343.887957) scale(0.14 -0.14)">
       <defs>
        <path id="DejaVuSans-30" d="M 2034 4250 
Q 1547 4250 1301 3770 
Q 1056 3291 1056 2328 
Q 1056 1369 1301 889 
Q 1547 409 2034 409 
Q 2525 409 2770 889 
Q 3016 1369 3016 2328 
Q 3016 3291 2770 3770 
Q 2525 4250 2034 4250 
z
M 2034 4750 
Q 2819 4750 3233 4129 
Q 3647 3509 3647 2328 
Q 3647 1150 3233 529 
Q 2819 -91 2034 -91 
Q 1250 -91 836 529 
Q 422 1150 422 2328 
Q 422 3509 836 4129 
Q 1250 4750 2034 4750 
z
" transform="scale(0.015625)"/>
        <path id="DejaVuSans-2e" d="M 684 794 
L 1344 794 
L 1344 0 
L 684 0 
L 684 794 
z
" transform="scale(0.015625)"/>
        <path id="DejaVuSans-33" d="M 2597 2516 
Q 3050 2419 3304 2112 
Q 3559 1806 3559 1356 
Q 3559 666 3084 287 
Q 2609 -91 1734 -91 
Q 1441 -91 1130 -33 
Q 819 25 488 141 
L 488 750 
Q 750 597 1062 519 
Q 1375 441 1716 441 
Q 2309 441 2620 675 
Q 2931 909 2931 1356 
Q 2931 1769 2642 2001 
Q 2353 2234 1838 2234 
L 1294 2234 
L 1294 2753 
L 1863 2753 
Q 2328 2753 2575 2939 
Q 2822 3125 2822 3475 
Q 2822 3834 2567 4026 
Q 2313 4219 1838 4219 
Q 1578 4219 1281 4162 
Q 984 4106 628 3988 
L 628 4550 
Q 988 4650 1302 4700 
Q 1616 4750 1894 4750 
Q 2613 4750 3031 4423 
Q 3450 4097 3450 3541 
Q 3450 3153 3228 2886 
Q 3006 2619 2597 2516 
z
" transform="scale(0.015625)"/>
        <path id="DejaVuSans-34" d="M 2419 4116 
L 825 1625 
L 2419 1625 
L 2419 4116 
z
M 2253 4666 
L 3047 4666 
L 3047 1625 
L 3713 1625 
L 3713 1100 
L 3047 1100 
L 3047 0 
L 2419 0 
L 2419 1100 
L 313 1100 
L 313 1709 
L 2253 4666 
z
" transform="scale(0.015625)"/>
        <path id="DejaVuSans-37" d="M 525 4666 
L 3525 4666 
L 3525 4397 
L 1831 0 
L 1172 0 
L 2766 4134 
L 525 4134 
L 525 4666 
z
" transform="scale(0.015625)"/>
       </defs>
       <use xlink:href="#DejaVuSans-30"/>
       <use xlink:href="#DejaVuSans-2e" x="63.623047"/>
       <use xlink:href="#DejaVuSans-33" x="95.410156"/>
       <use xlink:href="#DejaVuSans-34" x="159.033203"/>
       <use xlink:href="#DejaVuSans-37" x="222.65625"/>
      </g>
     </g>
    </g>
    <g id="xtick_2">
     <g id="line2d_3">
      <path d="M 136.580362 329.750145 
L 136.580362 12.518906 
" clip-path="url(#p9bce1e80e8)" style="fill: none; stroke: #eeeeee; stroke-width: 0.8; stroke-linecap: round"/>
     </g>
     <g id="line2d_4"/>
     <g id="text_2">
      <!-- 0.348 -->
      <g style="fill: #262626" transform="translate(116.540675 343.887957) scale(0.14 -0.14)">
       <defs>
        <path id="DejaVuSans-38" d="M 2034 2216 
Q 1584 2216 1326 1975 
Q 1069 1734 1069 1313 
Q 1069 891 1326 650 
Q 1584 409 2034 409 
Q 2484 409 2743 651 
Q 3003 894 3003 1313 
Q 3003 1734 2745 1975 
Q 2488 2216 2034 2216 
z
M 1403 2484 
Q 997 2584 770 2862 
Q 544 3141 544 3541 
Q 544 4100 942 4425 
Q 1341 4750 2034 4750 
Q 2731 4750 3128 4425 
Q 3525 4100 3525 3541 
Q 3525 3141 3298 2862 
Q 3072 2584 2669 2484 
Q 3125 2378 3379 2068 
Q 3634 1759 3634 1313 
Q 3634 634 3220 271 
Q 2806 -91 2034 -91 
Q 1263 -91 848 271 
Q 434 634 434 1313 
Q 434 1759 690 2068 
Q 947 2378 1403 2484 
z
M 1172 3481 
Q 1172 3119 1398 2916 
Q 1625 2713 2034 2713 
Q 2441 2713 2670 2916 
Q 2900 3119 2900 3481 
Q 2900 3844 2670 4047 
Q 2441 4250 2034 4250 
Q 1625 4250 1398 4047 
Q 1172 3844 1172 3481 
z
" transform="scale(0.015625)"/>
       </defs>
       <use xlink:href="#DejaVuSans-30"/>
       <use xlink:href="#DejaVuSans-2e" x="63.623047"/>
       <use xlink:href="#DejaVuSans-33" x="95.410156"/>
       <use xlink:href="#DejaVuSans-34" x="159.033203"/>
       <use xlink:href="#DejaVuSans-38" x="222.65625"/>
      </g>
     </g>
    </g>
    <g id="xtick_3">
     <g id="line2d_5">
      <path d="M 209.161123 329.750145 
L 209.161123 12.518906 
" clip-path="url(#p9bce1e80e8)" style="fill: none; stroke: #eeeeee; stroke-width: 0.8; stroke-linecap: round"/>
     </g>
     <g id="line2d_6"/>
     <g id="text_3">
      <!-- 0.349 -->
      <g style="fill: #262626" transform="translate(189.121436 343.887957) scale(0.14 -0.14)">
       <defs>
        <path id="DejaVuSans-39" d="M 703 97 
L 703 672 
Q 941 559 1184 500 
Q 1428 441 1663 441 
Q 2288 441 2617 861 
Q 2947 1281 2994 2138 
Q 2813 1869 2534 1725 
Q 2256 1581 1919 1581 
Q 1219 1581 811 2004 
Q 403 2428 403 3163 
Q 403 3881 828 4315 
Q 1253 4750 1959 4750 
Q 2769 4750 3195 4129 
Q 3622 3509 3622 2328 
Q 3622 1225 3098 567 
Q 2575 -91 1691 -91 
Q 1453 -91 1209 -44 
Q 966 3 703 97 
z
M 1959 2075 
Q 2384 2075 2632 2365 
Q 2881 2656 2881 3163 
Q 2881 3666 2632 3958 
Q 2384 4250 1959 4250 
Q 1534 4250 1286 3958 
Q 1038 3666 1038 3163 
Q 1038 2656 1286 2365 
Q 1534 2075 1959 2075 
z
" transform="scale(0.015625)"/>
       </defs>
       <use xlink:href="#DejaVuSans-30"/>
       <use xlink:href="#DejaVuSans-2e" x="63.623047"/>
       <use xlink:href="#DejaVuSans-33" x="95.410156"/>
       <use xlink:href="#DejaVuSans-34" x="159.033203"/>
       <use xlink:href="#DejaVuSans-39" x="222.65625"/>
      </g>
     </g>
    </g>
    <g id="xtick_4">
     <g id="line2d_7">
      <path d="M 281.741884 329.750145 
L 281.741884 12.518906 
" clip-path="url(#p9bce1e80e8)" style="fill: none; stroke: #eeeeee; stroke-width: 0.8; stroke-linecap: round"/>
     </g>
     <g id="line2d_8"/>
     <g id="text_4">
      <!-- 0.350 -->
      <g style="fill: #262626" transform="translate(261.702197 343.887957) scale(0.14 -0.14)">
       <defs>
        <path id="DejaVuSans-35" d="M 691 4666 
L 3169 4666 
L 3169 4134 
L 1269 4134 
L 1269 2991 
Q 1406 3038 1543 3061 
Q 1681 3084 1819 3084 
Q 2600 3084 3056 2656 
Q 3513 2228 3513 1497 
Q 3513 744 3044 326 
Q 2575 -91 1722 -91 
Q 1428 -91 1123 -41 
Q 819 9 494 109 
L 494 744 
Q 775 591 1075 516 
Q 1375 441 1709 441 
Q 2250 441 2565 725 
Q 2881 1009 2881 1497 
Q 2881 1984 2565 2268 
Q 2250 2553 1709 2553 
Q 1456 2553 1204 2497 
Q 953 2441 691 2322 
L 691 4666 
z
" transform="scale(0.015625)"/>
       </defs>
       <use xlink:href="#DejaVuSans-30"/>
       <use xlink:href="#DejaVuSans-2e" x="63.623047"/>
       <use xlink:href="#DejaVuSans-33" x="95.410156"/>
       <use xlink:href="#DejaVuSans-35" x="159.033203"/>
       <use xlink:href="#DejaVuSans-30" x="222.65625"/>
      </g>
     </g>
    </g>
    <g id="xtick_5">
     <g id="line2d_9">
      <path d="M 354.322645 329.750145 
L 354.322645 12.518906 
" clip-path="url(#p9bce1e80e8)" style="fill: none; stroke: #eeeeee; stroke-width: 0.8; stroke-linecap: round"/>
     </g>
     <g id="line2d_10"/>
     <g id="text_5">
      <!-- 0.351 -->
      <g style="fill: #262626" transform="translate(334.282958 343.887957) scale(0.14 -0.14)">
       <defs>
        <path id="DejaVuSans-31" d="M 794 531 
L 1825 531 
L 1825 4091 
L 703 3866 
L 703 4441 
L 1819 4666 
L 2450 4666 
L 2450 531 
L 3481 531 
L 3481 0 
L 794 0 
L 794 531 
z
" transform="scale(0.015625)"/>
       </defs>
       <use xlink:href="#DejaVuSans-30"/>
       <use xlink:href="#DejaVuSans-2e" x="63.623047"/>
       <use xlink:href="#DejaVuSans-33" x="95.410156"/>
       <use xlink:href="#DejaVuSans-35" x="159.033203"/>
       <use xlink:href="#DejaVuSans-31" x="222.65625"/>
      </g>
     </g>
    </g>
    <g id="xtick_6">
     <g id="line2d_11">
      <path d="M 426.903406 329.750145 
L 426.903406 12.518906 
" clip-path="url(#p9bce1e80e8)" style="fill: none; stroke: #eeeeee; stroke-width: 0.8; stroke-linecap: round"/>
     </g>
     <g id="line2d_12"/>
     <g id="text_6">
      <!-- 0.352 -->
      <g style="fill: #262626" transform="translate(406.863719 343.887957) scale(0.14 -0.14)">
       <defs>
        <path id="DejaVuSans-32" d="M 1228 531 
L 3431 531 
L 3431 0 
L 469 0 
L 469 531 
Q 828 903 1448 1529 
Q 2069 2156 2228 2338 
Q 2531 2678 2651 2914 
Q 2772 3150 2772 3378 
Q 2772 3750 2511 3984 
Q 2250 4219 1831 4219 
Q 1534 4219 1204 4116 
Q 875 4013 500 3803 
L 500 4441 
Q 881 4594 1212 4672 
Q 1544 4750 1819 4750 
Q 2544 4750 2975 4387 
Q 3406 4025 3406 3419 
Q 3406 3131 3298 2873 
Q 3191 2616 2906 2266 
Q 2828 2175 2409 1742 
Q 1991 1309 1228 531 
z
" transform="scale(0.015625)"/>
       </defs>
       <use xlink:href="#DejaVuSans-30"/>
       <use xlink:href="#DejaVuSans-2e" x="63.623047"/>
       <use xlink:href="#DejaVuSans-33" x="95.410156"/>
       <use xlink:href="#DejaVuSans-35" x="159.033203"/>
       <use xlink:href="#DejaVuSans-32" x="222.65625"/>
      </g>
     </g>
    </g>
    <g id="xtick_7">
     <g id="line2d_13">
      <path d="M 499.484167 329.750145 
L 499.484167 12.518906 
" clip-path="url(#p9bce1e80e8)" style="fill: none; stroke: #eeeeee; stroke-width: 0.8; stroke-linecap: round"/>
     </g>
     <g id="line2d_14"/>
     <g id="text_7">
      <!-- 0.353 -->
      <g style="fill: #262626" transform="translate(479.44448 343.887957) scale(0.14 -0.14)">
       <use xlink:href="#DejaVuSans-30"/>
       <use xlink:href="#DejaVuSans-2e" x="63.623047"/>
       <use xlink:href="#DejaVuSans-33" x="95.410156"/>
       <use xlink:href="#DejaVuSans-35" x="159.033203"/>
       <use xlink:href="#DejaVuSans-33" x="222.65625"/>
      </g>
     </g>
    </g>
   </g>
   <g id="matplotlib.axis_2">
    <g id="ytick_1">
     <g id="line2d_15">
      <path d="M 50.51375 329.750145 
L 515.819767 329.750145 
" clip-path="url(#p9bce1e80e8)" style="fill: none; stroke: #eeeeee; stroke-width: 0.8; stroke-linecap: round"/>
     </g>
     <g id="line2d_16"/>
     <g id="text_8">
      <!-- 0.0 -->
      <g style="fill: #262626" transform="translate(24.749375 335.069051) scale(0.14 -0.14)">
       <use xlink:href="#DejaVuSans-30"/>
       <use xlink:href="#DejaVuSans-2e" x="63.623047"/>
       <use xlink:href="#DejaVuSans-30" x="95.410156"/>
      </g>
     </g>
    </g>
    <g id="ytick_2">
     <g id="line2d_17">
      <path d="M 50.51375 266.303897 
L 515.819767 266.303897 
" clip-path="url(#p9bce1e80e8)" style="fill: none; stroke: #eeeeee; stroke-width: 0.8; stroke-linecap: round"/>
     </g>
     <g id="line2d_18"/>
     <g id="text_9">
      <!-- 0.2 -->
      <g style="fill: #262626" transform="translate(24.749375 271.622803) scale(0.14 -0.14)">
       <use xlink:href="#DejaVuSans-30"/>
       <use xlink:href="#DejaVuSans-2e" x="63.623047"/>
       <use xlink:href="#DejaVuSans-32" x="95.410156"/>
      </g>
     </g>
    </g>
    <g id="ytick_3">
     <g id="line2d_19">
      <path d="M 50.51375 202.857649 
L 515.819767 202.857649 
" clip-path="url(#p9bce1e80e8)" style="fill: none; stroke: #eeeeee; stroke-width: 0.8; stroke-linecap: round"/>
     </g>
     <g id="line2d_20"/>
     <g id="text_10">
      <!-- 0.4 -->
      <g style="fill: #262626" transform="translate(24.749375 208.176556) scale(0.14 -0.14)">
       <use xlink:href="#DejaVuSans-30"/>
       <use xlink:href="#DejaVuSans-2e" x="63.623047"/>
       <use xlink:href="#DejaVuSans-34" x="95.410156"/>
      </g>
     </g>
    </g>
    <g id="ytick_4">
     <g id="line2d_21">
      <path d="M 50.51375 139.411402 
L 515.819767 139.411402 
" clip-path="url(#p9bce1e80e8)" style="fill: none; stroke: #eeeeee; stroke-width: 0.8; stroke-linecap: round"/>
     </g>
     <g id="line2d_22"/>
     <g id="text_11">
      <!-- 0.6 -->
      <g style="fill: #262626" transform="translate(24.749375 144.730308) scale(0.14 -0.14)">
       <defs>
        <path id="DejaVuSans-36" d="M 2113 2584 
Q 1688 2584 1439 2293 
Q 1191 2003 1191 1497 
Q 1191 994 1439 701 
Q 1688 409 2113 409 
Q 2538 409 2786 701 
Q 3034 994 3034 1497 
Q 3034 2003 2786 2293 
Q 2538 2584 2113 2584 
z
M 3366 4563 
L 3366 3988 
Q 3128 4100 2886 4159 
Q 2644 4219 2406 4219 
Q 1781 4219 1451 3797 
Q 1122 3375 1075 2522 
Q 1259 2794 1537 2939 
Q 1816 3084 2150 3084 
Q 2853 3084 3261 2657 
Q 3669 2231 3669 1497 
Q 3669 778 3244 343 
Q 2819 -91 2113 -91 
Q 1303 -91 875 529 
Q 447 1150 447 2328 
Q 447 3434 972 4092 
Q 1497 4750 2381 4750 
Q 2619 4750 2861 4703 
Q 3103 4656 3366 4563 
z
" transform="scale(0.015625)"/>
       </defs>
       <use xlink:href="#DejaVuSans-30"/>
       <use xlink:href="#DejaVuSans-2e" x="63.623047"/>
       <use xlink:href="#DejaVuSans-36" x="95.410156"/>
      </g>
     </g>
    </g>
    <g id="ytick_5">
     <g id="line2d_23">
      <path d="M 50.51375 75.965154 
L 515.819767 75.965154 
" clip-path="url(#p9bce1e80e8)" style="fill: none; stroke: #eeeeee; stroke-width: 0.8; stroke-linecap: round"/>
     </g>
     <g id="line2d_24"/>
     <g id="text_12">
      <!-- 0.8 -->
      <g style="fill: #262626" transform="translate(24.749375 81.28406) scale(0.14 -0.14)">
       <use xlink:href="#DejaVuSans-30"/>
       <use xlink:href="#DejaVuSans-2e" x="63.623047"/>
       <use xlink:href="#DejaVuSans-38" x="95.410156"/>
      </g>
     </g>
    </g>
    <g id="ytick_6">
     <g id="line2d_25">
      <path d="M 50.51375 12.518906 
L 515.819767 12.518906 
" clip-path="url(#p9bce1e80e8)" style="fill: none; stroke: #eeeeee; stroke-width: 0.8; stroke-linecap: round"/>
     </g>
     <g id="line2d_26"/>
     <g id="text_13">
      <!-- 1.0 -->
      <g style="fill: #262626" transform="translate(24.749375 17.837812) scale(0.14 -0.14)">
       <use xlink:href="#DejaVuSans-31"/>
       <use xlink:href="#DejaVuSans-2e" x="63.623047"/>
       <use xlink:href="#DejaVuSans-30" x="95.410156"/>
      </g>
     </g>
    </g>
    <g id="text_14">
     <!-- Proportion -->
     <g style="fill: #262626" transform="translate(17.837812 207.249057) rotate(-90) scale(0.14 -0.14)">
      <defs>
       <path id="DejaVuSans-50" d="M 1259 4147 
L 1259 2394 
L 2053 2394 
Q 2494 2394 2734 2622 
Q 2975 2850 2975 3272 
Q 2975 3691 2734 3919 
Q 2494 4147 2053 4147 
L 1259 4147 
z
M 628 4666 
L 2053 4666 
Q 2838 4666 3239 4311 
Q 3641 3956 3641 3272 
Q 3641 2581 3239 2228 
Q 2838 1875 2053 1875 
L 1259 1875 
L 1259 0 
L 628 0 
L 628 4666 
z
" transform="scale(0.015625)"/>
       <path id="DejaVuSans-72" d="M 2631 2963 
Q 2534 3019 2420 3045 
Q 2306 3072 2169 3072 
Q 1681 3072 1420 2755 
Q 1159 2438 1159 1844 
L 1159 0 
L 581 0 
L 581 3500 
L 1159 3500 
L 1159 2956 
Q 1341 3275 1631 3429 
Q 1922 3584 2338 3584 
Q 2397 3584 2469 3576 
Q 2541 3569 2628 3553 
L 2631 2963 
z
" transform="scale(0.015625)"/>
       <path id="DejaVuSans-6f" d="M 1959 3097 
Q 1497 3097 1228 2736 
Q 959 2375 959 1747 
Q 959 1119 1226 758 
Q 1494 397 1959 397 
Q 2419 397 2687 759 
Q 2956 1122 2956 1747 
Q 2956 2369 2687 2733 
Q 2419 3097 1959 3097 
z
M 1959 3584 
Q 2709 3584 3137 3096 
Q 3566 2609 3566 1747 
Q 3566 888 3137 398 
Q 2709 -91 1959 -91 
Q 1206 -91 779 398 
Q 353 888 353 1747 
Q 353 2609 779 3096 
Q 1206 3584 1959 3584 
z
" transform="scale(0.015625)"/>
       <path id="DejaVuSans-70" d="M 1159 525 
L 1159 -1331 
L 581 -1331 
L 581 3500 
L 1159 3500 
L 1159 2969 
Q 1341 3281 1617 3432 
Q 1894 3584 2278 3584 
Q 2916 3584 3314 3078 
Q 3713 2572 3713 1747 
Q 3713 922 3314 415 
Q 2916 -91 2278 -91 
Q 1894 -91 1617 61 
Q 1341 213 1159 525 
z
M 3116 1747 
Q 3116 2381 2855 2742 
Q 2594 3103 2138 3103 
Q 1681 3103 1420 2742 
Q 1159 2381 1159 1747 
Q 1159 1113 1420 752 
Q 1681 391 2138 391 
Q 2594 391 2855 752 
Q 3116 1113 3116 1747 
z
" transform="scale(0.015625)"/>
       <path id="DejaVuSans-74" d="M 1172 4494 
L 1172 3500 
L 2356 3500 
L 2356 3053 
L 1172 3053 
L 1172 1153 
Q 1172 725 1289 603 
Q 1406 481 1766 481 
L 2356 481 
L 2356 0 
L 1766 0 
Q 1100 0 847 248 
Q 594 497 594 1153 
L 594 3053 
L 172 3053 
L 172 3500 
L 594 3500 
L 594 4494 
L 1172 4494 
z
" transform="scale(0.015625)"/>
       <path id="DejaVuSans-69" d="M 603 3500 
L 1178 3500 
L 1178 0 
L 603 0 
L 603 3500 
z
M 603 4863 
L 1178 4863 
L 1178 4134 
L 603 4134 
L 603 4863 
z
" transform="scale(0.015625)"/>
       <path id="DejaVuSans-6e" d="M 3513 2113 
L 3513 0 
L 2938 0 
L 2938 2094 
Q 2938 2591 2744 2837 
Q 2550 3084 2163 3084 
Q 1697 3084 1428 2787 
Q 1159 2491 1159 1978 
L 1159 0 
L 581 0 
L 581 3500 
L 1159 3500 
L 1159 2956 
Q 1366 3272 1645 3428 
Q 1925 3584 2291 3584 
Q 2894 3584 3203 3211 
Q 3513 2838 3513 2113 
z
" transform="scale(0.015625)"/>
      </defs>
      <use xlink:href="#DejaVuSans-50"/>
      <use xlink:href="#DejaVuSans-72" x="58.552734"/>
      <use xlink:href="#DejaVuSans-6f" x="97.416016"/>
      <use xlink:href="#DejaVuSans-70" x="158.597656"/>
      <use xlink:href="#DejaVuSans-6f" x="222.074219"/>
      <use xlink:href="#DejaVuSans-72" x="283.255859"/>
      <use xlink:href="#DejaVuSans-74" x="324.369141"/>
      <use xlink:href="#DejaVuSans-69" x="363.578125"/>
      <use xlink:href="#DejaVuSans-6f" x="391.361328"/>
      <use xlink:href="#DejaVuSans-6e" x="452.542969"/>
     </g>
    </g>
   </g>
   <g id="line2d_27">
    <path d="M 71.664023 329.750145 
L 71.664023 329.239306 
L 78.212605 329.239306 
L 78.212605 328.728466 
L 91.968391 328.728466 
L 91.968391 328.217627 
L 96.500893 328.217627 
L 96.500893 327.706788 
L 98.58057 327.706788 
L 98.58057 327.195948 
L 108.5194 327.195948 
L 108.5194 326.685109 
L 123.740217 326.685109 
L 123.740217 326.17427 
L 124.358451 326.17427 
L 124.358451 325.66343 
L 129.879078 325.66343 
L 129.879078 325.152591 
L 131.397898 325.152591 
L 131.397898 324.641751 
L 131.671688 324.641751 
L 131.671688 324.130912 
L 132.325464 324.130912 
L 132.325464 323.620073 
L 132.843877 323.620073 
L 132.843877 323.109233 
L 133.320083 323.109233 
L 133.320083 322.598394 
L 134.291993 322.598394 
L 134.291993 322.087555 
L 138.297334 322.087555 
L 138.297334 321.576715 
L 141.558196 321.576715 
L 141.558196 321.065876 
L 144.083679 321.065876 
L 144.083679 320.555037 
L 147.560733 320.555037 
L 147.560733 320.044197 
L 148.551609 320.044197 
L 148.551609 319.533358 
L 150.537242 319.533358 
L 150.537242 319.022519 
L 151.551996 319.022519 
L 151.551996 318.511679 
L 152.602777 318.511679 
L 152.602777 318.00084 
L 154.185511 318.00084 
L 154.185511 317.490001 
L 154.800387 317.490001 
L 154.800387 316.979161 
L 157.526784 316.979161 
L 157.526784 316.468322 
L 157.973211 316.468322 
L 157.973211 315.957482 
L 159.093169 315.957482 
L 159.093169 315.446643 
L 159.845766 315.446643 
L 159.845766 314.935804 
L 161.285356 314.935804 
L 161.285356 314.424964 
L 162.164745 314.424964 
L 162.177131 313.403286 
L 162.370018 313.403286 
L 162.370018 312.892446 
L 162.965592 312.892446 
L 163.040733 311.870768 
L 163.137022 311.870768 
L 163.137022 311.359928 
L 165.844626 311.359928 
L 165.844626 310.849089 
L 168.249363 310.849089 
L 168.249363 310.33825 
L 169.819948 310.33825 
L 169.819948 309.82741 
L 170.054534 309.82741 
L 170.054534 309.316571 
L 170.669259 309.316571 
L 170.669259 308.805731 
L 175.874971 308.805731 
L 175.874971 308.294892 
L 176.895909 308.294892 
L 176.895909 307.784053 
L 177.465611 307.784053 
L 177.465611 307.273213 
L 177.764062 307.273213 
L 177.764062 306.762374 
L 178.721266 306.762374 
L 178.721266 306.251535 
L 179.060553 306.251535 
L 179.060553 305.740695 
L 179.865491 305.740695 
L 179.865491 305.229856 
L 180.978196 305.229856 
L 180.978196 304.719017 
L 181.734123 304.719017 
L 181.801607 303.697338 
L 182.684795 303.697338 
L 182.684795 303.186499 
L 182.860883 303.186499 
L 182.860883 302.675659 
L 186.025211 302.675659 
L 186.025211 302.16482 
L 186.24847 302.16482 
L 186.24847 301.653981 
L 188.057782 301.653981 
L 188.057782 301.143141 
L 188.270006 301.143141 
L 188.270006 300.632302 
L 188.433977 300.632302 
L 188.433977 300.121462 
L 189.568176 300.121462 
L 189.568176 299.610623 
L 190.000715 299.610623 
L 190.000715 299.099784 
L 190.64593 299.099784 
L 190.64593 298.588944 
L 190.840912 298.588944 
L 190.840912 298.078105 
L 191.149762 298.078105 
L 191.149762 297.567266 
L 192.508544 297.567266 
L 192.508544 297.056426 
L 192.826872 297.056426 
L 192.826872 296.545587 
L 194.229602 296.545587 
L 194.229602 296.034748 
L 194.470577 296.034748 
L 194.470577 295.523908 
L 194.725337 295.523908 
L 194.725337 295.013069 
L 195.32194 295.013069 
L 195.32194 294.50223 
L 195.540898 294.50223 
L 195.540898 293.99139 
L 196.057385 293.99139 
L 196.057385 293.480551 
L 196.551797 293.480551 
L 196.551797 292.969712 
L 198.346433 292.969712 
L 198.346433 292.458872 
L 199.065131 292.458872 
L 199.146128 291.437193 
L 199.195807 291.437193 
L 199.195807 290.926354 
L 199.475737 290.926354 
L 199.475737 290.415515 
L 199.778252 290.415515 
L 199.778252 289.904675 
L 200.384007 289.904675 
L 200.384007 289.393836 
L 200.585297 289.393836 
L 200.585297 288.882997 
L 201.326757 288.882997 
L 201.326757 288.372157 
L 201.981314 288.372157 
L 201.981314 287.861318 
L 203.269378 287.861318 
L 203.35617 286.839639 
L 203.814741 286.839639 
L 203.814741 286.3288 
L 204.420151 286.3288 
L 204.420151 285.817961 
L 204.943541 285.817961 
L 204.994437 284.796282 
L 206.087535 284.796282 
L 206.087535 284.285443 
L 206.350836 284.285443 
L 206.350836 283.774603 
L 206.637869 283.774603 
L 206.637869 283.263764 
L 206.814115 283.263764 
L 206.877358 282.242085 
L 208.128762 282.242085 
L 208.128762 281.731246 
L 208.544443 281.731246 
L 208.544443 281.220406 
L 208.818478 281.220406 
L 208.818478 280.709567 
L 209.392143 280.709567 
L 209.501835 279.687888 
L 210.846088 279.687888 
L 210.849709 278.66621 
L 211.27683 278.66621 
L 211.27683 278.15537 
L 211.585663 278.15537 
L 211.585663 277.644531 
L 211.72895 277.644531 
L 211.72895 277.133692 
L 211.948302 277.133692 
L 211.948302 276.622852 
L 212.145108 276.622852 
L 212.207012 275.601173 
L 212.387929 275.601173 
L 212.387929 275.090334 
L 212.645913 275.090334 
L 212.645913 274.579495 
L 213.740954 274.579495 
L 213.740954 274.068655 
L 215.41922 274.068655 
L 215.53029 273.046977 
L 217.697123 273.046977 
L 217.697123 272.536137 
L 217.920885 272.536137 
L 217.920885 272.025298 
L 218.374507 272.025298 
L 218.374507 271.514459 
L 219.276341 271.514459 
L 219.276341 271.003619 
L 219.395581 271.003619 
L 219.395581 270.49278 
L 219.559148 270.49278 
L 219.559148 269.981941 
L 219.913703 269.981941 
L 219.913703 269.471101 
L 220.15742 269.471101 
L 220.15742 268.960262 
L 220.285355 268.960262 
L 220.285355 268.449423 
L 220.618085 268.449423 
L 220.618085 267.938583 
L 220.883216 267.938583 
L 220.883216 267.427744 
L 222.110736 267.427744 
L 222.110736 266.916904 
L 222.618198 266.916904 
L 222.618198 266.406065 
L 223.726311 266.406065 
L 223.726311 265.895226 
L 224.249108 265.895226 
L 224.249108 265.384386 
L 224.397649 265.384386 
L 224.397649 264.873547 
L 224.821742 264.873547 
L 224.881447 263.851868 
L 225.168696 263.851868 
L 225.168696 263.341029 
L 225.749261 263.341029 
L 225.839926 262.31935 
L 226.805856 262.31935 
L 226.805856 261.808511 
L 227.364496 261.808511 
L 227.364496 261.297672 
L 227.844804 261.297672 
L 227.844804 260.786832 
L 228.288697 260.786832 
L 228.288697 260.275993 
L 228.833584 260.275993 
L 228.833584 259.765154 
L 229.343823 259.765154 
L 229.343823 259.254314 
L 229.944594 259.254314 
L 229.985797 257.721796 
L 230.238715 257.721796 
L 230.238715 257.210957 
L 230.443045 257.210957 
L 230.443045 256.700117 
L 231.292148 256.700117 
L 231.292148 256.189278 
L 231.538049 256.189278 
L 231.610378 254.65676 
L 231.847966 254.65676 
L 231.847966 254.145921 
L 232.090832 254.145921 
L 232.143774 253.124242 
L 233.537403 253.124242 
L 233.624167 252.102563 
L 234.352351 252.102563 
L 234.352351 251.591724 
L 234.71504 251.591724 
L 234.71504 251.080885 
L 235.180857 251.080885 
L 235.180857 250.570045 
L 235.292787 250.570045 
L 235.320221 249.548366 
L 236.077694 249.548366 
L 236.077694 249.037527 
L 236.46412 249.037527 
L 236.46412 248.526688 
L 237.100541 248.526688 
L 237.100541 248.015848 
L 237.246795 248.015848 
L 237.246795 247.505009 
L 237.762389 247.505009 
L 237.798422 246.48333 
L 237.999769 246.48333 
L 237.999769 245.972491 
L 238.509086 245.972491 
L 238.509086 245.461652 
L 238.681944 245.461652 
L 238.681944 244.950812 
L 239.309049 244.950812 
L 239.309049 244.439973 
L 240.865229 244.439973 
L 240.865229 243.929134 
L 241.043957 243.929134 
L 241.130266 242.907455 
L 241.377709 242.907455 
L 241.377709 242.396615 
L 241.585501 242.396615 
L 241.585501 241.885776 
L 241.91034 241.885776 
L 241.91034 241.374937 
L 242.322533 241.374937 
L 242.322533 240.864097 
L 242.496723 240.864097 
L 242.496723 240.353258 
L 242.889306 240.353258 
L 242.978768 239.331579 
L 243.211315 239.331579 
L 243.211315 238.82074 
L 244.241226 238.82074 
L 244.241226 238.309901 
L 244.842599 238.309901 
L 244.842599 237.799061 
L 245.35042 237.799061 
L 245.35042 237.288222 
L 246.54128 237.288222 
L 246.54128 236.777383 
L 246.842325 236.777383 
L 246.842325 236.266543 
L 246.997008 236.266543 
L 247.066607 235.244865 
L 247.203571 235.244865 
L 247.203571 234.734025 
L 247.335398 234.734025 
L 247.335398 234.223186 
L 247.448914 234.223186 
L 247.537717 233.201507 
L 247.630213 233.201507 
L 247.660332 232.179828 
L 247.808775 232.179828 
L 247.808775 231.668989 
L 247.942341 231.668989 
L 247.942341 231.15815 
L 248.210778 231.15815 
L 248.210778 230.64731 
L 248.937732 230.64731 
L 248.937732 230.136471 
L 249.375784 230.136471 
L 249.375784 229.625632 
L 249.719371 229.625632 
L 249.719371 229.114792 
L 250.812657 229.114792 
L 250.812657 228.603953 
L 251.255814 228.603953 
L 251.255814 228.093114 
L 252.153618 228.093114 
L 252.214165 227.071435 
L 252.280063 227.071435 
L 252.297258 226.049756 
L 252.598226 226.049756 
L 252.623845 225.028077 
L 253.104021 225.028077 
L 253.194637 222.98472 
L 253.248919 222.98472 
L 253.248919 222.473881 
L 253.633107 222.473881 
L 253.633107 221.963041 
L 254.266649 221.963041 
L 254.266649 221.452202 
L 254.559494 221.452202 
L 254.559494 220.941363 
L 254.771301 220.941363 
L 254.771301 220.430523 
L 255.262832 220.430523 
L 255.262832 219.919684 
L 255.39247 219.919684 
L 255.39247 219.408845 
L 256.217805 219.408845 
L 256.217805 218.898005 
L 256.336566 218.898005 
L 256.336566 218.387166 
L 256.766877 218.387166 
L 256.829472 216.854648 
L 257.530431 216.854648 
L 257.575345 215.832969 
L 257.696041 215.832969 
L 257.696041 215.32213 
L 257.907822 215.32213 
L 257.907822 214.81129 
L 258.108816 214.81129 
L 258.108816 214.300451 
L 258.258157 214.300451 
L 258.258157 213.789612 
L 258.742286 213.789612 
L 258.742286 213.278772 
L 259.152923 213.278772 
L 259.152923 212.767933 
L 259.563536 212.767933 
L 259.563536 212.257094 
L 259.678136 212.257094 
L 259.78401 210.724576 
L 259.987597 210.724576 
L 260.075755 209.702897 
L 260.929752 209.702897 
L 260.933552 208.681218 
L 261.113125 208.681218 
L 261.170226 207.659539 
L 261.354389 207.659539 
L 261.354389 207.1487 
L 261.677073 207.1487 
L 261.677073 206.637861 
L 261.932523 206.637861 
L 262.004128 205.616182 
L 262.242443 205.616182 
L 262.242443 205.105343 
L 262.554248 205.105343 
L 262.554248 204.594503 
L 263.358008 204.594503 
L 263.358008 204.083664 
L 264.00871 204.083664 
L 264.00871 203.572825 
L 264.125888 203.572825 
L 264.125888 203.061985 
L 264.865264 203.061985 
L 264.865264 202.551146 
L 265.092385 202.551146 
L 265.111673 201.529467 
L 265.369289 201.529467 
L 265.369289 201.018628 
L 265.593442 201.018628 
L 265.643009 199.996949 
L 265.883731 199.996949 
L 265.883731 199.48611 
L 266.078773 199.48611 
L 266.078773 198.97527 
L 266.50942 198.97527 
L 266.50942 198.464431 
L 266.710085 198.464431 
L 266.710085 197.953592 
L 267.028338 197.953592 
L 267.028338 197.442752 
L 267.291609 197.442752 
L 267.374727 196.421074 
L 267.487399 196.421074 
L 267.487399 195.910234 
L 267.805476 195.910234 
L 267.878567 194.888556 
L 268.100983 194.888556 
L 268.100983 194.377716 
L 268.882853 194.377716 
L 268.882853 193.866877 
L 269.202724 193.866877 
L 269.202724 193.356038 
L 269.426183 193.356038 
L 269.426183 192.845198 
L 269.55635 192.845198 
L 269.587513 191.823519 
L 269.694423 191.823519 
L 269.791152 190.801841 
L 269.818588 190.801841 
L 269.818588 190.291001 
L 270.465642 190.291001 
L 270.465642 189.780162 
L 271.020304 189.780162 
L 271.020304 189.269323 
L 271.285812 189.269323 
L 271.285812 188.758483 
L 271.800703 188.758483 
L 271.800703 188.247644 
L 272.545046 188.247644 
L 272.545046 187.736805 
L 272.940556 187.736805 
L 272.940556 187.225965 
L 273.265629 187.225965 
L 273.265629 186.715126 
L 273.377921 186.715126 
L 273.377921 186.204287 
L 274.371523 186.204287 
L 274.371523 185.693447 
L 274.793619 185.693447 
L 274.793619 185.182608 
L 275.014284 185.182608 
L 275.018194 184.160929 
L 275.262378 184.160929 
L 275.262378 183.65009 
L 275.465845 183.65009 
L 275.465845 183.13925 
L 275.599581 183.13925 
L 275.621068 182.117572 
L 276.297511 182.117572 
L 276.373068 181.095893 
L 277.009627 181.095893 
L 277.009627 180.585054 
L 277.28707 180.585054 
L 277.28707 180.074214 
L 277.48237 180.074214 
L 277.48237 179.563375 
L 277.705612 179.563375 
L 277.705612 179.052536 
L 278.924319 179.052536 
L 278.924319 178.541696 
L 279.098763 178.541696 
L 279.098763 178.030857 
L 279.694196 178.030857 
L 279.694196 177.520018 
L 279.831272 177.520018 
L 279.877905 176.498339 
L 280.184163 176.498339 
L 280.184163 175.987499 
L 280.309472 175.987499 
L 280.309472 175.47666 
L 281.020926 175.47666 
L 281.020926 174.965821 
L 281.205689 174.965821 
L 281.205689 174.454981 
L 281.450388 174.454981 
L 281.450388 173.944142 
L 281.817957 173.944142 
L 281.916371 171.900785 
L 282.461569 171.900785 
L 282.461569 171.389945 
L 282.755393 171.389945 
L 282.840011 170.368267 
L 283.041897 170.368267 
L 283.041897 169.857427 
L 283.275384 169.857427 
L 283.275384 169.346588 
L 283.681204 169.346588 
L 283.791953 167.81407 
L 285.103755 167.81407 
L 285.103755 167.30323 
L 285.687233 167.30323 
L 285.687233 166.792391 
L 286.175282 166.792391 
L 286.216803 165.770712 
L 286.343534 165.770712 
L 286.343534 165.259873 
L 286.707147 165.259873 
L 286.707147 164.749034 
L 287.152019 164.749034 
L 287.152019 164.238194 
L 287.451 164.238194 
L 287.451 163.727355 
L 287.756068 163.727355 
L 287.756068 163.216516 
L 287.943341 163.216516 
L 287.957229 162.194837 
L 288.312386 162.194837 
L 288.374172 160.15148 
L 288.532591 160.15148 
L 288.532591 159.64064 
L 288.791618 159.64064 
L 288.791618 159.129801 
L 289.440964 159.129801 
L 289.440964 158.618961 
L 289.784923 158.618961 
L 289.784923 158.108122 
L 290.104859 158.108122 
L 290.173941 157.086443 
L 291.137054 157.086443 
L 291.137054 156.575604 
L 291.542375 156.575604 
L 291.542375 156.064765 
L 291.90457 156.064765 
L 291.90457 155.553925 
L 292.0296 155.553925 
L 292.0296 155.043086 
L 293.000924 155.043086 
L 293.049599 154.021407 
L 293.15804 154.021407 
L 293.15804 153.510568 
L 293.281209 153.510568 
L 293.389131 152.488889 
L 293.538267 152.488889 
L 293.588768 151.467211 
L 293.676085 151.467211 
L 293.743194 150.445532 
L 294.05819 150.445532 
L 294.110035 149.423853 
L 294.292707 149.423853 
L 294.292707 148.913014 
L 294.678885 148.913014 
L 294.678885 148.402174 
L 294.794142 148.402174 
L 294.901836 147.380496 
L 295.347656 147.380496 
L 295.347656 146.869656 
L 295.94695 146.869656 
L 295.992238 145.847978 
L 296.262078 145.847978 
L 296.262078 145.337138 
L 296.537293 145.337138 
L 296.546798 144.31546 
L 296.918162 144.31546 
L 296.918162 143.80462 
L 297.141625 143.80462 
L 297.141625 143.293781 
L 297.447763 143.293781 
L 297.447763 142.782941 
L 298.232879 142.782941 
L 298.31509 141.250423 
L 298.468892 141.250423 
L 298.468892 140.739584 
L 298.609381 140.739584 
L 298.609381 140.228745 
L 298.725047 140.228745 
L 298.725047 139.717905 
L 299.303113 139.717905 
L 299.303113 139.207066 
L 299.770722 139.207066 
L 299.818978 138.185387 
L 300.381861 138.185387 
L 300.381861 137.674548 
L 300.607813 137.674548 
L 300.607813 137.163709 
L 300.908317 137.163709 
L 300.957578 136.14203 
L 301.563531 136.14203 
L 301.563531 135.631191 
L 301.708056 135.631191 
L 301.708056 135.120351 
L 303.225982 135.120351 
L 303.237869 134.098672 
L 303.426664 134.098672 
L 303.426664 133.587833 
L 303.721976 133.587833 
L 303.791916 132.566154 
L 303.994332 132.566154 
L 304.035373 131.033636 
L 304.136557 131.033636 
L 304.136557 130.522797 
L 304.370522 130.522797 
L 304.370522 130.011958 
L 304.570839 130.011958 
L 304.570839 129.501118 
L 304.825934 129.501118 
L 304.825934 128.990279 
L 306.033849 128.990279 
L 306.144809 127.457761 
L 306.149658 127.457761 
L 306.213525 126.436082 
L 306.375887 126.436082 
L 306.404952 125.414403 
L 306.902983 125.414403 
L 306.902983 124.903564 
L 307.410727 124.903564 
L 307.410727 124.392725 
L 308.249789 124.392725 
L 308.291801 123.371046 
L 308.393828 123.371046 
L 308.393828 122.860207 
L 308.625554 122.860207 
L 308.625554 122.349367 
L 309.070212 122.349367 
L 309.070212 121.838528 
L 309.444537 121.838528 
L 309.444537 121.327689 
L 310.155804 121.327689 
L 310.155804 120.816849 
L 310.499201 120.816849 
L 310.499201 120.30601 
L 310.845818 120.30601 
L 310.845818 119.795171 
L 311.106867 119.795171 
L 311.106867 119.284331 
L 311.264575 119.284331 
L 311.264575 118.773492 
L 311.937966 118.773492 
L 311.937966 118.262652 
L 312.589212 118.262652 
L 312.59503 117.240974 
L 312.908099 117.240974 
L 312.908099 116.730134 
L 313.571454 116.730134 
L 313.571454 116.219295 
L 313.949737 116.219295 
L 313.949737 115.708456 
L 314.150348 115.708456 
L 314.150348 115.197616 
L 314.286209 115.197616 
L 314.368221 114.175938 
L 314.417637 114.175938 
L 314.417637 113.665098 
L 314.997491 113.665098 
L 314.997491 113.154259 
L 315.35351 113.154259 
L 315.35351 112.64342 
L 315.729086 112.64342 
L 315.729086 112.13258 
L 316.599554 112.13258 
L 316.599554 111.621741 
L 316.890006 111.621741 
L 316.990462 110.600062 
L 317.175788 110.600062 
L 317.175788 110.089223 
L 317.453374 110.089223 
L 317.453374 109.578383 
L 317.641723 109.578383 
L 317.641723 109.067544 
L 317.943551 109.067544 
L 317.99574 108.045865 
L 318.062733 108.045865 
L 318.062733 107.535026 
L 318.229533 107.535026 
L 318.229533 107.024187 
L 318.972559 107.024187 
L 318.972559 106.513347 
L 319.137786 106.513347 
L 319.242135 105.491669 
L 319.571215 105.491669 
L 319.571215 104.980829 
L 320.814215 104.980829 
L 320.903393 103.959151 
L 321.427601 103.959151 
L 321.427601 103.448311 
L 321.72911 103.448311 
L 321.72911 102.937472 
L 322.401122 102.937472 
L 322.401122 102.426633 
L 322.728543 102.426633 
L 322.728543 101.915793 
L 323.06478 101.915793 
L 323.144287 100.894114 
L 323.20236 100.894114 
L 323.20236 100.383275 
L 323.52062 100.383275 
L 323.52062 99.872436 
L 323.883777 99.872436 
L 323.883777 99.361596 
L 324.500405 99.361596 
L 324.500405 98.850757 
L 326.257882 98.850757 
L 326.257882 98.339918 
L 327.401523 98.339918 
L 327.401523 97.829078 
L 327.851301 97.829078 
L 327.851301 97.318239 
L 328.233821 97.318239 
L 328.233821 96.8074 
L 328.70313 96.8074 
L 328.70313 96.29656 
L 329.573069 96.29656 
L 329.573069 95.785721 
L 330.866697 95.785721 
L 330.866697 95.274882 
L 331.1586 95.274882 
L 331.228014 94.253203 
L 331.518266 94.253203 
L 331.518266 93.742364 
L 332.52118 93.742364 
L 332.52118 93.231524 
L 332.664171 93.231524 
L 332.664171 92.720685 
L 332.901134 92.720685 
L 332.901134 92.209845 
L 333.346377 92.209845 
L 333.346377 91.699006 
L 333.51935 91.699006 
L 333.61473 90.166488 
L 333.657894 90.166488 
L 333.690722 89.144809 
L 333.861953 89.144809 
L 333.861953 88.63397 
L 334.235793 88.63397 
L 334.235793 88.123131 
L 334.572981 88.123131 
L 334.572981 87.612291 
L 334.822603 87.612291 
L 334.822603 87.101452 
L 335.148765 87.101452 
L 335.204432 86.079773 
L 336.29483 86.079773 
L 336.29483 85.568934 
L 336.920337 85.568934 
L 336.986895 84.547255 
L 337.033839 84.547255 
L 337.033839 84.036416 
L 337.633333 84.036416 
L 337.633333 83.525576 
L 338.169782 83.525576 
L 338.251748 82.503898 
L 338.657092 82.503898 
L 338.657092 81.993058 
L 339.111627 81.993058 
L 339.111627 81.482219 
L 339.336133 81.482219 
L 339.336133 80.97138 
L 339.506981 80.97138 
L 339.506981 80.46054 
L 339.64531 80.46054 
L 339.754765 79.438862 
L 340.061859 79.438862 
L 340.061859 78.928022 
L 340.486743 78.928022 
L 340.552297 77.906344 
L 340.773605 77.906344 
L 340.773605 77.395504 
L 341.063657 77.395504 
L 341.063657 76.884665 
L 341.319977 76.884665 
L 341.390808 75.862986 
L 341.782281 75.862986 
L 341.782281 75.352147 
L 342.038068 75.352147 
L 342.038068 74.841307 
L 342.60394 74.841307 
L 342.60394 74.330468 
L 342.80473 74.330468 
L 342.80473 73.819629 
L 343.501545 73.819629 
L 343.501545 73.308789 
L 344.156412 73.308789 
L 344.156412 72.79795 
L 344.44747 72.79795 
L 344.44747 72.287111 
L 344.815817 72.287111 
L 344.815817 71.776271 
L 345.147775 71.776271 
L 345.147775 71.265432 
L 345.26334 71.265432 
L 345.26334 70.754593 
L 345.560214 70.754593 
L 345.560214 70.243753 
L 345.877274 70.243753 
L 345.914115 69.222075 
L 346.205437 69.222075 
L 346.244013 68.200396 
L 347.720786 68.200396 
L 347.720786 67.689556 
L 347.918098 67.689556 
L 347.918098 67.178717 
L 348.312518 67.178717 
L 348.312518 66.667878 
L 348.854076 66.667878 
L 348.885223 65.646199 
L 349.25763 65.646199 
L 349.25763 65.13536 
L 349.484056 65.13536 
L 349.564425 64.113681 
L 350.215423 64.113681 
L 350.215423 63.602842 
L 350.449388 63.602842 
L 350.449388 63.092002 
L 351.218889 63.092002 
L 351.218889 62.581163 
L 352.082113 62.581163 
L 352.082113 62.070324 
L 352.306896 62.070324 
L 352.306896 61.559484 
L 352.469985 61.559484 
L 352.469985 61.048645 
L 352.650434 61.048645 
L 352.650434 60.537806 
L 352.79694 60.537806 
L 352.79694 60.026966 
L 353.008963 60.026966 
L 353.008963 59.516127 
L 353.821764 59.516127 
L 353.821764 59.005287 
L 354.211752 59.005287 
L 354.280895 57.983609 
L 355.470334 57.983609 
L 355.543533 56.96193 
L 355.582242 56.96193 
L 355.582242 56.451091 
L 355.762976 56.451091 
L 355.762976 55.940251 
L 356.074983 55.940251 
L 356.074983 55.429412 
L 356.307603 55.429412 
L 356.307603 54.918573 
L 356.458221 54.918573 
L 356.458221 54.407733 
L 356.609888 54.407733 
L 356.609888 53.896894 
L 356.750591 53.896894 
L 356.821155 52.875215 
L 357.122765 52.875215 
L 357.122765 52.364376 
L 358.014056 52.364376 
L 358.014056 51.853536 
L 358.716927 51.853536 
L 358.716927 51.342697 
L 358.860274 51.342697 
L 358.860274 50.831858 
L 359.93876 50.831858 
L 359.93876 50.321018 
L 360.235501 50.321018 
L 360.337152 49.29934 
L 361.522378 49.29934 
L 361.522378 48.7885 
L 361.652477 48.7885 
L 361.652477 48.277661 
L 362.005174 48.277661 
L 362.005174 47.766822 
L 362.350778 47.766822 
L 362.350778 47.255982 
L 362.656643 47.255982 
L 362.6597 46.234304 
L 362.881755 46.234304 
L 362.881755 45.723464 
L 363.686226 45.723464 
L 363.686226 45.212625 
L 363.869902 45.212625 
L 363.869902 44.701786 
L 365.958111 44.701786 
L 365.958111 44.190946 
L 367.066062 44.190946 
L 367.066062 43.680107 
L 367.215041 43.680107 
L 367.215041 43.169267 
L 367.496322 43.169267 
L 367.496322 42.658428 
L 368.489337 42.658428 
L 368.552458 41.636749 
L 369.204703 41.636749 
L 369.210288 40.615071 
L 370.284214 40.615071 
L 370.284214 40.104231 
L 370.464992 40.104231 
L 370.464992 39.593392 
L 370.79749 39.593392 
L 370.79749 39.082553 
L 371.898923 39.082553 
L 371.898923 38.571713 
L 373.921267 38.571713 
L 373.921267 38.060874 
L 374.537468 38.060874 
L 374.537468 37.550035 
L 375.465784 37.550035 
L 375.53694 36.528356 
L 375.595019 36.528356 
L 375.595019 36.017517 
L 379.035039 36.017517 
L 379.035039 35.506677 
L 379.719517 35.506677 
L 379.719517 34.995838 
L 381.715439 34.995838 
L 381.715439 34.484998 
L 382.197818 34.484998 
L 382.197818 33.974159 
L 384.571106 33.974159 
L 384.571106 33.46332 
L 385.037035 33.46332 
L 385.037035 32.95248 
L 386.166092 32.95248 
L 386.166092 32.441641 
L 386.830633 32.441641 
L 386.830633 31.930802 
L 391.471215 31.930802 
L 391.471215 31.419962 
L 392.10382 31.419962 
L 392.10382 30.909123 
L 394.324413 30.909123 
L 394.324413 30.398284 
L 395.424885 30.398284 
L 395.424885 29.887444 
L 396.086568 29.887444 
L 396.093917 28.865766 
L 397.074221 28.865766 
L 397.106057 27.844087 
L 397.268715 27.844087 
L 397.268715 27.333248 
L 397.724892 27.333248 
L 397.724892 26.822408 
L 398.364266 26.822408 
L 398.364266 26.311569 
L 399.351355 26.311569 
L 399.351355 25.800729 
L 401.272122 25.800729 
L 401.272122 25.28989 
L 402.242922 25.28989 
L 402.242922 24.779051 
L 402.608014 24.779051 
L 402.608014 24.268211 
L 404.398511 24.268211 
L 404.398511 23.757372 
L 404.683933 23.757372 
L 404.683933 23.246533 
L 404.870718 23.246533 
L 404.870718 22.735693 
L 407.908374 22.735693 
L 407.908374 22.224854 
L 408.12417 22.224854 
L 408.12417 21.714015 
L 414.937543 21.714015 
L 414.937543 21.203175 
L 416.316761 21.203175 
L 416.316761 20.692336 
L 418.847228 20.692336 
L 418.847228 20.181497 
L 419.149639 20.181497 
L 419.205554 19.159818 
L 426.736861 19.159818 
L 426.736861 18.648978 
L 430.370488 18.648978 
L 430.370488 18.138139 
L 431.058528 18.138139 
L 431.058528 17.6273 
L 432.178214 17.6273 
L 432.178214 17.11646 
L 433.565457 17.11646 
L 433.565457 16.605621 
L 443.464705 16.605621 
L 443.464705 16.094782 
L 453.095637 16.094782 
L 453.095637 15.583942 
L 457.528889 15.583942 
L 457.528889 15.073103 
L 467.176811 15.073103 
L 467.176811 14.562264 
L 471.20283 14.562264 
L 471.20283 14.051424 
L 480.287729 14.051424 
L 480.287729 13.540585 
L 489.591588 13.540585 
L 489.591588 13.029746 
L 494.669493 13.029746 
L 494.669493 12.518906 
L 494.669493 12.518906 
" clip-path="url(#p9bce1e80e8)" style="fill: none; stroke: #d11149; stroke-width: 1.5; stroke-linecap: round"/>
   </g>
   <g id="patch_3">
    <path d="M 50.51375 329.750145 
L 50.51375 12.518906 
" style="fill: none"/>
   </g>
   <g id="patch_4">
    <path d="M 50.51375 329.750145 
L 515.819767 329.750145 
" style="fill: none"/>
   </g>
  </g>
 </g>
 <defs>
  <clipPath id="p9bce1e80e8">
   <rect x="50.51375" y="12.518906" width="465.306017" height="317.231239"/>
  </clipPath>
 </defs>
</svg>
